<svg width="321" height="200" viewBox="0 0 321 200" fill="none" xmlns="http://www.w3.org/2000/svg">
<g clip-path="url(#clip0)">
<path d="M306.255 200H14.8568C7.00543 200 0.5 193.61 0.5 185.65V14.3498C0.5 6.39013 6.89327 0 14.8568 0H306.255C314.107 0 320.612 6.39013 320.612 14.3498V185.762C320.5 193.61 314.107 200 306.255 200Z" fill="#A4E8E0"/>
<path d="M306.255 200H14.8568C7.00543 200 0.5 193.61 0.5 185.65V14.3498C0.5 6.39013 6.89327 0 14.8568 0H306.255C314.107 0 320.612 6.39013 320.612 14.3498V185.762C320.5 193.61 314.107 200 306.255 200Z" fill="#A4E8E0"/>
<rect x="13.6748" y="-202.999" width="437.078" height="249.149" rx="32" transform="rotate(45 13.6748 -202.999)" fill="#31D0AA"/>
<rect x="-162.5" y="166.061" width="437.078" height="249.149" rx="32" transform="rotate(-45 -162.5 166.061)" fill="#4CD7D0"/>
<path d="M278.327 155.493L263.521 170.291C262.063 171.749 259.596 171.749 258.138 170.291L243.332 155.493C241.874 154.036 241.874 151.569 243.332 150.112L258.138 135.314C259.596 133.856 262.063 133.856 263.521 135.314L278.327 150.112C279.785 151.569 279.785 153.924 278.327 155.493Z" fill="white"/>
<path d="M298.628 155.493L283.823 170.291C282.365 171.749 279.897 171.749 278.439 170.291L263.634 155.493C262.176 154.036 262.176 151.569 263.634 150.112L278.439 135.314C279.897 133.856 282.365 133.856 283.823 135.314L298.628 150.112C300.086 151.569 300.086 153.924 298.628 155.493Z" fill="#F8EA8C"/>
<path d="M72.0597 73.4302H41.215C36.7285 73.4302 33.0271 69.1701 33.0271 63.901V44.058C33.0271 38.7889 36.7285 34.5288 41.215 34.5288H72.0597C76.5462 34.5288 80.2476 38.7889 80.2476 44.058V63.901C80.3597 69.058 76.6584 73.4302 72.0597 73.4302Z" fill="#F8EA8C"/>
<path d="M36.0556 102.242L34.4854 102.691C34.1489 102.803 34.1489 102.803 33.9245 102.803C33.4759 102.803 33.1394 102.354 33.1394 101.906C33.1394 101.457 33.3637 101.121 34.0367 101.009L37.7381 100V111.323H35.9435V102.242H36.0556Z" fill="white"/>
<path d="M54.1138 111.323H46.0381V109.417C49.0665 106.951 49.403 106.615 50.1881 105.942C51.9827 104.372 52.207 103.924 52.207 103.364C52.207 102.467 51.3097 101.794 50.1881 101.794C49.5151 101.794 48.8422 102.018 48.5057 102.467C48.2813 102.691 48.2813 102.691 48.1692 103.251C48.057 103.588 47.7205 103.812 47.384 103.812C46.9354 103.812 46.4867 103.476 46.4867 102.915C46.4867 102.355 46.9354 101.458 47.4962 100.897C48.1692 100.225 49.1786 99.8882 50.3003 99.8882C52.4314 99.8882 54.1138 101.346 54.1138 103.364C54.1138 104.485 53.6651 105.157 51.9827 106.839C51.5341 107.287 50.5246 108.184 48.9543 109.529H54.3381V111.323H54.1138Z" fill="white"/>
<path d="M64.2085 104.484C65.1058 104.484 65.7787 103.812 65.7787 103.027C65.7787 102.242 64.9936 101.682 63.7598 101.682C62.7503 101.682 62.3017 101.906 61.7409 102.466C61.6287 102.579 61.4044 102.691 61.0679 102.691C60.6192 102.691 60.1706 102.242 60.1706 101.794C60.1706 100.785 61.9652 99.7759 63.872 99.7759C64.9936 99.7759 66.0031 100.112 66.676 100.785C67.2368 101.345 67.5733 102.13 67.5733 102.803C67.5733 103.812 67.1247 104.484 66.0031 105.157C67.349 105.83 68.022 106.727 68.022 107.848C68.022 108.857 67.5733 109.866 66.676 110.538C65.8909 111.099 64.9936 111.323 63.4233 111.323C61.2922 111.323 59.8341 110.762 59.8341 109.866C59.8341 109.417 60.1706 108.969 60.7314 108.969C60.9557 108.969 61.0679 108.969 61.2922 109.193C61.7409 109.529 62.3017 109.641 63.4233 109.641C64.6571 109.641 65.3301 109.417 65.7787 109.081C66.1152 108.745 66.2274 108.296 66.2274 107.96C66.2274 107.287 65.6666 106.727 64.8814 106.39C64.5449 106.278 64.3206 106.166 63.5355 106.166C62.9747 106.166 62.6382 105.83 62.6382 105.381C62.6382 104.821 62.9747 104.484 63.5355 104.484H64.2085Z" fill="white"/>
<path d="M78.2288 108.857H73.4058V107.399L77.6679 100.225H80.0234V107.063C80.6963 107.063 81.145 107.399 81.145 107.96C81.145 108.521 80.8085 108.857 80.0234 108.857V111.323H78.2288V108.857ZM78.2288 102.803L75.5369 107.063H78.2288V102.803Z" fill="white"/>
<path d="M108.849 104.036C109.522 103.812 110.083 103.7 110.644 103.7C112.775 103.7 114.345 105.381 114.345 107.624C114.345 108.632 114.009 109.529 113.336 110.314C112.55 111.211 111.541 111.547 109.859 111.547C107.728 111.547 106.157 110.763 106.157 109.754C106.157 109.305 106.606 108.857 107.055 108.857C107.279 108.857 107.391 108.857 107.728 109.081C108.288 109.529 108.737 109.641 109.971 109.641C111.765 109.641 112.663 108.969 112.663 107.624C112.663 106.278 111.878 105.381 110.644 105.493C110.083 105.493 109.298 105.718 108.513 106.054C108.288 106.166 108.176 106.166 108.064 106.166C107.503 106.166 107.167 105.718 107.167 105.157V100.112H112.55C112.999 100.112 113.223 100.112 113.336 100.224C113.56 100.449 113.672 100.673 113.672 100.897C113.672 101.233 113.56 101.458 113.223 101.682C113.111 101.794 112.887 101.794 112.438 101.794H108.849V104.036Z" fill="white"/>
<path d="M124.552 104.26C126.459 104.26 127.917 105.942 127.917 107.96C127.917 108.969 127.58 109.865 127.02 110.538C126.347 111.211 125.561 111.547 124.328 111.547C122.87 111.547 121.748 110.987 121.075 109.753C120.626 108.857 120.29 107.511 120.29 106.278C120.29 104.709 120.738 103.363 121.636 102.242C122.87 100.785 124.328 100 125.898 100C127.132 100 127.917 100.448 127.917 101.121C127.917 101.57 127.468 102.018 127.02 102.018C126.907 102.018 126.683 102.018 126.347 101.906C126.122 101.794 126.01 101.794 125.898 101.794C123.991 101.794 122.421 103.363 121.972 105.493C122.982 104.596 123.655 104.26 124.552 104.26ZM124.328 109.753C125.449 109.753 126.122 109.081 126.122 107.848C126.122 106.839 125.337 105.942 124.44 106.054C123.655 106.054 122.757 106.726 122.309 107.511C122.533 109.193 123.206 109.753 124.328 109.753Z" fill="white"/>
<path d="M133.188 100.225H140.816V102.018L138.011 110.426C137.787 111.099 137.563 111.323 137.114 111.323C136.666 111.323 136.217 110.987 136.217 110.426C136.217 110.314 136.217 110.09 136.329 109.866L139.021 102.018H133.188V100.225Z" fill="white"/>
<path d="M154.499 108.408C154.499 110.314 152.929 111.659 150.686 111.659C148.443 111.659 146.872 110.314 146.872 108.408C146.872 107.287 147.433 106.39 148.555 105.717C147.545 105.045 146.984 104.26 146.984 103.251C146.984 101.457 148.667 100 150.686 100C152.705 100 154.387 101.457 154.387 103.251C154.387 104.26 153.939 105.045 152.817 105.717C153.939 106.39 154.499 107.287 154.499 108.408ZM148.555 108.184C148.555 109.081 149.452 109.753 150.574 109.753C151.807 109.753 152.593 109.081 152.593 108.184C152.593 107.287 151.695 106.614 150.574 106.614C149.564 106.614 148.555 107.287 148.555 108.184ZM148.779 103.251C148.779 104.148 149.564 104.821 150.686 104.821C151.807 104.821 152.593 104.148 152.593 103.251C152.593 102.354 151.807 101.682 150.686 101.682C149.564 101.794 148.779 102.354 148.779 103.251Z" fill="white"/>
<path d="M183.662 107.287C181.755 107.287 180.297 105.605 180.297 103.587C180.297 102.578 180.633 101.682 181.194 101.009C181.867 100.336 182.652 100 183.886 100C185.344 100 186.466 100.561 187.139 101.794C187.587 102.578 187.924 104.036 187.924 105.269C187.924 106.839 187.475 108.184 186.578 109.305C185.344 110.762 183.886 111.547 182.316 111.547C181.082 111.547 180.297 111.099 180.297 110.426C180.297 109.978 180.746 109.529 181.194 109.529C181.306 109.529 181.531 109.529 181.867 109.641C182.091 109.753 182.204 109.753 182.316 109.753C184.223 109.753 185.793 108.184 186.241 106.054C185.232 106.951 184.559 107.287 183.662 107.287ZM183.774 101.794C182.652 101.794 181.979 102.466 181.979 103.7C181.979 104.709 182.764 105.493 183.662 105.493C184.447 105.493 185.344 104.821 185.793 104.036C185.569 102.354 185.008 101.794 183.774 101.794Z" fill="white"/>
<path d="M200.935 106.615C200.935 108.184 200.486 109.642 199.589 110.651C199.028 111.323 198.131 111.659 197.121 111.659C196.112 111.659 195.214 111.323 194.654 110.651C193.756 109.754 193.308 108.296 193.308 106.615V104.933C193.308 103.364 193.756 101.906 194.654 100.897C195.214 100.225 196.112 99.8882 197.121 99.8882C198.131 99.8882 199.028 100.225 199.589 100.897C200.486 101.794 200.935 103.251 200.935 104.933V106.615ZM194.99 106.727C194.99 108.52 195.775 109.754 197.009 109.754C198.243 109.754 199.028 108.52 199.028 106.727V104.821C199.028 103.027 198.243 101.794 197.009 101.794C195.775 101.794 194.99 103.027 194.99 104.821V106.727Z" fill="white"/>
<path d="M214.394 106.615C214.394 108.184 213.945 109.642 213.048 110.651C212.487 111.323 211.59 111.659 210.581 111.659C209.571 111.659 208.674 111.323 208.113 110.651C207.216 109.754 206.767 108.296 206.767 106.615V104.933C206.767 103.364 207.216 101.906 208.113 100.897C208.674 100.225 209.571 99.8882 210.581 99.8882C211.59 99.8882 212.487 100.225 213.048 100.897C213.945 101.794 214.394 103.251 214.394 104.933V106.615ZM208.45 106.727C208.45 108.52 209.235 109.754 210.468 109.754C211.702 109.754 212.487 108.52 212.487 106.727V104.821C212.487 103.027 211.702 101.794 210.468 101.794C209.235 101.794 208.45 103.027 208.45 104.821V106.727Z" fill="white"/>
<path d="M224.04 107.287C222.133 107.287 220.675 105.605 220.675 103.587C220.675 102.578 221.012 101.682 221.573 101.009C222.246 100.336 223.031 100 224.264 100C225.723 100 226.844 100.561 227.517 101.794C227.966 102.578 228.302 104.036 228.302 105.269C228.302 106.839 227.854 108.184 226.956 109.305C225.723 110.762 224.264 111.547 222.694 111.547C221.46 111.547 220.675 111.099 220.675 110.426C220.675 109.978 221.124 109.529 221.573 109.529C221.685 109.529 221.909 109.529 222.246 109.641C222.47 109.753 222.582 109.753 222.694 109.753C224.601 109.753 226.171 108.184 226.62 106.054C225.61 106.951 224.937 107.287 224.04 107.287ZM224.152 101.794C223.031 101.794 222.358 102.466 222.358 103.7C222.358 104.709 223.143 105.605 224.04 105.493C224.825 105.493 225.723 104.821 226.171 104.036C225.947 102.354 225.386 101.794 224.152 101.794Z" fill="white"/>
<path d="M260.717 108.408C260.717 110.314 259.147 111.659 256.904 111.659C254.661 111.659 253.09 110.314 253.09 108.408C253.09 107.287 253.651 106.39 254.773 105.717C253.763 105.045 253.203 104.26 253.203 103.251C253.203 101.457 254.885 100 256.904 100C258.923 100 260.605 101.457 260.605 103.251C260.605 104.26 260.157 105.045 259.035 105.717C260.157 106.39 260.717 107.287 260.717 108.408ZM254.885 108.184C254.885 109.081 255.782 109.753 256.904 109.753C258.138 109.753 258.923 109.081 258.923 108.184C258.923 107.287 258.025 106.614 256.904 106.614C255.782 106.614 254.885 107.287 254.885 108.184ZM254.997 103.251C254.997 104.148 255.782 104.821 256.904 104.821C258.025 104.821 258.811 104.148 258.811 103.251C258.811 102.354 258.025 101.682 256.904 101.682C255.782 101.794 254.997 102.354 254.997 103.251Z" fill="white"/>
<path d="M265.989 100.225H273.616V102.018L270.812 110.426C270.588 111.099 270.363 111.323 269.915 111.323C269.466 111.323 269.017 110.987 269.017 110.426C269.017 110.314 269.017 110.09 269.13 109.866L271.821 102.018H265.989V100.225Z" fill="white"/>
<path d="M283.935 104.26C285.842 104.26 287.3 105.942 287.3 107.96C287.3 108.969 286.963 109.865 286.403 110.538C285.73 111.211 284.945 111.547 283.711 111.547C282.253 111.547 281.131 110.987 280.458 109.753C280.009 108.857 279.673 107.511 279.673 106.278C279.673 104.709 280.122 103.363 281.019 102.242C282.253 100.785 283.711 100 285.281 100C286.515 100 287.3 100.448 287.3 101.121C287.3 101.57 286.851 102.018 286.403 102.018C286.29 102.018 286.066 102.018 285.73 101.906C285.505 101.794 285.393 101.794 285.281 101.794C283.374 101.794 281.804 103.363 281.355 105.493C282.365 104.596 283.038 104.26 283.935 104.26ZM283.711 109.753C284.832 109.753 285.505 109.081 285.505 107.848C285.505 106.839 284.72 106.054 283.823 106.054C283.038 106.054 282.14 106.726 281.692 107.511C281.916 109.193 282.589 109.753 283.711 109.753Z" fill="white"/>
<path d="M294.815 104.036C295.488 103.812 296.049 103.7 296.61 103.7C298.741 103.7 300.311 105.381 300.311 107.623C300.311 108.632 299.974 109.529 299.301 110.314C298.516 111.211 297.507 111.547 295.824 111.547C293.693 111.547 292.123 110.762 292.123 109.753C292.123 109.305 292.572 108.856 293.02 108.856C293.245 108.856 293.357 108.857 293.693 109.081C294.254 109.529 294.703 109.641 295.937 109.641C297.731 109.641 298.628 108.969 298.628 107.623C298.628 106.278 297.843 105.381 296.61 105.381C296.049 105.381 295.264 105.605 294.478 105.942C294.254 106.054 294.142 106.054 294.03 106.054C293.469 106.054 293.133 105.605 293.133 105.045V100H298.516C298.965 100 299.189 100 299.301 100.112C299.526 100.336 299.638 100.561 299.638 100.785C299.638 101.121 299.526 101.345 299.189 101.57C299.077 101.682 298.853 101.682 298.404 101.682H294.815V104.036Z" fill="white"/>
<path d="M173.343 142.713L171.772 143.162C171.436 143.274 171.436 143.274 171.212 143.274C170.763 143.274 170.427 142.825 170.427 142.377C170.427 141.816 170.651 141.592 171.324 141.48L175.025 140.471V151.794H173.231V142.713H173.343Z" fill="white"/>
<path d="M188.597 151.794H180.521V149.888C183.55 147.422 183.886 147.085 184.671 146.413C186.466 144.843 186.69 144.395 186.69 143.834C186.69 142.937 185.793 142.265 184.671 142.265C183.998 142.265 183.325 142.489 182.989 142.937C182.764 143.162 182.764 143.162 182.652 143.722C182.54 144.058 182.204 144.283 181.867 144.283C181.418 144.283 180.97 143.946 180.97 143.386C180.97 142.825 181.418 141.928 181.979 141.368C182.652 140.695 183.662 140.359 184.783 140.359C186.914 140.359 188.597 141.816 188.597 143.834C188.597 144.955 188.148 145.628 186.466 147.31C186.017 147.758 185.008 148.655 183.437 150H188.821V151.794H188.597Z" fill="white"/>
<path d="M193.532 153.027C193.308 153.587 193.083 153.811 192.635 153.811C192.186 153.811 191.737 153.363 191.737 152.915C191.737 152.69 191.737 152.578 191.962 152.242L197.682 140.134C197.906 139.574 198.131 139.35 198.579 139.35C199.028 139.35 199.477 139.798 199.477 140.246C199.477 140.471 199.477 140.583 199.252 140.919L193.532 153.027Z" fill="white"/>
<path d="M209.796 151.794H201.72V149.888C204.748 147.422 205.085 147.085 205.87 146.413C207.664 144.843 207.889 144.395 207.889 143.834C207.889 142.937 206.992 142.265 205.87 142.265C205.197 142.265 204.524 142.489 204.187 142.937C203.963 143.162 203.963 143.162 203.851 143.722C203.739 144.058 203.402 144.283 203.066 144.283C202.617 144.283 202.169 143.946 202.169 143.386C202.169 142.825 202.617 141.928 203.178 141.368C203.851 140.695 204.86 140.359 205.982 140.359C208.113 140.359 209.796 141.816 209.796 143.834C209.796 144.955 209.347 145.628 207.664 147.31C207.216 147.758 206.206 148.655 204.636 150H210.02V151.794H209.796Z" fill="white"/>
<path d="M220.451 151.794H212.375V149.888C215.404 147.422 215.74 147.085 216.525 146.413C218.32 144.843 218.544 144.395 218.544 143.834C218.544 142.937 217.647 142.265 216.525 142.265C215.852 142.265 215.179 142.489 214.843 142.937C214.619 143.162 214.619 143.162 214.506 143.722C214.394 144.058 214.058 144.283 213.721 144.283C213.273 144.283 212.824 143.946 212.824 143.386C212.824 142.825 213.273 141.928 213.833 141.368C214.506 140.695 215.516 140.359 216.637 140.359C218.769 140.359 220.451 141.816 220.451 143.834C220.451 144.955 220.002 145.628 218.32 147.31C217.871 147.758 216.862 148.655 215.291 150H220.675V151.794H220.451Z" fill="white"/>
<path d="M41.8881 145.292C41.6637 145.292 41.4394 145.18 41.2151 145.068C41.1029 144.955 40.9908 144.843 40.9908 144.395C40.8786 143.946 40.7664 143.722 40.2056 143.498C39.757 143.274 39.084 143.05 38.5232 143.05C36.7286 143.05 35.3826 144.395 35.3826 146.301V147.422C35.3826 149.216 36.7286 150.337 38.8597 150.337C39.6448 150.337 40.3178 150.224 40.7664 149.888C40.9908 149.776 40.9908 149.776 41.4394 149.328C41.6637 149.103 41.8881 148.991 42.1124 148.991C42.561 148.991 43.0097 149.44 43.0097 149.888C43.0097 150.337 42.6732 150.785 42.1124 151.233C41.3273 151.794 40.0935 152.13 38.8597 152.13C35.8313 152.13 33.7002 150.112 33.7002 147.422V146.301C33.7002 143.498 35.8313 141.256 38.5232 141.256C39.4205 141.256 40.0935 141.368 40.9908 141.816C42.0002 142.265 42.7854 143.386 42.7854 144.283C42.7854 144.507 42.7854 144.731 42.6732 144.955C42.4489 145.18 42.2246 145.292 41.8881 145.292Z" fill="white"/>
<path d="M47.9448 141.368H49.9637L54.2259 151.682H52.207L51.0853 148.879H46.8232L45.7015 151.682H43.6826L47.9448 141.368ZM48.9543 143.834L47.6083 147.197H50.4124L48.9543 143.834Z" fill="white"/>
<path d="M62.6381 151.794C61.7408 150.112 60.1705 148.094 59.3854 147.87H57.7029V151.794H55.9083V141.48H59.6097C61.9651 141.48 63.5354 142.825 63.5354 144.619C63.5354 145.74 62.8624 146.637 61.6286 147.31C63.0867 148.655 63.8719 150 64.7692 151.794H62.6381ZM59.0489 146.076C60.507 146.076 61.6286 145.404 61.6286 144.507C61.6286 143.722 60.8435 143.162 59.7219 143.162H57.7029V146.076H59.0489Z" fill="white"/>
<path d="M66.2274 151.794V141.48H66.1152H70.0409C72.6207 141.48 74.6396 143.61 74.6396 146.413V147.197C74.6396 148.543 74.1909 149.552 73.4058 150.449C72.5085 151.345 71.499 151.794 69.9288 151.794H66.2274ZM69.9288 150C70.9382 150 71.6112 149.776 72.172 149.215C72.6207 148.655 72.845 148.094 72.845 147.085V146.301C72.845 145.516 72.5085 144.731 72.0599 144.058C71.499 143.386 70.8261 143.162 69.9288 143.162H68.022V150H69.9288Z" fill="white"/>
<path d="M82.8274 151.794V147.534H79.0138V151.794H77.2192V141.368H79.0138V145.74H82.8274V141.368H84.622V151.794H82.8274Z" fill="white"/>
<path d="M94.7167 142.489C95.8383 143.61 96.3991 144.955 96.3991 146.637C96.3991 149.552 94.1559 152.018 91.464 152.018C88.7721 152.018 86.5288 149.552 86.5288 146.525C86.5288 143.498 88.7721 141.144 91.464 141.144C92.6978 141.144 93.8194 141.704 94.7167 142.489ZM88.3234 146.637C88.3234 148.655 89.7815 150.336 91.464 150.336C93.1464 150.336 94.6045 148.655 94.6045 146.749C94.6045 144.731 93.1464 143.049 91.464 143.049C89.7815 142.937 88.3234 144.619 88.3234 146.637Z" fill="white"/>
<path d="M99.5397 141.368H101.334V150H106.942V151.794H99.5397V141.368Z" fill="white"/>
<path d="M108.737 151.794V141.48H108.625H112.55C115.13 141.48 117.149 143.61 117.149 146.413V147.197C117.149 148.543 116.7 149.552 115.915 150.449C115.018 151.345 114.009 151.794 112.438 151.794H108.737ZM112.438 150C113.448 150 114.121 149.776 114.682 149.215C115.13 148.655 115.355 148.094 115.355 147.085V146.301C115.355 145.516 115.018 144.731 114.569 144.058C114.009 143.386 113.336 143.162 112.438 143.162H110.532V150H112.438Z" fill="white"/>
<path d="M127.356 143.162H121.411V145.628H124.664V147.422H121.411V150H127.693V151.794H119.617V141.48H127.356V143.162Z" fill="white"/>
<path d="M137.114 151.794C136.217 150.112 134.647 148.094 133.861 147.87H132.179V151.794H130.384V141.48H134.086C136.441 141.48 138.011 142.825 138.011 144.619C138.011 145.74 137.338 146.637 136.105 147.31C137.563 148.655 138.348 150 139.245 151.794H137.114ZM133.413 146.076C134.871 146.076 135.993 145.404 135.993 144.507C135.993 143.722 135.207 143.162 134.086 143.162H132.067V146.076H133.413Z" fill="white"/>
<path d="M258.923 58.4081V48.0942H263.185C265.204 48.0942 266.662 49.3274 266.662 51.009C266.662 51.7938 266.326 52.4664 265.54 53.027C266.774 53.6996 267.447 54.4844 267.447 55.6054C267.447 57.2871 266.101 58.4081 263.97 58.4081H258.923ZM262.736 52.3543C263.97 52.3543 264.867 51.7938 264.867 51.009C264.867 50.3364 264.195 49.888 263.073 49.888H260.717V52.3543H262.736ZM263.858 56.6144C265.092 56.6144 265.653 56.2781 265.653 55.6054C265.653 55.157 265.316 54.7086 264.867 54.4844C264.419 54.2602 263.858 54.148 263.073 54.148H260.717V56.7265L263.858 56.6144Z" fill="white"/>
<path d="M272.27 48.0942H274.289L278.551 58.4081H276.532L275.411 55.6054H271.149L270.027 58.4081H268.008L272.27 48.0942ZM273.168 50.4485L271.822 53.8117H274.626L273.168 50.4485Z" fill="white"/>
<path d="M287.973 58.4081H286.178L281.58 51.4575V58.4081H279.785V48.0942H281.58L286.178 55.0449V48.0942H287.973V58.4081Z" fill="white"/>
<path d="M290.889 58.4079V47.9819H292.684V52.4662L297.843 47.9819C297.843 47.9819 298.068 47.9819 298.516 47.9819C299.301 47.9819 300.311 47.9819 300.311 47.9819L295.151 52.4662C296.273 53.0268 298.068 55.1568 298.628 58.2958H296.722C295.936 55.7174 294.703 54.0357 293.693 53.6994L292.684 54.5963V58.2958L290.889 58.4079Z" fill="white"/>
</g>
<defs>
<clipPath id="clip0">
<rect x="0.5" width="320" height="200" rx="8" fill="white"/>
</clipPath>
</defs>
</svg>
