<svg width="363" height="200" viewBox="0 0 363 200" fill="none" xmlns="http://www.w3.org/2000/svg">
<g clip-path="url(#clip0)">
<path d="M327.255 200H35.8568C28.0054 200 21.5 193.61 21.5 185.65V14.3498C21.5 6.39013 27.8933 0 35.8568 0H327.255C335.107 0 341.612 6.39013 341.612 14.3498V185.762C341.5 193.61 335.107 200 327.255 200Z" fill="#F8EA8C"/>
<path d="M327.255 200H35.8568C28.0054 200 21.5 193.61 21.5 185.65V14.3498C21.5 6.39013 27.8933 0 35.8568 0H327.255C335.107 0 341.612 6.39013 341.612 14.3498V185.762C341.5 193.61 335.107 200 327.255 200Z" fill="#F8EA8C"/>
<rect x="34.6748" y="-202.999" width="437.078" height="249.149" rx="32" transform="rotate(45 34.6748 -202.999)" fill="#A4E8E0"/>
<rect x="-141.5" y="166.061" width="437.078" height="249.149" rx="32" transform="rotate(-45 -141.5 166.061)" fill="#E1C340"/>
<path d="M299.327 155.493L284.521 170.291C283.063 171.749 280.596 171.749 279.138 170.291L264.332 155.493C262.874 154.036 262.874 151.569 264.332 150.112L279.138 135.314C280.596 133.856 283.063 133.856 284.521 135.314L299.327 150.112C300.785 151.569 300.785 153.924 299.327 155.493Z" fill="white"/>
<path d="M319.628 155.493L304.823 170.291C303.365 171.749 300.897 171.749 299.439 170.291L284.634 155.493C283.176 154.036 283.176 151.569 284.634 150.112L299.439 135.314C300.897 133.856 303.365 133.856 304.823 135.314L319.628 150.112C321.086 151.569 321.086 153.924 319.628 155.493Z" fill="#4CD7D0"/>
<path d="M93.0597 73.4302H62.215C57.7285 73.4302 54.0271 69.1701 54.0271 63.901V44.058C54.0271 38.7889 57.7285 34.5288 62.215 34.5288H93.0597C97.5462 34.5288 101.248 38.7889 101.248 44.058V63.901C101.36 69.058 97.6584 73.4302 93.0597 73.4302Z" fill="#F8EA8C"/>
<path d="M57.0556 102.242L55.4854 102.691C55.1489 102.803 55.1489 102.803 54.9245 102.803C54.4759 102.803 54.1394 102.354 54.1394 101.906C54.1394 101.457 54.3637 101.121 55.0367 101.009L58.7381 100V111.323H56.9435V102.242H57.0556Z" fill="white"/>
<path d="M75.1138 111.323H67.0381V109.417C70.0665 106.951 70.403 106.615 71.1881 105.942C72.9827 104.372 73.207 103.924 73.207 103.364C73.207 102.467 72.3097 101.794 71.1881 101.794C70.5151 101.794 69.8422 102.018 69.5057 102.467C69.2813 102.691 69.2813 102.691 69.1692 103.251C69.057 103.588 68.7205 103.812 68.384 103.812C67.9354 103.812 67.4867 103.476 67.4867 102.915C67.4867 102.355 67.9354 101.458 68.4962 100.897C69.1692 100.225 70.1786 99.8882 71.3003 99.8882C73.4314 99.8882 75.1138 101.346 75.1138 103.364C75.1138 104.485 74.6651 105.157 72.9827 106.839C72.5341 107.287 71.5246 108.184 69.9543 109.529H75.3381V111.323H75.1138Z" fill="white"/>
<path d="M85.2083 104.484C86.1056 104.484 86.7786 103.812 86.7786 103.027C86.7786 102.242 85.9935 101.682 84.7597 101.682C83.7502 101.682 83.3016 101.906 82.7407 102.466C82.6286 102.579 82.4043 102.691 82.0678 102.691C81.6191 102.691 81.1705 102.242 81.1705 101.794C81.1705 100.785 82.9651 99.7759 84.8718 99.7759C85.9935 99.7759 87.0029 100.112 87.6759 100.785C88.2367 101.345 88.5732 102.13 88.5732 102.803C88.5732 103.812 88.1246 104.484 87.0029 105.157C88.3489 105.83 89.0219 106.727 89.0219 107.848C89.0219 108.857 88.5732 109.866 87.6759 110.538C86.8908 111.099 85.9935 111.323 84.4232 111.323C82.2921 111.323 80.834 110.762 80.834 109.866C80.834 109.417 81.1705 108.969 81.7313 108.969C81.9556 108.969 82.0678 108.969 82.2921 109.193C82.7408 109.529 83.3016 109.641 84.4232 109.641C85.657 109.641 86.33 109.417 86.7786 109.081C87.1151 108.745 87.2273 108.296 87.2273 107.96C87.2273 107.287 86.6664 106.727 85.8813 106.39C85.5448 106.278 85.3205 106.166 84.5354 106.166C83.9745 106.166 83.6381 105.83 83.6381 105.381C83.6381 104.821 83.9745 104.484 84.5354 104.484H85.2083Z" fill="white"/>
<path d="M99.2288 108.857H94.4058V107.399L98.6679 100.225H101.023V107.063C101.696 107.063 102.145 107.399 102.145 107.96C102.145 108.521 101.809 108.857 101.023 108.857V111.323H99.2288V108.857ZM99.2288 102.803L96.5369 107.063H99.2288V102.803Z" fill="white"/>
<path d="M129.849 104.036C130.522 103.812 131.083 103.7 131.644 103.7C133.775 103.7 135.345 105.381 135.345 107.624C135.345 108.632 135.009 109.529 134.336 110.314C133.55 111.211 132.541 111.547 130.859 111.547C128.728 111.547 127.157 110.763 127.157 109.754C127.157 109.305 127.606 108.857 128.055 108.857C128.279 108.857 128.391 108.857 128.728 109.081C129.288 109.529 129.737 109.641 130.971 109.641C132.765 109.641 133.663 108.969 133.663 107.624C133.663 106.278 132.878 105.381 131.644 105.493C131.083 105.493 130.298 105.718 129.513 106.054C129.288 106.166 129.176 106.166 129.064 106.166C128.503 106.166 128.167 105.718 128.167 105.157V100.112H133.55C133.999 100.112 134.223 100.112 134.336 100.224C134.56 100.449 134.672 100.673 134.672 100.897C134.672 101.233 134.56 101.458 134.223 101.682C134.111 101.794 133.887 101.794 133.438 101.794H129.849V104.036Z" fill="white"/>
<path d="M145.552 104.26C147.459 104.26 148.917 105.942 148.917 107.96C148.917 108.969 148.58 109.865 148.02 110.538C147.347 111.211 146.561 111.547 145.328 111.547C143.87 111.547 142.748 110.987 142.075 109.753C141.626 108.857 141.29 107.511 141.29 106.278C141.29 104.709 141.738 103.363 142.636 102.242C143.87 100.785 145.328 100 146.898 100C148.132 100 148.917 100.448 148.917 101.121C148.917 101.57 148.468 102.018 148.02 102.018C147.907 102.018 147.683 102.018 147.347 101.906C147.122 101.794 147.01 101.794 146.898 101.794C144.991 101.794 143.421 103.363 142.972 105.493C143.982 104.596 144.655 104.26 145.552 104.26ZM145.328 109.753C146.449 109.753 147.122 109.081 147.122 107.848C147.122 106.839 146.337 105.942 145.44 106.054C144.655 106.054 143.757 106.726 143.309 107.511C143.533 109.193 144.206 109.753 145.328 109.753Z" fill="white"/>
<path d="M154.188 100.225H161.816V102.018L159.011 110.426C158.787 111.099 158.563 111.323 158.114 111.323C157.666 111.323 157.217 110.987 157.217 110.426C157.217 110.314 157.217 110.09 157.329 109.866L160.021 102.018H154.188V100.225Z" fill="white"/>
<path d="M175.499 108.408C175.499 110.314 173.929 111.659 171.686 111.659C169.443 111.659 167.872 110.314 167.872 108.408C167.872 107.287 168.433 106.39 169.555 105.717C168.545 105.045 167.984 104.26 167.984 103.251C167.984 101.457 169.667 100 171.686 100C173.705 100 175.387 101.457 175.387 103.251C175.387 104.26 174.939 105.045 173.817 105.717C174.939 106.39 175.499 107.287 175.499 108.408ZM169.555 108.184C169.555 109.081 170.452 109.753 171.574 109.753C172.807 109.753 173.593 109.081 173.593 108.184C173.593 107.287 172.695 106.614 171.574 106.614C170.564 106.614 169.555 107.287 169.555 108.184ZM169.779 103.251C169.779 104.148 170.564 104.821 171.686 104.821C172.807 104.821 173.593 104.148 173.593 103.251C173.593 102.354 172.807 101.682 171.686 101.682C170.564 101.794 169.779 102.354 169.779 103.251Z" fill="white"/>
<path d="M204.662 107.287C202.755 107.287 201.297 105.605 201.297 103.587C201.297 102.578 201.633 101.682 202.194 101.009C202.867 100.336 203.652 100 204.886 100C206.344 100 207.466 100.561 208.139 101.794C208.587 102.578 208.924 104.036 208.924 105.269C208.924 106.839 208.475 108.184 207.578 109.305C206.344 110.762 204.886 111.547 203.316 111.547C202.082 111.547 201.297 111.099 201.297 110.426C201.297 109.978 201.746 109.529 202.194 109.529C202.306 109.529 202.531 109.529 202.867 109.641C203.091 109.753 203.204 109.753 203.316 109.753C205.223 109.753 206.793 108.184 207.241 106.054C206.232 106.951 205.559 107.287 204.662 107.287ZM204.774 101.794C203.652 101.794 202.979 102.466 202.979 103.7C202.979 104.709 203.764 105.493 204.662 105.493C205.447 105.493 206.344 104.821 206.793 104.036C206.569 102.354 206.008 101.794 204.774 101.794Z" fill="white"/>
<path d="M221.935 106.615C221.935 108.184 221.486 109.642 220.589 110.651C220.028 111.323 219.131 111.659 218.121 111.659C217.112 111.659 216.214 111.323 215.654 110.651C214.756 109.754 214.308 108.296 214.308 106.615V104.933C214.308 103.364 214.756 101.906 215.654 100.897C216.214 100.225 217.112 99.8882 218.121 99.8882C219.131 99.8882 220.028 100.225 220.589 100.897C221.486 101.794 221.935 103.251 221.935 104.933V106.615ZM215.99 106.727C215.99 108.52 216.775 109.754 218.009 109.754C219.243 109.754 220.028 108.52 220.028 106.727V104.821C220.028 103.027 219.243 101.794 218.009 101.794C216.775 101.794 215.99 103.027 215.99 104.821V106.727Z" fill="white"/>
<path d="M235.394 106.615C235.394 108.184 234.945 109.642 234.048 110.651C233.487 111.323 232.59 111.659 231.581 111.659C230.571 111.659 229.674 111.323 229.113 110.651C228.216 109.754 227.767 108.296 227.767 106.615V104.933C227.767 103.364 228.216 101.906 229.113 100.897C229.674 100.225 230.571 99.8882 231.581 99.8882C232.59 99.8882 233.487 100.225 234.048 100.897C234.945 101.794 235.394 103.251 235.394 104.933V106.615ZM229.45 106.727C229.45 108.52 230.235 109.754 231.468 109.754C232.702 109.754 233.487 108.52 233.487 106.727V104.821C233.487 103.027 232.702 101.794 231.468 101.794C230.235 101.794 229.45 103.027 229.45 104.821V106.727Z" fill="white"/>
<path d="M245.04 107.287C243.133 107.287 241.675 105.605 241.675 103.587C241.675 102.578 242.012 101.682 242.573 101.009C243.246 100.336 244.031 100 245.264 100C246.723 100 247.844 100.561 248.517 101.794C248.966 102.578 249.302 104.036 249.302 105.269C249.302 106.839 248.854 108.184 247.956 109.305C246.723 110.762 245.264 111.547 243.694 111.547C242.46 111.547 241.675 111.099 241.675 110.426C241.675 109.978 242.124 109.529 242.573 109.529C242.685 109.529 242.909 109.529 243.246 109.641C243.47 109.753 243.582 109.753 243.694 109.753C245.601 109.753 247.171 108.184 247.62 106.054C246.61 106.951 245.937 107.287 245.04 107.287ZM245.152 101.794C244.031 101.794 243.358 102.466 243.358 103.7C243.358 104.709 244.143 105.605 245.04 105.493C245.825 105.493 246.723 104.821 247.171 104.036C246.947 102.354 246.386 101.794 245.152 101.794Z" fill="white"/>
<path d="M281.717 108.408C281.717 110.314 280.147 111.659 277.904 111.659C275.661 111.659 274.09 110.314 274.09 108.408C274.09 107.287 274.651 106.39 275.773 105.717C274.763 105.045 274.203 104.26 274.203 103.251C274.203 101.457 275.885 100 277.904 100C279.923 100 281.605 101.457 281.605 103.251C281.605 104.26 281.157 105.045 280.035 105.717C281.157 106.39 281.717 107.287 281.717 108.408ZM275.885 108.184C275.885 109.081 276.782 109.753 277.904 109.753C279.138 109.753 279.923 109.081 279.923 108.184C279.923 107.287 279.025 106.614 277.904 106.614C276.782 106.614 275.885 107.287 275.885 108.184ZM275.997 103.251C275.997 104.148 276.782 104.821 277.904 104.821C279.025 104.821 279.811 104.148 279.811 103.251C279.811 102.354 279.025 101.682 277.904 101.682C276.782 101.794 275.997 102.354 275.997 103.251Z" fill="white"/>
<path d="M286.989 100.225H294.616V102.018L291.812 110.426C291.588 111.099 291.363 111.323 290.915 111.323C290.466 111.323 290.017 110.987 290.017 110.426C290.017 110.314 290.017 110.09 290.13 109.866L292.821 102.018H286.989V100.225Z" fill="white"/>
<path d="M304.935 104.26C306.842 104.26 308.3 105.942 308.3 107.96C308.3 108.969 307.963 109.865 307.403 110.538C306.73 111.211 305.945 111.547 304.711 111.547C303.253 111.547 302.131 110.987 301.458 109.753C301.009 108.857 300.673 107.511 300.673 106.278C300.673 104.709 301.122 103.363 302.019 102.242C303.253 100.785 304.711 100 306.281 100C307.515 100 308.3 100.448 308.3 101.121C308.3 101.57 307.851 102.018 307.403 102.018C307.29 102.018 307.066 102.018 306.73 101.906C306.505 101.794 306.393 101.794 306.281 101.794C304.374 101.794 302.804 103.363 302.355 105.493C303.365 104.596 304.038 104.26 304.935 104.26ZM304.711 109.753C305.832 109.753 306.505 109.081 306.505 107.848C306.505 106.839 305.72 106.054 304.823 106.054C304.038 106.054 303.14 106.726 302.692 107.511C302.916 109.193 303.589 109.753 304.711 109.753Z" fill="white"/>
<path d="M315.815 104.036C316.488 103.812 317.049 103.7 317.61 103.7C319.741 103.7 321.311 105.381 321.311 107.623C321.311 108.632 320.974 109.529 320.301 110.314C319.516 111.211 318.507 111.547 316.824 111.547C314.693 111.547 313.123 110.762 313.123 109.753C313.123 109.305 313.572 108.856 314.02 108.856C314.245 108.856 314.357 108.857 314.693 109.081C315.254 109.529 315.703 109.641 316.937 109.641C318.731 109.641 319.628 108.969 319.628 107.623C319.628 106.278 318.843 105.381 317.61 105.381C317.049 105.381 316.264 105.605 315.478 105.942C315.254 106.054 315.142 106.054 315.03 106.054C314.469 106.054 314.133 105.605 314.133 105.045V100H319.516C319.965 100 320.189 100 320.301 100.112C320.526 100.336 320.638 100.561 320.638 100.785C320.638 101.121 320.526 101.345 320.189 101.57C320.077 101.682 319.853 101.682 319.404 101.682H315.815V104.036Z" fill="white"/>
<path d="M194.343 142.713L192.772 143.162C192.436 143.274 192.436 143.274 192.212 143.274C191.763 143.274 191.427 142.825 191.427 142.377C191.427 141.816 191.651 141.592 192.324 141.48L196.025 140.471V151.794H194.231V142.713H194.343Z" fill="white"/>
<path d="M209.597 151.794H201.521V149.888C204.55 147.422 204.886 147.085 205.671 146.413C207.466 144.843 207.69 144.395 207.69 143.834C207.69 142.937 206.793 142.265 205.671 142.265C204.998 142.265 204.325 142.489 203.989 142.937C203.764 143.162 203.764 143.162 203.652 143.722C203.54 144.058 203.204 144.283 202.867 144.283C202.419 144.283 201.97 143.946 201.97 143.386C201.97 142.825 202.419 141.928 202.979 141.368C203.652 140.695 204.662 140.359 205.783 140.359C207.915 140.359 209.597 141.816 209.597 143.834C209.597 144.955 209.148 145.628 207.466 147.31C207.017 147.758 206.008 148.655 204.437 150H209.821V151.794H209.597Z" fill="white"/>
<path d="M214.532 153.027C214.308 153.587 214.083 153.811 213.635 153.811C213.186 153.811 212.737 153.363 212.737 152.915C212.737 152.69 212.737 152.578 212.962 152.242L218.682 140.134C218.906 139.574 219.131 139.35 219.579 139.35C220.028 139.35 220.477 139.798 220.477 140.246C220.477 140.471 220.477 140.583 220.252 140.919L214.532 153.027Z" fill="white"/>
<path d="M230.796 151.794H222.72V149.888C225.748 147.422 226.085 147.085 226.87 146.413C228.665 144.843 228.889 144.395 228.889 143.834C228.889 142.937 227.992 142.265 226.87 142.265C226.197 142.265 225.524 142.489 225.188 142.937C224.963 143.162 224.963 143.162 224.851 143.722C224.739 144.058 224.402 144.283 224.066 144.283C223.617 144.283 223.169 143.946 223.169 143.386C223.169 142.825 223.617 141.928 224.178 141.368C224.851 140.695 225.861 140.359 226.982 140.359C229.113 140.359 230.796 141.816 230.796 143.834C230.796 144.955 230.347 145.628 228.665 147.31C228.216 147.758 227.206 148.655 225.636 150H231.02V151.794H230.796Z" fill="white"/>
<path d="M241.451 151.794H233.375V149.888C236.404 147.422 236.74 147.085 237.525 146.413C239.32 144.843 239.544 144.395 239.544 143.834C239.544 142.937 238.647 142.265 237.525 142.265C236.852 142.265 236.179 142.489 235.843 142.937C235.619 143.162 235.619 143.162 235.506 143.722C235.394 144.058 235.058 144.283 234.721 144.283C234.273 144.283 233.824 143.946 233.824 143.386C233.824 142.825 234.273 141.928 234.833 141.368C235.506 140.695 236.516 140.359 237.637 140.359C239.769 140.359 241.451 141.816 241.451 143.834C241.451 144.955 241.002 145.628 239.32 147.31C238.871 147.758 237.862 148.655 236.291 150H241.675V151.794H241.451Z" fill="white"/>
<path d="M62.8881 145.292C62.6637 145.292 62.4394 145.18 62.2151 145.068C62.1029 144.955 61.9908 144.843 61.9908 144.395C61.8786 143.946 61.7664 143.722 61.2056 143.498C60.757 143.274 60.084 143.05 59.5232 143.05C57.7286 143.05 56.3826 144.395 56.3826 146.301V147.422C56.3826 149.216 57.7286 150.337 59.8597 150.337C60.6448 150.337 61.3178 150.224 61.7664 149.888C61.9908 149.776 61.9908 149.776 62.4394 149.328C62.6637 149.103 62.8881 148.991 63.1124 148.991C63.561 148.991 64.0097 149.44 64.0097 149.888C64.0097 150.337 63.6732 150.785 63.1124 151.233C62.3273 151.794 61.0935 152.13 59.8597 152.13C56.8313 152.13 54.7002 150.112 54.7002 147.422V146.301C54.7002 143.498 56.8313 141.256 59.5232 141.256C60.4205 141.256 61.0935 141.368 61.9908 141.816C63.0002 142.265 63.7854 143.386 63.7854 144.283C63.7854 144.507 63.7854 144.731 63.6732 144.955C63.4489 145.18 63.2246 145.292 62.8881 145.292Z" fill="white"/>
<path d="M68.9448 141.368H70.9637L75.2259 151.682H73.207L72.0853 148.879H67.8232L66.7015 151.682H64.6826L68.9448 141.368ZM69.9543 143.834L68.6083 147.197H71.4124L69.9543 143.834Z" fill="white"/>
<path d="M83.6382 151.794C82.7409 150.112 81.1706 148.094 80.3855 147.87H78.703V151.794H76.9084V141.48H80.6098C82.9652 141.48 84.5355 142.825 84.5355 144.619C84.5355 145.74 83.8625 146.637 82.6287 147.31C84.0869 148.655 84.872 150 85.7693 151.794H83.6382ZM80.049 146.076C81.5071 146.076 82.6287 145.404 82.6287 144.507C82.6287 143.722 81.8436 143.162 80.722 143.162H78.703V146.076H80.049Z" fill="white"/>
<path d="M87.2274 151.794V141.48H87.1152H91.0409C93.6207 141.48 95.6396 143.61 95.6396 146.413V147.197C95.6396 148.543 95.1909 149.552 94.4058 150.449C93.5085 151.345 92.499 151.794 90.9288 151.794H87.2274ZM90.9288 150C91.9382 150 92.6112 149.776 93.172 149.215C93.6207 148.655 93.845 148.094 93.845 147.085V146.301C93.845 145.516 93.5085 144.731 93.0599 144.058C92.499 143.386 91.8261 143.162 90.9288 143.162H89.022V150H90.9288Z" fill="white"/>
<path d="M103.827 151.794V147.534H100.014V151.794H98.2192V141.368H100.014V145.74H103.827V141.368H105.622V151.794H103.827Z" fill="white"/>
<path d="M115.717 142.489C116.838 143.61 117.399 144.955 117.399 146.637C117.399 149.552 115.156 152.018 112.464 152.018C109.772 152.018 107.529 149.552 107.529 146.525C107.529 143.498 109.772 141.144 112.464 141.144C113.698 141.144 114.819 141.704 115.717 142.489ZM109.323 146.637C109.323 148.655 110.782 150.336 112.464 150.336C114.146 150.336 115.605 148.655 115.605 146.749C115.605 144.731 114.146 143.049 112.464 143.049C110.782 142.937 109.323 144.619 109.323 146.637Z" fill="white"/>
<path d="M120.54 141.368H122.334V150H127.943V151.794H120.54V141.368Z" fill="white"/>
<path d="M129.737 151.794V141.48H129.625H133.55C136.13 141.48 138.149 143.61 138.149 146.413V147.197C138.149 148.543 137.7 149.552 136.915 150.449C136.018 151.345 135.009 151.794 133.438 151.794H129.737ZM133.438 150C134.448 150 135.121 149.776 135.682 149.215C136.13 148.655 136.355 148.094 136.355 147.085V146.301C136.355 145.516 136.018 144.731 135.569 144.058C135.009 143.386 134.336 143.162 133.438 143.162H131.532V150H133.438Z" fill="white"/>
<path d="M148.356 143.162H142.411V145.628H145.664V147.422H142.411V150H148.692V151.794H140.617V141.48H148.356V143.162Z" fill="white"/>
<path d="M158.114 151.794C157.217 150.112 155.647 148.094 154.862 147.87H153.179V151.794H151.385V141.48H155.086C157.441 141.48 159.012 142.825 159.012 144.619C159.012 145.74 158.339 146.637 157.105 147.31C158.563 148.655 159.348 150 160.245 151.794H158.114ZM154.413 146.076C155.871 146.076 156.993 145.404 156.993 144.507C156.993 143.722 156.208 143.162 155.086 143.162H153.067V146.076H154.413Z" fill="white"/>
<path d="M279.923 58.4081V48.0942H284.185C286.204 48.0942 287.662 49.3274 287.662 51.009C287.662 51.7938 287.326 52.4664 286.54 53.027C287.774 53.6996 288.447 54.4844 288.447 55.6054C288.447 57.2871 287.101 58.4081 284.97 58.4081H279.923ZM283.736 52.3543C284.97 52.3543 285.867 51.7938 285.867 51.009C285.867 50.3364 285.195 49.888 284.073 49.888H281.717V52.3543H283.736ZM284.858 56.6144C286.092 56.6144 286.653 56.2781 286.653 55.6054C286.653 55.157 286.316 54.7086 285.867 54.4844C285.419 54.2602 284.858 54.148 284.073 54.148H281.717V56.7265L284.858 56.6144Z" fill="white"/>
<path d="M293.27 48.0942H295.289L299.551 58.4081H297.532L296.411 55.6054H292.149L291.027 58.4081H289.008L293.27 48.0942ZM294.168 50.4485L292.822 53.8117H295.626L294.168 50.4485Z" fill="white"/>
<path d="M308.973 58.4081H307.178L302.58 51.4575V58.4081H300.785V48.0942H302.58L307.178 55.0449V48.0942H308.973V58.4081Z" fill="white"/>
<path d="M311.889 58.4079V47.9819H313.684V52.4662L318.843 47.9819C318.843 47.9819 319.068 47.9819 319.516 47.9819C320.301 47.9819 321.311 47.9819 321.311 47.9819L316.151 52.4662C317.273 53.0268 319.068 55.1568 319.628 58.2958H317.722C316.936 55.7174 315.703 54.0357 314.693 53.6994L313.684 54.5963V58.2958L311.889 58.4079Z" fill="white"/>
</g>
<defs>
<clipPath id="clip0">
<rect x="21.5" width="320" height="200" rx="8" fill="white"/>
</clipPath>
</defs>
</svg>
