<svg width="366" height="300" viewBox="0 0 366 300" fill="none" xmlns="http://www.w3.org/2000/svg">
<path fill-rule="evenodd" clip-rule="evenodd" d="M188.049 5.67236C223.759 9.60582 258.308 20.4689 281.331 48.1256C305.021 76.5837 315.994 113.994 308.426 150.28C300.688 187.378 273.604 214.425 242.237 235.569C201.553 262.993 153.927 306.947 110.866 283.454C68.0208 260.079 89.0494 195.499 80.52 147.339C72.935 104.512 38.6961 58.9043 64.967 24.2931C91.4068 -10.5407 144.657 0.892713 188.049 5.67236Z" fill="#4CD7D0"/>
<path d="M233.772 35.6396C233.772 35.6396 229.321 27.7358 233.772 26.1273C238.223 24.5188 240.237 26.0032 240.449 27.8015C240.661 29.6022 238.754 36.6981 238.754 36.6981L233.772 35.6396Z" fill="#FFB27D"/>
<path d="M237.339 86.1921C229.224 87.6545 221.763 88.331 215.03 88.4819C208.639 88.6255 202.902 88.2945 197.881 87.7105C196.532 87.5548 195.239 87.382 193.995 87.1946C180.856 85.2041 173.603 81.6732 173.603 81.6732C173.603 81.6732 185.607 56.5602 195.303 57.5238C206.679 58.6578 225.958 68.8587 227.875 65.9994C230.032 62.7751 231.839 35.1289 231.839 35.1289C236.884 31.6759 239.894 35.3163 239.894 35.3163C239.894 35.3163 249.745 83.9557 237.339 86.1921Z" fill="#FFA052"/>
<path d="M172.692 288.95C172.692 288.95 171.827 298.932 173.941 299.971L200.964 299.915C200.964 299.915 200.964 296.798 196.622 296.107C192.281 295.413 184.657 292.875 183.367 287.217C182.076 281.562 172.692 288.95 172.692 288.95Z" fill="#233862"/>
<path d="M192.532 168.125C192.398 174.654 192.084 181.388 191.47 187.437C188.551 216.152 187.525 250.847 187.107 257.534C186.379 269.147 184.085 287.697 184.085 287.697C184.085 287.697 179.532 292.016 170.659 289.955C170.659 289.955 163.305 263.238 161.664 235.105C161.64 234.643 161.613 234.181 161.591 233.716C161.401 229.995 161.201 225.744 160.997 221.157C159.645 190.44 158.177 144.811 158.177 144.811L192.089 136.853C192.084 136.853 192.863 151.853 192.532 168.125Z" fill="#2A4E96"/>
<path d="M106.669 139.421C106.669 139.421 101.151 145.906 100.654 147.704C100.158 149.502 99.2738 155.98 99.7486 157.927C100.221 159.874 103.89 152.498 105.225 151.712C106.559 150.923 104.224 154.644 104.679 155.267C105.135 155.888 107.769 153.094 108.797 152.15C109.824 151.206 109.722 146.117 110.957 143.11C112.189 140.102 106.669 139.421 106.669 139.421Z" fill="#FFB27D"/>
<path d="M105.373 277.606C105.373 277.606 100.564 281.993 101.502 285.11C102.439 288.227 106.781 290.306 107.368 294.114C107.954 297.922 110.299 300 112.413 300C114.524 300 122.479 300 122.479 300C122.479 300 124.032 297.319 120.28 296.511C116.525 295.703 115.111 291.225 115.344 287.072C115.578 282.915 114.991 277.374 114.991 277.374L107.014 275.527L105.373 277.606Z" fill="#233862"/>
<path d="M186.739 145.507C186.739 145.507 154.995 213.385 138.101 243.168C121.208 272.95 115.929 281.263 115.929 281.263C115.929 281.263 106.25 277.452 105.371 274.856C105.371 274.856 111.831 217.359 123.143 203.342C129.535 195.421 137.044 171.654 137.398 163.344C137.751 155.031 145.165 135.194 145.165 135.194L186.739 145.507Z" fill="#2A4E96"/>
<path d="M196.021 148.706C196.021 148.706 183.398 157.141 165.531 156.357C157.69 156.014 142.136 153.792 139.625 147.56C139.036 146.098 139.467 144.241 140.354 141.389C142.647 133.982 147.997 119.875 146.382 88.5983C146.231 85.6879 146.314 82.9527 146.592 80.3903C148.274 64.9843 157.108 55.8613 165.648 52.8804C186.471 45.6068 193.413 55.6837 193.413 55.6837C193.413 55.6837 202.617 62.9718 204.005 78.1808C206.776 108.608 196.021 148.706 196.021 148.706Z" fill="#FFA052"/>
<path d="M171.75 51.138C171.75 51.138 181.304 56.9466 191.667 55.304C191.667 55.304 193.715 54.7833 192.709 52.379C193.34 50.4396 193.265 50.6148 193.63 49.1718C194.538 45.855 194.816 43.9399 194.816 43.9399L188.935 37.7614L183.364 31.8579C181.825 45.9694 171.75 51.138 171.75 51.138Z" fill="#FFB27D"/>
<path d="M201.414 43.6407C201.414 43.6407 183.177 45.9184 181.896 34.7173C180.615 23.5162 177.399 16.267 188.991 14.3397C200.582 12.4125 203.338 16.4374 204.689 20.0753C206.036 23.7133 206.123 42.7598 201.414 43.6407Z" fill="#FFB27D"/>
<path d="M176.137 12.5195C175.979 12.3248 175.607 12.1594 174.764 12.0815C174.764 12.0815 175.456 11.6849 176.359 11.697C176.58 10.529 177.284 8.47516 179.325 8.04688C179.325 8.04688 178.217 8.58466 178.027 9.82815C180.459 7.51395 185.541 5.95413 199.393 7.57479C217.646 9.71134 211.169 21.1971 208.746 22.5039C206.323 23.8106 200.501 19.7565 196.072 19.9391C191.643 20.1216 190.562 26.468 189.03 27.2856C187.499 28.1032 188.146 26.5799 186.155 25.5871C184.163 24.5942 183.841 27.945 184.345 30.1497C184.85 32.3544 181.954 35.1285 181.954 35.1285C181.954 35.1285 181.954 35.1285 179.254 31.9918C176.554 28.8552 174.387 15.9263 175.77 13.2398C175.891 13.0013 176.013 12.7604 176.137 12.5195Z" fill="#263238"/>
<path d="M231.836 30.3983L200.874 30.6733L200.662 26.0182L231.53 23.6261L231.836 30.3983Z" fill="#2A4E96"/>
<path d="M255.209 31.1747L221.5 31.6614L221.115 23.1979L254.73 20.5941L255.209 31.1747Z" fill="#2A4E96"/>
<path d="M277.942 31.8388L249.514 31.8753L248.995 20.4479L277.306 17.8733L277.942 31.8388Z" fill="#233862"/>
<path d="M278.346 33.7685C279.223 33.7296 279.902 32.985 279.863 32.1089L279.196 17.4305C279.157 16.5544 278.412 15.8755 277.535 15.9144C276.659 15.9534 275.979 16.698 276.021 17.574L276.688 32.2525C276.727 33.1285 277.469 33.8075 278.346 33.7685Z" fill="#233862"/>
<path d="M200.779 31.666C200 31.7025 199.337 31.099 199.303 30.3203L199.13 26.512C199.094 25.7333 199.698 25.0738 200.477 25.0373C201.256 25.0008 201.918 25.6043 201.952 26.383L202.125 30.1913C202.162 30.97 201.558 31.6319 200.779 31.666Z" fill="#2A4E96"/>
<path d="M171.75 51.1383C171.75 51.1383 154.177 54.1582 145.012 65.3398C135.846 76.5214 121.103 92.2876 117.619 97.8091C114.132 103.331 104.455 140.905 104.455 140.905C104.455 140.905 105.093 142.112 107.762 142.815C110.316 143.487 112.169 142.446 112.169 142.446C112.169 142.446 124.989 120.518 129.815 109.565C131.819 105.014 166.49 86.9901 179.524 88.8565C184.645 89.5865 171.75 51.1383 171.75 51.1383Z" fill="#FFA052"/>
<path d="M231.654 22.2947C231.654 22.2947 235.433 24.604 237.695 23.6282C239.957 22.65 239.757 21.7569 239.757 21.7569C239.757 21.7569 232.925 19.8613 231.654 22.2947Z" fill="#FFB27D"/>
<path d="M188.799 63.388C188.799 63.388 181.088 112.045 126.372 126.212L120.411 137.963L130.882 139.735C130.882 139.735 193.172 121.7 192.334 62.5266L188.799 63.388Z" fill="#BC3F3F"/>
<path d="M187.603 55.6205L185.078 55.8687V59.5213L188.799 63.388L192.337 62.5266V57.4577L189.795 55.6205H187.603Z" fill="#A02E2E"/>
<path d="M177.693 45.9451C177.693 45.9451 175.249 46.4975 169.66 51.138C169.66 51.138 175.219 62.9304 186.946 64.3418C186.946 64.3418 186.756 58.869 187.603 55.6228C187.603 55.6204 178.309 52.2963 177.693 45.9451Z" fill="#EE8E48"/>
<path d="M187.603 55.6206C187.603 55.6206 193.325 58.6575 193.749 63.3881C193.749 63.3881 195.936 59.9253 195.303 57.526C194.667 55.1266 192.707 52.3793 192.707 52.3793C192.707 52.3793 192.904 55.2678 187.603 55.6206Z" fill="#EE8E48"/>
</svg>
