<svg width="366" height="300" viewBox="0 0 366 300" fill="none" xmlns="http://www.w3.org/2000/svg">
<path fill-rule="evenodd" clip-rule="evenodd" d="M199.435 49.9077C235.068 51.3722 279.429 44.371 298.037 74.7691C316.088 104.258 282.749 136.942 273.016 170.113C264.63 198.693 269.531 231.983 246.397 250.766C216.126 275.342 175.338 292.796 138.839 279.051C99.6689 264.301 76.8709 224.182 67.5356 183.412C58.1939 142.614 60.6795 96.0084 90.1064 66.2233C117.34 38.6581 160.701 48.3157 199.435 49.9077Z" fill="#A4E8E0"/>
<path d="M166.954 298.839C171.559 298.71 173.943 298.165 175.174 297.659C175.177 298.119 175.174 298.587 175.159 299.072C175.142 299.59 174.761 300.003 174.291 300L149 299.836C148.192 299.83 147.721 298.892 148.071 298.149C151.388 298.425 159.833 299.041 166.954 298.839Z" fill="#7D97F4"/>
<path d="M148.071 298.151C148.101 298.086 148.128 298.02 148.171 297.958C150.405 294.825 156.094 288.585 167.335 285.878L172.727 285.707C172.727 285.707 175.129 289.897 175.174 297.66C173.942 298.166 171.559 298.709 166.954 298.84C159.833 299.041 151.388 298.425 148.071 298.151Z" fill="#4F52FF"/>
<path d="M230.288 278.926C232.454 274.87 233.187 272.549 233.383 271.246C233.758 271.458 234.138 271.678 234.525 271.917C234.938 272.172 235.086 272.696 234.853 273.103L222.246 294.966C221.844 295.664 220.846 295.634 220.416 294.985C222.271 292.235 226.938 285.196 230.288 278.926Z" fill="#7D97F4"/>
<path d="M220.413 294.983C220.375 294.925 220.335 294.873 220.306 294.807C218.86 291.409 216.592 283.565 219.937 272.554L222.458 267.796C222.458 267.796 227.05 267.666 233.383 271.244C233.187 272.548 232.454 274.869 230.288 278.924C226.938 285.196 222.271 292.235 220.413 294.983Z" fill="#4F52FF"/>
<path d="M157.143 166.648C157.143 166.648 150.87 222.439 162.598 288.368C162.644 289.506 171.407 290.316 174.586 287.955C174.586 287.955 172.395 209.19 174.042 197.432C174.042 197.432 193.095 219.641 192.746 176.969C192.728 174.771 186.958 165.216 186.958 165.216L157.143 166.648Z" fill="#32507E"/>
<path d="M147.313 110.17C145.043 99.2352 154.848 89.1018 165.91 87.9261C178.231 86.6169 195.401 88.282 202.421 93.7593C204.881 95.6782 197.783 125.249 197.534 126.041C190.873 147.234 190.514 164.872 190.529 168.948C190.53 169.489 190.221 169.993 189.721 170.196C180.959 173.744 164.038 171.639 158.363 170.789C157.324 170.633 156.624 169.661 156.768 168.616C158.656 154.872 150.92 127.544 147.313 110.17Z" fill="#FFDC5E"/>
<path d="M181.476 72.5258L183.168 89.8692C183.168 89.8692 173.451 92.8076 166.383 87.8002L171.35 72.0378L181.476 72.5258Z" fill="#FFB27D"/>
<path d="M170.202 52.7591C169.968 52.9798 160.331 71.9808 160.331 71.9808L171.253 77.275L183.051 60.6283C183.051 60.6283 174.116 49.058 170.202 52.7591Z" fill="#FFB27D"/>
<path d="M178.218 61.0893C178.412 61.5953 178.365 62.1599 178.086 62.6253L172.639 71.7422C172.557 71.8803 172.458 72.005 172.34 72.1161C171.691 72.7227 169.473 74.4854 167.758 72.0845C166.296 70.0395 164.925 68.1792 163.455 67.412C162.597 66.9645 161.541 67.3219 161.104 68.1882C160.207 69.975 158.468 73.6145 157.376 77.0679C157.103 77.9327 157.548 78.8621 158.386 79.203C160.597 80.1023 164.968 81.7299 168.847 82.2674C169.484 82.356 170.115 82.0858 170.493 81.5648C172.162 79.269 176.865 72.8548 178.471 71.2482C179.962 69.7558 182.714 70.3188 183.954 70.6762C184.425 70.8128 184.926 70.7467 185.346 70.493C186.605 69.7317 188.8 67.8369 186.792 64.6283C186.293 63.831 186.547 62.768 187.332 62.25C188.736 61.322 190.261 59.5804 188.809 56.7591C187.339 53.9033 184.714 53.6481 182.925 53.8673C182.134 53.9649 181.331 53.5475 181.028 52.8073C180.893 52.4784 180.625 52.1977 180.129 52.0956C179.191 51.9049 178.577 51.0445 178.761 50.1016C179.076 48.4861 178.839 46.387 176.27 44.9681C171.558 42.3661 167.429 46.6062 166.38 50.1842C165.33 53.7622 170.599 56.2921 173.913 56.7141C176.346 57.0264 177.681 59.6945 178.218 61.0893Z" fill="#263238"/>
<path d="M176.427 74.5977C176.427 74.5977 178.522 68.4417 181.204 68.6669C183.887 68.8936 185.998 71.5752 182.674 74.5917C178.538 78.3438 176.427 74.5977 176.427 74.5977Z" fill="#FFB27D"/>
<path d="M174.04 197.432L182.771 235.672C183.03 236.805 183.561 237.858 184.319 238.738L217.72 277.549C221.429 277.267 222.92 271.986 223.834 267.678C214.401 250.942 202.799 233.747 196.154 230.582L191.664 173.835L174.04 197.432Z" fill="#32507E"/>
<path d="M137.614 73.0047L126.287 75.2163C121.767 61.3713 128.883 42.1466 136.408 28.0164L141.746 30.177C138.346 45.2546 136.965 59.532 137.614 73.0047Z" fill="#FFB27D"/>
<path d="M135.591 24.1502C135.557 22.6412 135.656 21.0136 136.596 19.8365C137.573 18.6128 139.208 18.1804 140.515 17.3231C143.24 15.5393 144.315 12.116 145.078 8.94189C147.777 10.3758 149.406 13.4268 149.586 16.4867C149.765 19.5467 148.641 22.5812 146.914 25.1096C146.02 26.4204 144.968 27.6126 144.017 28.8828C142.63 30.7371 140.151 34.0313 137.448 32.2176C135.392 30.8362 135.639 26.2568 135.591 24.1502Z" fill="#FFB27D"/>
<path d="M150.48 115.771C141.734 104.978 129.849 92.297 123.793 70.679C123.69 70.3126 123.982 69.9523 124.36 69.9703C129.405 70.2015 133.863 69.9718 137.17 68.8412C137.779 68.634 138.444 68.8307 138.844 69.3352C146.793 79.3769 155.93 85.2672 162.891 88.4938L150.48 115.771Z" fill="#FFDC5E"/>
<path d="M187.043 201.163L187.603 218.625C187.7 221.67 190.189 224.093 193.237 224.111L234.883 224.358C236.921 224.37 238.655 222.883 238.953 220.868C239.605 216.459 240.433 208.568 239.5 201.162H187.043V201.163Z" fill="url(#paint0_linear)"/>
<path d="M233.764 223.301L233.387 223.298C233.353 223.298 233.325 223.269 233.325 223.235C233.325 223.2 233.353 223.172 233.387 223.172L233.764 223.173C233.799 223.173 233.827 223.202 233.827 223.236C233.826 223.272 233.799 223.301 233.764 223.301ZM232.51 223.293L232.133 223.29C232.098 223.29 232.07 223.262 232.07 223.227C232.07 223.193 232.098 223.164 232.133 223.164L232.51 223.167C232.544 223.167 232.572 223.196 232.572 223.23C232.571 223.266 232.544 223.293 232.51 223.293ZM231.254 223.286L230.877 223.284C230.842 223.284 230.814 223.256 230.814 223.221C230.814 223.187 230.842 223.158 230.877 223.158L231.254 223.16C231.288 223.16 231.316 223.188 231.316 223.223C231.316 223.259 231.29 223.286 231.254 223.286ZM229.999 223.278L229.622 223.277C229.588 223.277 229.559 223.248 229.559 223.214C229.559 223.179 229.588 223.151 229.622 223.151L229.999 223.154C230.033 223.154 230.062 223.182 230.062 223.217C230.062 223.251 230.035 223.278 229.999 223.278ZM228.744 223.271L228.368 223.268C228.333 223.268 228.305 223.239 228.305 223.205C228.305 223.17 228.336 223.148 228.368 223.142L228.744 223.145C228.779 223.145 228.807 223.173 228.807 223.208C228.807 223.244 228.779 223.271 228.744 223.271ZM227.49 223.263L227.113 223.26C227.079 223.26 227.05 223.232 227.05 223.197C227.05 223.163 227.079 223.134 227.113 223.134L227.49 223.136C227.524 223.136 227.553 223.164 227.553 223.199C227.553 223.236 227.524 223.263 227.49 223.263ZM226.235 223.256L225.859 223.253C225.824 223.253 225.796 223.224 225.796 223.19C225.796 223.155 225.824 223.127 225.859 223.127L226.235 223.128C226.27 223.128 226.298 223.157 226.298 223.191C226.298 223.229 226.27 223.256 226.235 223.256ZM224.981 223.248L224.604 223.245C224.57 223.245 224.541 223.217 224.541 223.182C224.541 223.148 224.57 223.119 224.604 223.119L224.981 223.122C225.015 223.122 225.044 223.151 225.044 223.185C225.044 223.221 225.015 223.248 224.981 223.248ZM223.726 223.241L223.349 223.238C223.315 223.238 223.287 223.209 223.287 223.175C223.287 223.14 223.318 223.112 223.349 223.112L223.726 223.115C223.761 223.115 223.789 223.143 223.789 223.178C223.789 223.214 223.761 223.241 223.726 223.241ZM222.472 223.235L222.095 223.232C222.06 223.232 222.032 223.203 222.032 223.169C222.032 223.134 222.06 223.106 222.095 223.106L222.472 223.109C222.506 223.109 222.534 223.137 222.534 223.172C222.534 223.206 222.506 223.235 222.472 223.235ZM221.217 223.227L220.84 223.224C220.806 223.224 220.777 223.196 220.777 223.161C220.777 223.127 220.806 223.098 220.84 223.098L221.217 223.101C221.252 223.101 221.28 223.13 221.28 223.164C221.28 223.199 221.252 223.227 221.217 223.227ZM234.636 223.226C234.606 223.226 234.581 223.205 234.575 223.175C234.567 223.14 234.59 223.107 234.624 223.101C234.745 223.077 234.866 223.047 234.983 223.011C235.016 223.001 235.052 223.02 235.061 223.053C235.071 223.086 235.052 223.122 235.019 223.131C234.898 223.167 234.772 223.199 234.648 223.224C234.645 223.226 234.64 223.226 234.636 223.226ZM219.963 223.22L219.586 223.218C219.551 223.218 219.523 223.19 219.523 223.155C219.523 223.121 219.551 223.092 219.586 223.092L219.963 223.095C219.997 223.095 220.025 223.124 220.025 223.158C220.025 223.191 219.997 223.22 219.963 223.22ZM218.708 223.212L218.331 223.211C218.297 223.211 218.268 223.182 218.268 223.148C218.268 223.113 218.3 223.08 218.331 223.085L218.708 223.088C218.742 223.088 218.771 223.116 218.771 223.151C218.771 223.184 218.742 223.212 218.708 223.212ZM217.453 223.205L217.077 223.202C217.042 223.202 217.014 223.173 217.014 223.139C217.014 223.104 217.042 223.076 217.077 223.076L217.453 223.079C217.488 223.079 217.516 223.107 217.516 223.142C217.516 223.176 217.488 223.205 217.453 223.205ZM216.199 223.197L215.822 223.194C215.788 223.194 215.759 223.166 215.759 223.131C215.759 223.097 215.788 223.068 215.822 223.068L216.199 223.07C216.233 223.07 216.262 223.098 216.262 223.133C216.262 223.169 216.233 223.197 216.199 223.197ZM214.944 223.19L214.567 223.188C214.533 223.188 214.505 223.16 214.505 223.125C214.505 223.091 214.533 223.062 214.567 223.062L214.944 223.064C214.979 223.064 215.007 223.092 215.007 223.127C215.007 223.161 214.979 223.19 214.944 223.19ZM213.69 223.182L213.313 223.179C213.279 223.179 213.25 223.151 213.25 223.116C213.25 223.082 213.279 223.053 213.313 223.053L213.69 223.056C213.724 223.056 213.753 223.085 213.753 223.119C213.751 223.154 213.724 223.182 213.69 223.182ZM212.435 223.175L212.058 223.172C212.024 223.172 211.996 223.143 211.996 223.109C211.996 223.074 212.024 223.046 212.058 223.046L212.435 223.047C212.47 223.047 212.498 223.076 212.498 223.11C212.496 223.146 212.47 223.175 212.435 223.175ZM211.179 223.167L210.802 223.164C210.768 223.164 210.739 223.136 210.739 223.101C210.739 223.067 210.771 223.043 210.802 223.038L211.179 223.041C211.213 223.041 211.242 223.07 211.242 223.104C211.242 223.139 211.215 223.167 211.179 223.167ZM209.925 223.16L209.548 223.158C209.513 223.158 209.485 223.13 209.485 223.095C209.485 223.061 209.513 223.032 209.548 223.032L209.925 223.035C209.959 223.035 209.987 223.064 209.987 223.098C209.987 223.131 209.959 223.16 209.925 223.16ZM208.67 223.152L208.293 223.151C208.259 223.151 208.23 223.122 208.23 223.088C208.23 223.053 208.259 223.025 208.293 223.025L208.67 223.028C208.704 223.028 208.733 223.056 208.733 223.091C208.733 223.125 208.704 223.152 208.67 223.152ZM207.415 223.145L207.039 223.143C207.004 223.143 206.976 223.115 206.976 223.08C206.976 223.046 207.004 223.017 207.039 223.017L207.415 223.02C207.45 223.02 207.478 223.049 207.478 223.083C207.478 223.118 207.45 223.145 207.415 223.145ZM206.161 223.137L205.784 223.134C205.75 223.134 205.721 223.106 205.721 223.071C205.721 223.037 205.751 223.008 205.784 223.008L206.161 223.01C206.195 223.01 206.224 223.038 206.224 223.073C206.224 223.11 206.195 223.137 206.161 223.137ZM204.906 223.13L204.529 223.128C204.495 223.128 204.467 223.1 204.467 223.065C204.467 223.031 204.495 223.002 204.529 223.002L204.906 223.004C204.941 223.004 204.969 223.032 204.969 223.067C204.969 223.103 204.941 223.13 204.906 223.13ZM203.652 223.122L203.275 223.121C203.241 223.121 203.212 223.092 203.212 223.058C203.212 223.023 203.241 222.995 203.275 222.995L203.652 222.996C203.686 222.996 203.715 223.025 203.715 223.059C203.715 223.095 203.686 223.122 203.652 223.122ZM202.397 223.115L202.02 223.112C201.986 223.112 201.958 223.083 201.958 223.049C201.958 223.014 201.986 222.986 202.02 222.986L202.397 222.989C202.432 222.989 202.46 223.017 202.46 223.052C202.46 223.088 202.432 223.115 202.397 223.115ZM201.143 223.107L200.766 223.104C200.731 223.104 200.703 223.076 200.703 223.041C200.703 223.007 200.733 222.974 200.766 222.978L201.143 222.981C201.177 222.981 201.205 223.01 201.205 223.044C201.205 223.08 201.177 223.107 201.143 223.107ZM199.888 223.101L199.511 223.098C199.477 223.098 199.448 223.07 199.448 223.035C199.448 223.001 199.477 222.972 199.511 222.972L199.888 222.974C199.922 222.974 199.951 223.002 199.951 223.037C199.951 223.073 199.922 223.101 199.888 223.101ZM198.633 223.094L198.257 223.092C198.222 223.092 198.194 223.064 198.194 223.029C198.194 222.995 198.222 222.966 198.257 222.966L198.633 222.968C198.668 222.968 198.696 222.996 198.696 223.031C198.696 223.065 198.668 223.094 198.633 223.094ZM197.379 223.086L197.002 223.085C196.968 223.085 196.939 223.056 196.939 223.022C196.939 222.987 196.968 222.959 197.002 222.959L197.379 222.962C197.413 222.962 197.442 222.99 197.442 223.025C197.442 223.058 197.413 223.086 197.379 223.086ZM196.124 223.079L195.748 223.076C195.713 223.076 195.685 223.047 195.685 223.013C195.685 222.978 195.713 222.95 195.748 222.95L196.124 222.953C196.159 222.953 196.187 222.981 196.187 223.016C196.187 223.05 196.159 223.079 196.124 223.079ZM194.87 223.071L194.493 223.07C194.459 223.07 194.43 223.041 194.43 223.007C194.43 222.972 194.459 222.944 194.493 222.944L194.87 222.945C194.904 222.945 194.933 222.974 194.933 223.008C194.933 223.043 194.904 223.071 194.87 223.071ZM193.617 223.031C193.614 223.031 193.612 223.031 193.609 223.031C193.484 223.016 193.358 222.996 193.232 222.974C193.198 222.968 193.176 222.935 193.182 222.9C193.188 222.866 193.22 222.843 193.255 222.849C193.376 222.872 193.5 222.891 193.623 222.905C193.657 222.909 193.683 222.941 193.678 222.975C193.675 223.007 193.648 223.031 193.617 223.031ZM235.807 222.787C235.784 222.787 235.763 222.775 235.753 222.756C235.737 222.726 235.746 222.687 235.777 222.67C235.885 222.609 235.989 222.541 236.089 222.471C236.118 222.451 236.157 222.457 236.176 222.486C236.196 222.514 236.19 222.553 236.161 222.574C236.058 222.648 235.949 222.717 235.838 222.78C235.828 222.784 235.817 222.787 235.807 222.787ZM192.398 222.742C192.391 222.742 192.383 222.741 192.377 222.738C192.259 222.694 192.141 222.646 192.024 222.595C191.993 222.582 191.978 222.544 191.993 222.513C192.006 222.481 192.044 222.466 192.075 222.481C192.189 222.532 192.304 222.579 192.419 222.621C192.452 222.633 192.468 222.669 192.456 222.702C192.447 222.726 192.423 222.742 192.398 222.742ZM191.28 222.179C191.268 222.179 191.256 222.176 191.245 222.169C191.139 222.098 191.034 222.025 190.934 221.948C190.907 221.927 190.901 221.888 190.922 221.86C190.943 221.833 190.982 221.827 191.01 221.848C191.108 221.923 191.209 221.995 191.314 222.064C191.342 222.083 191.351 222.122 191.332 222.151C191.32 222.169 191.3 222.179 191.28 222.179ZM236.779 221.999C236.764 221.999 236.749 221.993 236.737 221.983C236.712 221.96 236.709 221.92 236.732 221.894C236.815 221.802 236.892 221.705 236.966 221.606C236.987 221.577 237.026 221.571 237.054 221.592C237.082 221.613 237.088 221.652 237.067 221.681C236.993 221.784 236.91 221.884 236.827 221.978C236.813 221.993 236.797 221.999 236.779 221.999ZM190.32 221.373C190.303 221.373 190.287 221.367 190.275 221.354C190.188 221.262 190.103 221.164 190.022 221.067C190 221.04 190.004 221.001 190.031 220.978C190.058 220.956 190.097 220.96 190.119 220.987C190.197 221.083 190.281 221.176 190.366 221.266C190.39 221.292 190.388 221.331 190.363 221.355C190.351 221.367 190.336 221.373 190.32 221.373ZM237.452 220.944C237.444 220.944 237.435 220.942 237.426 220.939C237.395 220.926 237.38 220.888 237.393 220.857C237.441 220.742 237.486 220.625 237.522 220.508C237.532 220.475 237.568 220.457 237.601 220.468C237.634 220.478 237.652 220.514 237.642 220.547C237.603 220.669 237.558 220.791 237.509 220.908C237.5 220.929 237.476 220.944 237.452 220.944ZM189.57 220.366C189.549 220.366 189.527 220.355 189.517 220.334C189.452 220.224 189.392 220.11 189.337 219.996C189.322 219.965 189.334 219.927 189.366 219.912C189.397 219.897 189.434 219.909 189.449 219.941C189.503 220.052 189.563 220.163 189.624 220.269C189.642 220.3 189.632 220.339 189.602 220.355C189.593 220.364 189.581 220.366 189.57 220.366ZM237.76 219.727C237.757 219.727 237.754 219.727 237.751 219.727C237.716 219.723 237.692 219.69 237.697 219.655C237.715 219.534 237.733 219.409 237.751 219.282C237.755 219.247 237.787 219.223 237.821 219.227C237.855 219.232 237.879 219.264 237.875 219.298C237.857 219.426 237.839 219.55 237.821 219.672C237.818 219.705 237.791 219.727 237.76 219.727ZM189.074 219.212C189.047 219.212 189.022 219.194 189.014 219.167C188.978 219.046 188.945 218.921 188.918 218.798C188.911 218.764 188.932 218.731 188.966 218.723C189.001 218.715 189.034 218.737 189.041 218.771C189.068 218.893 189.099 219.014 189.135 219.133C189.146 219.166 189.126 219.202 189.093 219.211C189.086 219.211 189.08 219.212 189.074 219.212ZM237.932 218.478C237.929 218.478 237.926 218.478 237.924 218.478C237.89 218.474 237.866 218.442 237.87 218.408C237.887 218.285 237.902 218.16 237.918 218.032C237.923 217.998 237.954 217.974 237.988 217.978C238.023 217.983 238.047 218.014 238.042 218.049C238.026 218.176 238.011 218.301 237.994 218.424C237.99 218.456 237.963 218.478 237.932 218.478ZM188.859 217.974C188.826 217.974 188.797 217.948 188.796 217.914C188.793 217.87 188.791 217.827 188.79 217.783L188.782 217.534C188.781 217.499 188.808 217.469 188.844 217.469C188.878 217.468 188.908 217.495 188.908 217.531L188.915 217.78C188.917 217.822 188.918 217.864 188.921 217.908C188.923 217.942 188.898 217.972 188.862 217.974C188.862 217.974 188.86 217.974 188.859 217.974ZM238.086 217.229C238.083 217.229 238.081 217.229 238.078 217.229C238.044 217.225 238.018 217.193 238.023 217.158C238.038 217.035 238.051 216.909 238.066 216.783C238.071 216.749 238.101 216.725 238.135 216.728C238.169 216.732 238.195 216.762 238.19 216.797C238.177 216.923 238.162 217.049 238.147 217.172C238.144 217.205 238.117 217.229 238.086 217.229ZM188.817 216.716C188.782 216.716 188.755 216.689 188.754 216.654L188.742 216.276C188.741 216.241 188.767 216.211 188.803 216.211C188.836 216.208 188.868 216.238 188.868 216.273L188.88 216.651C188.881 216.686 188.854 216.716 188.818 216.716H188.817ZM238.222 215.975C238.22 215.975 238.217 215.975 238.216 215.975C238.181 215.972 238.156 215.941 238.16 215.906C238.172 215.782 238.186 215.657 238.198 215.531C238.201 215.496 238.231 215.471 238.267 215.474C238.301 215.477 238.326 215.508 238.323 215.543C238.311 215.669 238.298 215.795 238.286 215.92C238.28 215.951 238.253 215.975 238.222 215.975ZM188.776 215.456C188.742 215.456 188.715 215.429 188.714 215.394L188.702 215.016C188.7 214.981 188.727 214.951 188.763 214.951C188.796 214.953 188.827 214.977 188.827 215.013L188.839 215.39C188.841 215.424 188.814 215.454 188.778 215.454C188.779 215.456 188.778 215.456 188.776 215.456ZM238.34 214.722C238.338 214.722 238.337 214.722 238.334 214.722C238.3 214.719 238.274 214.689 238.277 214.654C238.288 214.529 238.298 214.403 238.308 214.277C238.311 214.243 238.343 214.217 238.376 214.22C238.41 214.223 238.436 214.253 238.433 214.288C238.422 214.414 238.412 214.54 238.401 214.665C238.4 214.696 238.371 214.722 238.34 214.722ZM188.736 214.196C188.702 214.196 188.675 214.169 188.673 214.135L188.661 213.756C188.66 213.722 188.687 213.692 188.723 213.692C188.754 213.69 188.787 213.717 188.787 213.753L188.799 214.132C188.8 214.166 188.772 214.196 188.738 214.196C188.738 214.196 188.738 214.196 188.736 214.196ZM238.44 213.465C238.439 213.465 238.437 213.465 238.436 213.465C238.401 213.462 238.374 213.432 238.377 213.397C238.386 213.273 238.395 213.147 238.404 213.02C238.407 212.986 238.436 212.959 238.471 212.962C238.506 212.965 238.533 212.995 238.53 213.029C238.521 213.156 238.512 213.282 238.503 213.406C238.5 213.439 238.471 213.465 238.44 213.465ZM188.696 212.938C188.661 212.938 188.634 212.911 188.633 212.876L188.621 212.498C188.619 212.463 188.646 212.433 188.682 212.433C188.714 212.43 188.746 212.459 188.746 212.495L188.758 212.873C188.76 212.908 188.733 212.938 188.697 212.938H188.696ZM238.521 212.208H238.518C238.483 212.207 238.457 212.177 238.458 212.142C238.465 212.017 238.471 211.891 238.479 211.765C238.48 211.731 238.51 211.701 238.545 211.705C238.579 211.707 238.606 211.737 238.605 211.771C238.599 211.897 238.591 212.023 238.584 212.15C238.581 212.181 238.554 212.208 238.521 212.208ZM188.655 211.678C188.621 211.678 188.594 211.651 188.592 211.617L188.581 211.238C188.579 211.204 188.606 211.174 188.642 211.174C188.673 211.174 188.706 211.199 188.706 211.235L188.718 211.614C188.72 211.648 188.693 211.678 188.657 211.678H188.655ZM238.582 210.95C238.581 210.95 238.581 210.95 238.579 210.95C238.545 210.948 238.518 210.918 238.519 210.884C238.524 210.759 238.53 210.633 238.534 210.507C238.536 210.472 238.564 210.447 238.599 210.445C238.633 210.447 238.66 210.475 238.658 210.51C238.654 210.636 238.649 210.762 238.643 210.888C238.643 210.923 238.615 210.95 238.582 210.95ZM188.615 210.418C188.581 210.418 188.554 210.391 188.552 210.357L188.54 209.978C188.539 209.944 188.566 209.914 188.601 209.914C188.633 209.911 188.666 209.939 188.666 209.975L188.678 210.354C188.679 210.388 188.652 210.418 188.616 210.418C188.616 210.418 188.616 210.418 188.615 210.418ZM238.623 209.69C238.587 209.689 238.558 209.66 238.56 209.626C238.563 209.5 238.566 209.375 238.567 209.249C238.567 209.214 238.596 209.187 238.63 209.187H238.631C238.666 209.187 238.694 209.217 238.693 209.252C238.69 209.378 238.688 209.504 238.685 209.63C238.684 209.663 238.655 209.69 238.623 209.69ZM188.576 209.16C188.542 209.16 188.515 209.133 188.513 209.099L188.501 208.72C188.5 208.686 188.527 208.656 188.563 208.656C188.594 208.656 188.627 208.681 188.627 208.717L188.639 209.096C188.64 209.13 188.613 209.16 188.578 209.16C188.576 209.16 188.576 209.16 188.576 209.16ZM238.64 208.43C238.606 208.43 238.578 208.402 238.578 208.367C238.579 208.241 238.579 208.115 238.579 207.989C238.579 207.955 238.608 207.926 238.642 207.926C238.676 207.926 238.705 207.955 238.705 207.989C238.705 208.115 238.705 208.241 238.703 208.367C238.703 208.402 238.675 208.43 238.64 208.43ZM188.536 207.9C188.501 207.9 188.474 207.873 188.473 207.839L188.461 207.461C188.459 207.426 188.486 207.396 188.522 207.396C188.557 207.397 188.586 207.423 188.586 207.458L188.598 207.836C188.6 207.87 188.573 207.9 188.537 207.9H188.536ZM238.636 207.171C238.602 207.171 238.573 207.144 238.573 207.109C238.572 206.983 238.569 206.858 238.567 206.731C238.567 206.696 238.594 206.668 238.628 206.666C238.664 206.671 238.691 206.693 238.693 206.728C238.696 206.854 238.697 206.98 238.699 207.106C238.699 207.141 238.672 207.169 238.636 207.171ZM188.495 206.642C188.461 206.642 188.434 206.615 188.432 206.581L188.421 206.202C188.419 206.168 188.446 206.138 188.482 206.138C188.516 206.138 188.546 206.163 188.546 206.199L188.558 206.578C188.56 206.612 188.533 206.642 188.497 206.642H188.495ZM238.606 205.911C238.573 205.911 238.545 205.884 238.543 205.849C238.539 205.723 238.534 205.599 238.53 205.473C238.528 205.438 238.555 205.408 238.59 205.407C238.623 205.405 238.654 205.432 238.655 205.467C238.66 205.593 238.666 205.719 238.669 205.845C238.67 205.879 238.643 205.91 238.609 205.91H238.606V205.911ZM188.455 205.382C188.421 205.382 188.394 205.355 188.392 205.321L188.38 204.943C188.379 204.908 188.406 204.878 188.441 204.878C188.476 204.877 188.506 204.904 188.506 204.94L188.518 205.318C188.519 205.352 188.492 205.382 188.456 205.382H188.455ZM238.549 204.653C238.516 204.653 238.488 204.627 238.486 204.593C238.479 204.467 238.471 204.342 238.464 204.216C238.463 204.181 238.488 204.151 238.522 204.15C238.557 204.145 238.587 204.174 238.588 204.208C238.596 204.334 238.603 204.461 238.611 204.587C238.612 204.621 238.587 204.651 238.551 204.653C238.552 204.653 238.551 204.653 238.549 204.653ZM188.415 204.123C188.38 204.123 188.353 204.096 188.352 204.061L188.34 203.683C188.338 203.648 188.365 203.618 188.401 203.618C188.432 203.62 188.465 203.644 188.465 203.68L188.477 204.058C188.479 204.093 188.452 204.123 188.416 204.123H188.415ZM238.466 203.396C238.433 203.396 238.406 203.371 238.403 203.338C238.392 203.211 238.382 203.087 238.371 202.961C238.368 202.926 238.394 202.896 238.428 202.893C238.464 202.893 238.492 202.916 238.495 202.95C238.506 203.076 238.516 203.201 238.527 203.327C238.53 203.362 238.504 203.392 238.47 203.395C238.468 203.395 238.467 203.396 238.466 203.396ZM188.374 202.865C188.34 202.865 188.313 202.838 188.311 202.803L188.299 202.425C188.298 202.39 188.325 202.36 188.361 202.36C188.391 202.359 188.425 202.386 188.425 202.422L188.437 202.8C188.438 202.835 188.412 202.865 188.376 202.865H188.374ZM238.349 202.141C238.317 202.141 238.291 202.117 238.286 202.085C238.273 201.961 238.259 201.835 238.246 201.71C238.241 201.675 238.267 201.644 238.301 201.641C238.335 201.636 238.367 201.662 238.37 201.696C238.385 201.821 238.398 201.947 238.412 202.073C238.415 202.108 238.391 202.139 238.356 202.142C238.353 202.141 238.35 202.141 238.349 202.141ZM188.334 201.605C188.299 201.605 188.272 201.578 188.271 201.543L188.259 201.165C188.258 201.13 188.284 201.1 188.32 201.1C188.35 201.102 188.385 201.126 188.385 201.162L188.397 201.54C188.398 201.575 188.371 201.605 188.335 201.605H188.334ZM237.905 201.226H237.528C237.494 201.226 237.465 201.198 237.465 201.163C237.465 201.129 237.494 201.1 237.528 201.1H237.905C237.939 201.1 237.968 201.129 237.968 201.163C237.968 201.199 237.939 201.226 237.905 201.226ZM236.65 201.226H236.273C236.239 201.226 236.211 201.198 236.211 201.163C236.211 201.129 236.239 201.1 236.273 201.1H236.65C236.685 201.1 236.713 201.129 236.713 201.163C236.713 201.199 236.685 201.226 236.65 201.226ZM235.396 201.226H235.019C234.984 201.226 234.956 201.198 234.956 201.163C234.956 201.129 234.984 201.1 235.019 201.1H235.396C235.43 201.1 235.458 201.129 235.458 201.163C235.458 201.199 235.43 201.226 235.396 201.226ZM234.141 201.226H233.764C233.73 201.226 233.701 201.198 233.701 201.163C233.701 201.129 233.73 201.1 233.764 201.1H234.141C234.175 201.1 234.204 201.129 234.204 201.163C234.204 201.199 234.175 201.226 234.141 201.226ZM232.887 201.226H232.51C232.475 201.226 232.447 201.198 232.447 201.163C232.447 201.129 232.475 201.1 232.51 201.1H232.887C232.921 201.1 232.949 201.129 232.949 201.163C232.949 201.199 232.921 201.226 232.887 201.226ZM231.632 201.226H231.255C231.221 201.226 231.192 201.198 231.192 201.163C231.192 201.129 231.221 201.1 231.255 201.1H231.632C231.666 201.1 231.695 201.129 231.695 201.163C231.693 201.199 231.666 201.226 231.632 201.226ZM230.376 201.226H229.999C229.965 201.226 229.936 201.198 229.936 201.163C229.936 201.129 229.965 201.1 229.999 201.1H230.376C230.41 201.1 230.439 201.129 230.439 201.163C230.439 201.199 230.412 201.226 230.376 201.226ZM229.121 201.226H228.744C228.71 201.226 228.682 201.198 228.682 201.163C228.682 201.129 228.71 201.1 228.744 201.1H229.121C229.156 201.1 229.184 201.129 229.184 201.163C229.184 201.199 229.157 201.226 229.121 201.226ZM227.867 201.226H227.49C227.456 201.226 227.427 201.198 227.427 201.163C227.427 201.129 227.456 201.1 227.49 201.1H227.867C227.901 201.1 227.93 201.129 227.93 201.163C227.93 201.199 227.901 201.226 227.867 201.226ZM226.612 201.226H226.235C226.201 201.226 226.173 201.198 226.173 201.163C226.173 201.129 226.201 201.1 226.235 201.1H226.612C226.647 201.1 226.675 201.129 226.675 201.163C226.675 201.199 226.647 201.226 226.612 201.226ZM225.358 201.226H224.981C224.946 201.226 224.918 201.198 224.918 201.163C224.918 201.129 224.946 201.1 224.981 201.1H225.358C225.392 201.1 225.42 201.129 225.42 201.163C225.42 201.199 225.392 201.226 225.358 201.226ZM224.103 201.226H223.726C223.692 201.226 223.663 201.198 223.663 201.163C223.663 201.129 223.692 201.1 223.726 201.1H224.103C224.137 201.1 224.166 201.129 224.166 201.163C224.166 201.199 224.137 201.226 224.103 201.226ZM222.848 201.226H222.472C222.437 201.226 222.409 201.198 222.409 201.163C222.409 201.129 222.437 201.1 222.472 201.1H222.848C222.883 201.1 222.911 201.129 222.911 201.163C222.911 201.199 222.883 201.226 222.848 201.226ZM221.594 201.226H221.217C221.183 201.226 221.154 201.198 221.154 201.163C221.154 201.129 221.183 201.1 221.217 201.1H221.594C221.628 201.1 221.657 201.129 221.657 201.163C221.657 201.199 221.628 201.226 221.594 201.226ZM220.339 201.226H219.963C219.928 201.226 219.9 201.198 219.9 201.163C219.9 201.129 219.928 201.1 219.963 201.1H220.339C220.374 201.1 220.402 201.129 220.402 201.163C220.402 201.199 220.374 201.226 220.339 201.226ZM219.085 201.226H218.708C218.674 201.226 218.645 201.198 218.645 201.163C218.645 201.129 218.674 201.1 218.708 201.1H219.085C219.119 201.1 219.148 201.129 219.148 201.163C219.148 201.199 219.119 201.226 219.085 201.226ZM217.83 201.226H217.453C217.419 201.226 217.391 201.198 217.391 201.163C217.391 201.129 217.419 201.1 217.453 201.1H217.83C217.865 201.1 217.893 201.129 217.893 201.163C217.893 201.199 217.865 201.226 217.83 201.226ZM216.576 201.226H216.199C216.164 201.226 216.136 201.198 216.136 201.163C216.136 201.129 216.164 201.1 216.199 201.1H216.576C216.61 201.1 216.638 201.129 216.638 201.163C216.637 201.199 216.61 201.226 216.576 201.226ZM215.32 201.226H214.943C214.908 201.226 214.88 201.198 214.88 201.163C214.88 201.129 214.908 201.1 214.943 201.1H215.32C215.354 201.1 215.382 201.129 215.382 201.163C215.382 201.199 215.356 201.226 215.32 201.226ZM214.065 201.226H213.688C213.654 201.226 213.625 201.198 213.625 201.163C213.625 201.129 213.654 201.1 213.688 201.1H214.065C214.099 201.1 214.128 201.129 214.128 201.163C214.128 201.199 214.101 201.226 214.065 201.226ZM212.81 201.226H212.434C212.399 201.226 212.371 201.198 212.371 201.163C212.371 201.129 212.399 201.1 212.434 201.1H212.81C212.845 201.1 212.873 201.129 212.873 201.163C212.873 201.199 212.845 201.226 212.81 201.226ZM211.556 201.226H211.179C211.145 201.226 211.116 201.198 211.116 201.163C211.116 201.129 211.145 201.1 211.179 201.1H211.556C211.59 201.1 211.619 201.129 211.619 201.163C211.619 201.199 211.59 201.226 211.556 201.226ZM210.301 201.226H209.925C209.89 201.226 209.862 201.198 209.862 201.163C209.862 201.129 209.89 201.1 209.925 201.1H210.301C210.336 201.1 210.364 201.129 210.364 201.163C210.364 201.199 210.336 201.226 210.301 201.226ZM209.047 201.226H208.67C208.636 201.226 208.607 201.198 208.607 201.163C208.607 201.129 208.636 201.1 208.67 201.1H209.047C209.081 201.1 209.11 201.129 209.11 201.163C209.11 201.199 209.081 201.226 209.047 201.226ZM207.792 201.226H207.415C207.381 201.226 207.353 201.198 207.353 201.163C207.353 201.129 207.381 201.1 207.415 201.1H207.792C207.827 201.1 207.855 201.129 207.855 201.163C207.855 201.199 207.827 201.226 207.792 201.226ZM206.538 201.226H206.161C206.126 201.226 206.098 201.198 206.098 201.163C206.098 201.129 206.126 201.1 206.161 201.1H206.538C206.572 201.1 206.6 201.129 206.6 201.163C206.6 201.199 206.572 201.226 206.538 201.226ZM205.283 201.226H204.906C204.872 201.226 204.843 201.198 204.843 201.163C204.843 201.129 204.872 201.1 204.906 201.1H205.283C205.317 201.1 205.346 201.129 205.346 201.163C205.346 201.199 205.317 201.226 205.283 201.226ZM204.029 201.226H203.652C203.617 201.226 203.589 201.198 203.589 201.163C203.589 201.129 203.617 201.1 203.652 201.1H204.029C204.063 201.1 204.091 201.129 204.091 201.163C204.091 201.199 204.063 201.226 204.029 201.226ZM202.774 201.226H202.397C202.363 201.226 202.334 201.198 202.334 201.163C202.334 201.129 202.363 201.1 202.397 201.1H202.774C202.808 201.1 202.837 201.129 202.837 201.163C202.837 201.199 202.808 201.226 202.774 201.226ZM201.519 201.226H201.143C201.108 201.226 201.08 201.198 201.08 201.163C201.08 201.129 201.108 201.1 201.143 201.1H201.519C201.554 201.1 201.582 201.129 201.582 201.163C201.582 201.199 201.554 201.226 201.519 201.226ZM200.265 201.226H199.888C199.854 201.226 199.825 201.198 199.825 201.163C199.825 201.129 199.854 201.1 199.888 201.1H200.265C200.299 201.1 200.328 201.129 200.328 201.163C200.326 201.199 200.299 201.226 200.265 201.226ZM199.009 201.226H198.632C198.598 201.226 198.569 201.198 198.569 201.163C198.569 201.129 198.598 201.1 198.632 201.1H199.009C199.043 201.1 199.072 201.129 199.072 201.163C199.072 201.199 199.045 201.226 199.009 201.226ZM197.754 201.226H197.377C197.343 201.226 197.315 201.198 197.315 201.163C197.315 201.129 197.343 201.1 197.377 201.1H197.754C197.789 201.1 197.817 201.129 197.817 201.163C197.817 201.199 197.79 201.226 197.754 201.226ZM196.5 201.226H196.123C196.088 201.226 196.06 201.198 196.06 201.163C196.06 201.129 196.088 201.1 196.123 201.1H196.5C196.534 201.1 196.562 201.129 196.562 201.163C196.562 201.199 196.534 201.226 196.5 201.226ZM195.245 201.226H194.868C194.834 201.226 194.805 201.198 194.805 201.163C194.805 201.129 194.834 201.1 194.868 201.1H195.245C195.279 201.1 195.308 201.129 195.308 201.163C195.308 201.199 195.279 201.226 195.245 201.226ZM193.991 201.226H193.614C193.579 201.226 193.551 201.198 193.551 201.163C193.551 201.129 193.579 201.1 193.614 201.1H193.991C194.025 201.1 194.053 201.129 194.053 201.163C194.053 201.199 194.025 201.226 193.991 201.226ZM192.736 201.226H192.359C192.325 201.226 192.296 201.198 192.296 201.163C192.296 201.129 192.325 201.1 192.359 201.1H192.736C192.77 201.1 192.799 201.129 192.799 201.163C192.799 201.199 192.77 201.226 192.736 201.226ZM191.481 201.226H191.105C191.07 201.226 191.042 201.198 191.042 201.163C191.042 201.129 191.07 201.1 191.105 201.1H191.481C191.516 201.1 191.544 201.129 191.544 201.163C191.544 201.199 191.516 201.226 191.481 201.226ZM190.227 201.226H189.85C189.816 201.226 189.787 201.198 189.787 201.163C189.787 201.129 189.816 201.1 189.85 201.1H190.227C190.261 201.1 190.29 201.129 190.29 201.163C190.29 201.199 190.261 201.226 190.227 201.226ZM188.972 201.226H188.595C188.561 201.226 188.533 201.198 188.533 201.163C188.533 201.129 188.561 201.1 188.595 201.1H188.972C189.007 201.1 189.035 201.129 189.035 201.163C189.035 201.199 189.007 201.226 188.972 201.226Z" fill="#FAFBFE"/>
<path d="M199.248 188.486L199.374 187.14C199.516 186.818 199.809 186.59 200.156 186.535C201.454 186.327 204.672 185.963 206.221 187.125L206.452 188.689L199.248 188.486Z" fill="#09005D"/>
<path d="M203.302 187.191C203.003 187.264 202.704 187.264 202.405 187.189C202.041 187.099 201.786 186.774 201.786 186.401V182.184H203.922V186.398C203.922 186.774 203.667 187.102 203.302 187.191Z" fill="#09005D"/>
<path d="M219.951 188.486L220.076 187.14C220.218 186.818 220.511 186.59 220.858 186.535C222.156 186.327 225.374 185.963 226.923 187.125L227.155 188.689L219.951 188.486Z" fill="url(#paint1_linear)"/>
<path d="M224.003 187.191C223.704 187.264 223.405 187.264 223.106 187.189C222.742 187.099 222.487 186.773 222.487 186.401V181.739H224.623V186.398C224.625 186.773 224.368 187.102 224.003 187.191Z" fill="#09005D"/>
<path d="M201.569 183.218L224.555 182.761C225.078 182.751 225.524 182.524 225.613 182.215C225.739 181.782 225.85 181.137 225.685 180.466C225.497 179.703 224.405 179.137 223.115 179.119C218.826 179.057 207.91 179.059 201.895 180.488C201.258 180.64 200.787 180.966 200.625 181.364C200.471 181.743 200.37 182.249 200.57 182.764C200.676 183.039 201.098 183.227 201.569 183.218Z" fill="url(#paint2_linear)"/>
<path d="M201.171 182.515C201.107 182.515 201.053 182.487 201.047 182.448C201.044 182.425 200.959 181.904 201.186 181.403C201.359 181.018 201.866 180.709 202.508 180.596C203.789 180.371 206.239 179.987 208.241 179.954C208.313 179.955 208.368 179.985 208.369 180.027C208.371 180.069 208.317 180.104 208.247 180.105C206.273 180.138 203.848 180.518 202.578 180.742C202.019 180.841 201.578 181.11 201.428 181.443C201.214 181.919 201.297 182.428 201.297 182.434C201.304 182.476 201.253 182.512 201.184 182.517C201.178 182.515 201.174 182.515 201.171 182.515Z" fill="#BDD0FB"/>
<path d="M188.584 187.962C196.009 187.866 228.133 187.528 237.465 188.659C238.268 188.756 238.925 189.347 239.098 190.136C239.65 192.639 240.759 198.454 240.628 204.217C240.61 205.001 240.037 205.663 239.265 205.81L217.965 209.856H210.399L187.703 205.327C186.903 205.167 186.314 204.487 186.272 203.672C186.124 200.773 185.893 193.968 186.674 189.59C186.842 188.657 187.638 187.974 188.584 187.962Z" fill="url(#paint3_linear)"/>
<path d="M210.579 208.076C210.575 208.076 210.572 208.076 210.567 208.074L210.198 208.001C210.164 207.993 210.141 207.96 210.149 207.927C210.155 207.892 210.188 207.871 210.222 207.877L210.591 207.951C210.626 207.958 210.647 207.992 210.641 208.025C210.635 208.055 210.609 208.076 210.579 208.076ZM217.672 208.076H217.295C217.26 208.076 217.232 208.047 217.232 208.013C217.232 207.978 217.26 207.949 217.295 207.949H217.672C217.706 207.949 217.734 207.978 217.734 208.013C217.734 208.047 217.708 208.076 217.672 208.076ZM216.417 208.076H216.04C216.006 208.076 215.978 208.047 215.978 208.013C215.978 207.978 216.006 207.949 216.04 207.949H216.417C216.452 207.949 216.48 207.978 216.48 208.013C216.48 208.047 216.452 208.076 216.417 208.076ZM215.163 208.076H214.786C214.751 208.076 214.723 208.047 214.723 208.013C214.723 207.978 214.751 207.949 214.786 207.949H215.163C215.197 207.949 215.225 207.978 215.225 208.013C215.225 208.047 215.197 208.076 215.163 208.076ZM213.908 208.076H213.531C213.497 208.076 213.468 208.047 213.468 208.013C213.468 207.978 213.497 207.949 213.531 207.949H213.908C213.942 207.949 213.971 207.978 213.971 208.013C213.971 208.047 213.942 208.076 213.908 208.076ZM212.653 208.076H212.277C212.242 208.076 212.214 208.047 212.214 208.013C212.214 207.978 212.242 207.949 212.277 207.949H212.653C212.688 207.949 212.716 207.978 212.716 208.013C212.716 208.047 212.688 208.076 212.653 208.076ZM211.399 208.076H211.022C210.988 208.076 210.959 208.047 210.959 208.013C210.959 207.978 210.988 207.949 211.022 207.949H211.399C211.433 207.949 211.462 207.978 211.462 208.013C211.462 208.047 211.433 208.076 211.399 208.076ZM218.537 207.934C218.508 207.934 218.482 207.913 218.476 207.883C218.47 207.849 218.493 207.816 218.526 207.81L218.895 207.739C218.929 207.733 218.962 207.756 218.968 207.789C218.974 207.823 218.952 207.856 218.919 207.862L218.549 207.933C218.545 207.934 218.54 207.934 218.537 207.934ZM209.349 207.829C209.344 207.829 209.341 207.829 209.337 207.828L208.968 207.754C208.933 207.747 208.911 207.714 208.918 207.681C208.926 207.646 208.957 207.624 208.991 207.631L209.361 207.705C209.395 207.712 209.418 207.745 209.41 207.778C209.404 207.81 209.379 207.829 209.349 207.829ZM219.77 207.7C219.74 207.7 219.714 207.679 219.708 207.649C219.702 207.615 219.725 207.582 219.758 207.576L220.127 207.505C220.161 207.499 220.194 207.522 220.2 207.555C220.206 207.589 220.184 207.622 220.151 207.628L219.782 207.699C219.777 207.7 219.774 207.7 219.77 207.7ZM208.118 207.585C208.114 207.585 208.111 207.585 208.106 207.583L207.737 207.51C207.702 207.502 207.682 207.469 207.688 207.436C207.695 207.401 207.726 207.379 207.761 207.386L208.13 207.46C208.165 207.467 208.187 207.501 208.179 207.534C208.175 207.564 208.148 207.585 208.118 207.585ZM221.003 207.466C220.973 207.466 220.948 207.445 220.942 207.415C220.936 207.38 220.958 207.347 220.991 207.341L221.361 207.271C221.395 207.265 221.428 207.287 221.434 207.32C221.44 207.355 221.417 207.388 221.385 207.394L221.015 207.464C221.011 207.466 221.006 207.466 221.003 207.466ZM206.888 207.338C206.883 207.338 206.88 207.338 206.876 207.337L206.506 207.263C206.472 207.256 206.449 207.223 206.457 207.19C206.464 207.155 206.496 207.133 206.53 207.14L206.9 207.214C206.934 207.221 206.956 207.254 206.949 207.287C206.944 207.317 206.917 207.338 206.888 207.338ZM222.235 207.232C222.205 207.232 222.18 207.211 222.174 207.181C222.168 207.146 222.191 207.113 222.223 207.107L222.593 207.037C222.627 207.031 222.66 207.053 222.666 207.086C222.672 207.121 222.65 207.154 222.617 207.16L222.247 207.23C222.243 207.232 222.24 207.232 222.235 207.232ZM205.657 207.094C205.652 207.094 205.649 207.094 205.645 207.092L205.276 207.019C205.241 207.011 205.219 206.978 205.226 206.945C205.232 206.91 205.267 206.889 205.3 206.895L205.669 206.969C205.703 206.977 205.726 207.01 205.718 207.043C205.714 207.073 205.687 207.094 205.657 207.094ZM223.469 206.998C223.439 206.998 223.414 206.977 223.408 206.946C223.402 206.912 223.424 206.879 223.457 206.873L223.826 206.802C223.861 206.796 223.894 206.819 223.9 206.852C223.906 206.886 223.883 206.919 223.85 206.925L223.481 206.996C223.476 206.998 223.472 206.998 223.469 206.998ZM204.426 206.847C204.422 206.847 204.419 206.847 204.414 206.846L204.045 206.772C204.011 206.765 203.99 206.732 203.996 206.699C204.003 206.664 204.034 206.642 204.069 206.649L204.438 206.723C204.473 206.73 204.494 206.763 204.488 206.796C204.483 206.826 204.456 206.847 204.426 206.847ZM224.701 206.763C224.671 206.763 224.646 206.742 224.64 206.712C224.634 206.678 224.656 206.645 224.689 206.639L225.059 206.568C225.093 206.562 225.126 206.585 225.132 206.618C225.138 206.652 225.115 206.685 225.082 206.691L224.713 206.762C224.709 206.763 224.706 206.763 224.701 206.763ZM203.196 206.601C203.191 206.601 203.188 206.601 203.184 206.6L202.814 206.526C202.78 206.519 202.759 206.486 202.765 206.452C202.772 206.418 202.804 206.395 202.838 206.403L203.208 206.477C203.242 206.483 203.263 206.517 203.257 206.55C203.252 206.582 203.226 206.601 203.196 206.601ZM225.933 206.529C225.903 206.529 225.878 206.508 225.872 206.478C225.866 206.443 225.888 206.41 225.921 206.404L226.291 206.334C226.325 206.328 226.358 206.35 226.364 206.383C226.37 206.418 226.347 206.451 226.315 206.457L225.945 206.528C225.942 206.529 225.938 206.529 225.933 206.529ZM201.966 206.356C201.962 206.356 201.959 206.356 201.955 206.355L201.585 206.281C201.551 206.274 201.528 206.241 201.536 206.208C201.542 206.173 201.575 206.151 201.609 206.158L201.978 206.232C202.013 206.239 202.034 206.272 202.028 206.305C202.022 206.335 201.995 206.356 201.966 206.356ZM227.167 206.295C227.137 206.295 227.112 206.274 227.106 206.244C227.1 206.209 227.122 206.176 227.155 206.17L227.524 206.1C227.559 206.094 227.592 206.116 227.598 206.149C227.604 206.184 227.581 206.217 227.548 206.223L227.179 206.293C227.174 206.295 227.171 206.295 227.167 206.295ZM200.736 206.11C200.731 206.11 200.728 206.11 200.724 206.109L200.355 206.035C200.32 206.028 200.299 205.995 200.305 205.962C200.311 205.927 200.344 205.906 200.378 205.912L200.748 205.986C200.782 205.993 200.805 206.026 200.797 206.059C200.791 206.089 200.764 206.11 200.736 206.11ZM228.399 206.061C228.369 206.061 228.344 206.04 228.338 206.01C228.332 205.975 228.354 205.942 228.387 205.936L228.756 205.865C228.791 205.859 228.824 205.882 228.83 205.915C228.836 205.95 228.813 205.983 228.78 205.989L228.411 206.059C228.408 206.061 228.404 206.061 228.399 206.061ZM199.505 205.865C199.501 205.865 199.498 205.865 199.493 205.864L199.124 205.79C199.09 205.783 199.067 205.75 199.075 205.717C199.082 205.682 199.113 205.66 199.148 205.667L199.517 205.741C199.552 205.747 199.574 205.781 199.567 205.814C199.561 205.844 199.534 205.865 199.505 205.865ZM229.633 205.826C229.603 205.826 229.577 205.805 229.571 205.775C229.565 205.741 229.588 205.708 229.621 205.702L229.99 205.631C230.024 205.625 230.057 205.648 230.063 205.681C230.069 205.715 230.047 205.748 230.014 205.754L229.645 205.825C229.64 205.826 229.637 205.826 229.633 205.826ZM198.275 205.619C198.27 205.619 198.267 205.619 198.263 205.618L197.893 205.544C197.859 205.537 197.838 205.504 197.844 205.471C197.851 205.436 197.883 205.413 197.917 205.421L198.287 205.495C198.321 205.502 198.343 205.535 198.336 205.568C198.33 205.598 198.303 205.619 198.275 205.619ZM230.865 205.592C230.835 205.592 230.809 205.571 230.803 205.541C230.797 205.507 230.82 205.474 230.853 205.468L231.222 205.397C231.257 205.391 231.289 205.413 231.295 205.447C231.301 205.481 231.279 205.514 231.246 205.52L230.877 205.591C230.874 205.592 230.869 205.592 230.865 205.592ZM197.044 205.374C197.039 205.374 197.036 205.374 197.032 205.373L196.663 205.299C196.628 205.292 196.607 205.259 196.613 205.226C196.619 205.191 196.652 205.169 196.687 205.176L197.056 205.25C197.09 205.257 197.113 205.29 197.105 205.323C197.099 205.353 197.072 205.374 197.044 205.374ZM232.098 205.358C232.069 205.358 232.043 205.337 232.037 205.307C232.031 205.272 232.054 205.239 232.086 205.233L232.456 205.163C232.49 205.157 232.523 205.179 232.529 205.212C232.535 205.247 232.513 205.28 232.48 205.286L232.11 205.356C232.106 205.358 232.101 205.358 232.098 205.358ZM195.813 205.128C195.809 205.128 195.806 205.128 195.801 205.127L195.432 205.053C195.398 205.047 195.377 205.013 195.383 204.98C195.39 204.945 195.422 204.923 195.456 204.93L195.825 205.004C195.86 205.011 195.881 205.044 195.875 205.077C195.869 205.107 195.842 205.128 195.813 205.128ZM233.331 205.124C233.301 205.124 233.275 205.103 233.269 205.073C233.263 205.038 233.286 205.005 233.319 204.999L233.688 204.929C233.722 204.923 233.755 204.945 233.761 204.978C233.767 205.013 233.745 205.046 233.712 205.052L233.343 205.122C233.338 205.124 233.335 205.124 233.331 205.124ZM234.564 204.889C234.534 204.889 234.509 204.868 234.503 204.838C234.497 204.804 234.519 204.771 234.552 204.765L234.922 204.694C234.956 204.688 234.989 204.711 234.995 204.744C235.001 204.778 234.978 204.811 234.945 204.817L234.576 204.888C234.572 204.889 234.567 204.889 234.564 204.889ZM194.583 204.882C194.578 204.882 194.575 204.882 194.571 204.88L194.201 204.807C194.167 204.799 194.146 204.766 194.152 204.733C194.158 204.699 194.191 204.678 194.225 204.684L194.595 204.757C194.629 204.765 194.651 204.798 194.644 204.831C194.638 204.862 194.611 204.882 194.583 204.882ZM235.796 204.655C235.766 204.655 235.741 204.634 235.735 204.604C235.729 204.57 235.751 204.537 235.784 204.531L236.154 204.46C236.188 204.454 236.221 204.477 236.227 204.51C236.233 204.544 236.21 204.577 236.178 204.583L235.808 204.654C235.804 204.655 235.801 204.655 235.796 204.655ZM193.352 204.637C193.348 204.637 193.345 204.637 193.34 204.636L192.971 204.562C192.936 204.555 192.914 204.522 192.921 204.489C192.927 204.454 192.96 204.432 192.995 204.439L193.364 204.513C193.398 204.519 193.419 204.553 193.413 204.586C193.407 204.616 193.38 204.637 193.352 204.637ZM237.03 204.421C237 204.421 236.975 204.4 236.969 204.37C236.963 204.335 236.985 204.302 237.018 204.296L237.387 204.226C237.422 204.22 237.455 204.242 237.461 204.275C237.467 204.31 237.444 204.343 237.411 204.349L237.042 204.42C237.037 204.421 237.033 204.421 237.03 204.421ZM192.121 204.391C192.117 204.391 192.114 204.391 192.109 204.389L191.74 204.316C191.706 204.31 191.683 204.275 191.691 204.242C191.697 204.208 191.73 204.185 191.764 204.193L192.133 204.266C192.168 204.274 192.19 204.307 192.183 204.34C192.177 204.37 192.15 204.391 192.121 204.391ZM238.262 204.187C238.232 204.187 238.207 204.166 238.201 204.136C238.195 204.101 238.217 204.068 238.25 204.062L238.619 203.992C238.654 203.986 238.687 204.008 238.693 204.041C238.699 204.076 238.676 204.109 238.643 204.115L238.274 204.185C238.27 204.187 238.267 204.187 238.262 204.187ZM190.891 204.146C190.886 204.146 190.883 204.146 190.879 204.145L190.509 204.071C190.475 204.064 190.453 204.031 190.46 203.998C190.468 203.963 190.499 203.941 190.533 203.948L190.903 204.022C190.937 204.029 190.96 204.062 190.952 204.095C190.946 204.125 190.919 204.146 190.891 204.146ZM189.66 203.9C189.656 203.9 189.653 203.9 189.648 203.899L189.279 203.825C189.244 203.817 189.222 203.784 189.229 203.751C189.235 203.717 189.27 203.696 189.303 203.702L189.672 203.775C189.706 203.783 189.729 203.816 189.721 203.849C189.715 203.879 189.689 203.9 189.66 203.9ZM188.429 203.654C188.425 203.654 188.422 203.654 188.418 203.652L188.044 203.577L188.039 203.484C188.038 203.45 188.065 203.42 188.099 203.418C188.135 203.415 188.16 203.441 188.165 203.472L188.443 203.528C188.477 203.535 188.5 203.568 188.492 203.601C188.485 203.634 188.458 203.654 188.429 203.654ZM238.803 203.372C238.769 203.372 238.741 203.343 238.741 203.308V203.272C238.741 203.158 238.741 203.046 238.739 202.932C238.739 202.897 238.766 202.869 238.802 202.869C238.83 202.867 238.865 202.896 238.865 202.932C238.866 203.046 238.866 203.16 238.866 203.274V203.31C238.866 203.343 238.838 203.372 238.803 203.372ZM188.06 202.664C188.027 202.664 187.999 202.637 187.997 202.604C187.993 202.483 187.987 202.357 187.982 202.226C187.981 202.191 188.008 202.161 188.042 202.16C188.078 202.158 188.106 202.185 188.108 202.22C188.112 202.349 188.118 202.475 188.123 202.597C188.124 202.631 188.098 202.661 188.063 202.663C188.062 202.664 188.062 202.664 188.06 202.664ZM238.785 202.112C238.751 202.112 238.724 202.085 238.723 202.05C238.72 201.924 238.715 201.799 238.711 201.673C238.709 201.639 238.736 201.609 238.77 201.607C238.803 201.606 238.835 201.633 238.835 201.667C238.839 201.793 238.844 201.92 238.847 202.046C238.848 202.08 238.82 202.109 238.785 202.11C238.787 202.112 238.787 202.112 238.785 202.112ZM188.014 201.405C187.979 201.405 187.952 201.378 187.951 201.343C187.947 201.22 187.944 201.094 187.939 200.965C187.938 200.93 187.966 200.902 188 200.9C188.036 200.899 188.063 200.927 188.065 200.962C188.068 201.089 188.072 201.215 188.077 201.34C188.078 201.375 188.051 201.405 188.015 201.405H188.014ZM238.735 200.854C238.702 200.854 238.673 200.828 238.672 200.794C238.664 200.667 238.658 200.541 238.649 200.417C238.648 200.382 238.673 200.352 238.708 200.351C238.744 200.349 238.772 200.375 238.773 200.409C238.781 200.535 238.788 200.661 238.796 200.787C238.797 200.822 238.772 200.852 238.736 200.854H238.735ZM187.981 200.145C187.946 200.145 187.92 200.118 187.918 200.083C187.915 199.959 187.914 199.833 187.911 199.705C187.911 199.67 187.938 199.642 187.972 199.64C188.006 199.64 188.035 199.667 188.036 199.702C188.038 199.83 188.041 199.956 188.044 200.08C188.044 200.116 188.017 200.145 187.981 200.145ZM238.651 199.597C238.618 199.597 238.591 199.571 238.588 199.538C238.578 199.412 238.569 199.286 238.558 199.161C238.555 199.127 238.581 199.097 238.615 199.094C238.649 199.091 238.679 199.116 238.682 199.151C238.693 199.276 238.703 199.402 238.712 199.528C238.715 199.562 238.688 199.592 238.654 199.595C238.654 199.597 238.652 199.597 238.651 199.597ZM187.961 198.885C187.927 198.885 187.899 198.858 187.899 198.822C187.897 198.697 187.897 198.571 187.896 198.444C187.896 198.409 187.924 198.381 187.958 198.381C187.993 198.381 188.021 198.409 188.021 198.444C188.021 198.571 188.023 198.696 188.024 198.822C188.024 198.857 187.997 198.885 187.961 198.885ZM238.54 198.34C238.509 198.34 238.48 198.316 238.477 198.283C238.465 198.157 238.452 198.032 238.439 197.908C238.436 197.873 238.459 197.842 238.494 197.839C238.53 197.836 238.56 197.86 238.563 197.894C238.576 198.019 238.588 198.145 238.601 198.271C238.604 198.306 238.579 198.337 238.545 198.34C238.545 198.34 238.542 198.34 238.54 198.34ZM187.958 197.625C187.924 197.625 187.896 197.597 187.896 197.562C187.896 197.436 187.897 197.31 187.899 197.184C187.899 197.149 187.927 197.121 187.961 197.121C187.996 197.121 188.024 197.149 188.024 197.184C188.023 197.31 188.023 197.436 188.021 197.562C188.021 197.597 187.993 197.625 187.958 197.625ZM238.403 197.088C238.371 197.088 238.344 197.064 238.34 197.032C238.325 196.906 238.31 196.782 238.293 196.657C238.289 196.622 238.313 196.591 238.347 196.586C238.382 196.582 238.413 196.606 238.418 196.64C238.433 196.765 238.449 196.89 238.464 197.016C238.468 197.05 238.443 197.082 238.409 197.086C238.407 197.088 238.404 197.088 238.403 197.088ZM187.972 196.366C187.936 196.364 187.909 196.336 187.909 196.301C187.912 196.175 187.914 196.049 187.917 195.923C187.918 195.888 187.948 195.863 187.981 195.861C188.015 195.863 188.044 195.891 188.042 195.926C188.039 196.052 188.036 196.178 188.035 196.304C188.035 196.339 188.006 196.366 187.972 196.366ZM238.241 195.839C238.21 195.839 238.183 195.816 238.18 195.785C238.162 195.659 238.144 195.534 238.127 195.411C238.123 195.376 238.147 195.345 238.18 195.339C238.214 195.334 238.246 195.358 238.25 195.391C238.268 195.514 238.286 195.64 238.304 195.765C238.308 195.8 238.284 195.831 238.25 195.836C238.247 195.837 238.244 195.839 238.241 195.839ZM188.008 195.106C188.006 195.106 188.006 195.106 188.006 195.106C187.97 195.104 187.944 195.076 187.945 195.04C187.949 194.914 187.954 194.788 187.96 194.662C187.961 194.627 187.993 194.6 188.026 194.601C188.06 194.603 188.087 194.633 188.086 194.668C188.08 194.794 188.075 194.92 188.071 195.046C188.069 195.079 188.041 195.106 188.008 195.106ZM238.056 194.591C238.026 194.591 237.999 194.568 237.994 194.538C237.975 194.412 237.954 194.288 237.935 194.166C237.929 194.132 237.953 194.1 237.987 194.094C238.021 194.088 238.053 194.112 238.059 194.147C238.078 194.27 238.099 194.394 238.119 194.52C238.124 194.555 238.101 194.586 238.066 194.592C238.062 194.591 238.059 194.591 238.056 194.591ZM188.066 193.846C188.065 193.846 188.063 193.846 188.063 193.846C188.029 193.845 188.002 193.815 188.005 193.78C188.012 193.654 188.02 193.528 188.027 193.402C188.03 193.367 188.059 193.34 188.095 193.343C188.129 193.346 188.156 193.375 188.153 193.411C188.145 193.535 188.136 193.662 188.13 193.788C188.126 193.821 188.099 193.846 188.066 193.846ZM237.848 193.348C237.818 193.348 237.791 193.327 237.787 193.295C237.764 193.169 237.742 193.044 237.721 192.923C237.715 192.888 237.737 192.855 237.772 192.849C237.806 192.843 237.839 192.866 237.845 192.9C237.867 193.022 237.89 193.147 237.911 193.273C237.917 193.307 237.894 193.34 237.86 193.346C237.855 193.348 237.852 193.348 237.848 193.348ZM188.154 192.59C188.153 192.59 188.151 192.59 188.148 192.59C188.114 192.587 188.089 192.556 188.092 192.522C188.102 192.396 188.114 192.27 188.126 192.145C188.129 192.111 188.159 192.087 188.195 192.088C188.229 192.091 188.255 192.123 188.252 192.157C188.24 192.282 188.229 192.406 188.219 192.532C188.214 192.564 188.187 192.59 188.154 192.59ZM237.619 192.109C237.589 192.109 237.564 192.088 237.558 192.058C237.532 191.93 237.508 191.807 237.485 191.687C237.477 191.653 237.499 191.62 237.534 191.614C237.568 191.606 237.601 191.629 237.607 191.663C237.631 191.783 237.655 191.906 237.68 192.034C237.686 192.069 237.665 192.102 237.631 192.108C237.627 192.109 237.624 192.109 237.619 192.109ZM188.281 191.336C188.278 191.336 188.277 191.336 188.274 191.336C188.24 191.331 188.216 191.3 188.219 191.265C188.234 191.139 188.25 191.013 188.266 190.89C188.271 190.855 188.302 190.83 188.337 190.836C188.371 190.84 188.395 190.872 188.391 190.906C188.374 191.03 188.358 191.154 188.343 191.28C188.34 191.312 188.313 191.336 188.281 191.336ZM237.366 190.873C237.338 190.873 237.311 190.854 237.305 190.824L237.245 190.546C237.211 190.542 237.176 190.512 237.179 190.477C237.184 190.442 237.203 190.418 237.239 190.423L237.254 190.424C237.311 190.432 237.356 190.469 237.368 190.519L237.428 190.797C237.435 190.831 237.414 190.864 237.38 190.872C237.375 190.873 237.371 190.873 237.366 190.873ZM236.36 190.454C236.359 190.454 236.356 190.454 236.354 190.454C236.233 190.442 236.107 190.43 235.98 190.42C235.946 190.417 235.92 190.387 235.923 190.351C235.926 190.316 235.956 190.291 235.992 190.294C236.121 190.306 236.246 190.316 236.368 190.328C236.402 190.331 236.427 190.363 236.424 190.397C236.418 190.43 236.391 190.454 236.36 190.454ZM235.108 190.346C235.107 190.346 235.105 190.346 235.104 190.346C234.981 190.337 234.856 190.328 234.729 190.319C234.694 190.316 234.667 190.286 234.67 190.252C234.673 190.217 234.702 190.19 234.738 190.193C234.865 190.202 234.99 190.211 235.113 190.222C235.147 190.225 235.173 190.255 235.171 190.289C235.17 190.322 235.141 190.346 235.108 190.346ZM233.857 190.261C233.855 190.261 233.854 190.261 233.852 190.261L233.477 190.238C233.443 190.237 233.416 190.207 233.419 190.172C233.42 190.138 233.45 190.108 233.485 190.114L233.86 190.136C233.894 190.139 233.921 190.168 233.918 190.202C233.918 190.234 233.89 190.261 233.857 190.261ZM232.605 190.187H232.602L232.227 190.168C232.193 190.166 232.166 190.136 232.167 190.102C232.169 190.067 232.202 190.039 232.233 190.042L232.61 190.061C232.644 190.063 232.671 190.093 232.67 190.127C232.665 190.162 232.638 190.187 232.605 190.187ZM231.351 190.126C231.349 190.126 231.349 190.126 231.348 190.126L230.972 190.109C230.938 190.108 230.911 190.078 230.913 190.043C230.914 190.009 230.946 189.984 230.978 189.983L231.355 190C231.39 190.001 231.417 190.031 231.415 190.066C231.412 190.1 231.385 190.126 231.351 190.126ZM188.462 190.088C188.459 190.088 188.455 190.088 188.452 190.087C188.418 190.081 188.395 190.048 188.401 190.015L188.421 189.902C188.437 189.809 188.513 189.743 188.607 189.741L188.69 189.74C188.724 189.74 188.752 189.767 188.752 189.803C188.752 189.837 188.726 189.866 188.69 189.866L188.607 189.867C188.575 189.867 188.549 189.891 188.543 189.924L188.524 190.037C188.519 190.067 188.492 190.088 188.462 190.088ZM230.098 190.073H230.095L229.718 190.058C229.683 190.057 229.657 190.028 229.658 189.992C229.66 189.957 229.685 189.933 229.722 189.932L230.099 189.947C230.134 189.948 230.16 189.977 230.159 190.013C230.159 190.046 230.131 190.073 230.098 190.073ZM228.843 190.027C228.843 190.027 228.842 190.027 228.843 190.027L228.465 190.013C228.43 190.012 228.404 189.983 228.404 189.948C228.405 189.914 228.435 189.888 228.468 189.887L228.845 189.899C228.879 189.9 228.906 189.929 228.906 189.963C228.906 190 228.878 190.027 228.843 190.027ZM227.59 189.986C227.589 189.986 227.589 189.986 227.59 189.986L227.212 189.975C227.177 189.974 227.15 189.945 227.15 189.911C227.152 189.876 227.182 189.852 227.215 189.849L227.592 189.86C227.626 189.861 227.653 189.89 227.653 189.924C227.651 189.959 227.623 189.986 227.59 189.986ZM226.335 189.95H226.334L225.957 189.939C225.923 189.938 225.896 189.909 225.896 189.875C225.897 189.84 225.924 189.813 225.959 189.813H225.96L226.337 189.824C226.371 189.825 226.398 189.854 226.398 189.888C226.397 189.923 226.37 189.95 226.335 189.95ZM225.081 189.918L224.703 189.909C224.668 189.908 224.641 189.879 224.641 189.845C224.643 189.81 224.67 189.783 224.704 189.783H224.706L225.082 189.792C225.117 189.794 225.144 189.822 225.144 189.857C225.144 189.89 225.115 189.918 225.081 189.918ZM223.826 189.89L223.45 189.882C223.415 189.881 223.387 189.852 223.388 189.818C223.39 189.783 223.42 189.753 223.453 189.756L223.829 189.764C223.864 189.764 223.892 189.794 223.891 189.828C223.889 189.863 223.861 189.89 223.826 189.89ZM222.572 189.866L222.195 189.858C222.161 189.858 222.132 189.83 222.134 189.794C222.134 189.759 222.164 189.731 222.198 189.732L222.575 189.74C222.609 189.74 222.638 189.77 222.636 189.804C222.635 189.837 222.606 189.866 222.572 189.866ZM189.569 189.855C189.535 189.855 189.506 189.828 189.506 189.794C189.506 189.759 189.533 189.731 189.567 189.731L189.944 189.726C189.976 189.725 190.007 189.753 190.007 189.788C190.007 189.822 189.98 189.851 189.946 189.851L189.569 189.855ZM221.317 189.843L220.94 189.837C220.906 189.837 220.878 189.809 220.879 189.773C220.879 189.738 220.908 189.711 220.942 189.711H220.943L221.32 189.717C221.355 189.717 221.383 189.747 221.382 189.782C221.38 189.816 221.352 189.843 221.317 189.843ZM190.823 189.84C190.789 189.84 190.761 189.813 190.761 189.779C190.761 189.744 190.788 189.716 190.822 189.716L191.199 189.711C191.233 189.711 191.262 189.738 191.262 189.774C191.262 189.809 191.235 189.837 191.2 189.837L190.823 189.84ZM192.08 189.828C192.045 189.828 192.017 189.801 192.017 189.765C192.017 189.731 192.044 189.702 192.08 189.702L192.456 189.698C192.491 189.698 192.519 189.726 192.519 189.761C192.519 189.795 192.492 189.824 192.458 189.824L192.08 189.828ZM220.063 189.825L219.686 189.821C219.651 189.821 219.623 189.792 219.625 189.756C219.625 189.722 219.653 189.695 219.687 189.695H219.689L220.066 189.699C220.1 189.699 220.128 189.728 220.127 189.764C220.125 189.797 220.097 189.825 220.063 189.825ZM193.334 189.815C193.3 189.815 193.271 189.786 193.271 189.752C193.271 189.717 193.298 189.689 193.334 189.689L193.711 189.686C193.745 189.686 193.774 189.714 193.774 189.749C193.774 189.783 193.747 189.812 193.711 189.812L193.334 189.815ZM218.808 189.809L218.431 189.804C218.397 189.804 218.369 189.776 218.37 189.741C218.37 189.707 218.398 189.68 218.433 189.68L218.81 189.684C218.844 189.684 218.872 189.713 218.871 189.749C218.871 189.78 218.843 189.809 218.808 189.809ZM194.59 189.804C194.556 189.804 194.527 189.777 194.527 189.741C194.527 189.707 194.554 189.678 194.59 189.678L194.967 189.675C195.001 189.675 195.03 189.704 195.03 189.738C195.03 189.773 195.003 189.801 194.967 189.801L194.59 189.804ZM217.554 189.794L217.177 189.789C217.142 189.789 217.114 189.761 217.114 189.726C217.114 189.692 217.142 189.663 217.177 189.663L217.554 189.668C217.588 189.668 217.616 189.696 217.615 189.731C217.616 189.767 217.588 189.794 217.554 189.794ZM195.845 189.794C195.81 189.794 195.782 189.765 195.782 189.731C195.782 189.696 195.809 189.668 195.845 189.668L196.222 189.665C196.254 189.659 196.284 189.693 196.284 189.728C196.284 189.762 196.257 189.791 196.222 189.791L195.845 189.794ZM197.101 189.783C197.066 189.783 197.038 189.755 197.038 189.72C197.038 189.686 197.065 189.657 197.101 189.657L197.478 189.654C197.512 189.654 197.54 189.683 197.54 189.717C197.54 189.752 197.513 189.78 197.478 189.78L197.101 189.783ZM216.299 189.782L215.922 189.779C215.888 189.779 215.859 189.75 215.859 189.716C215.859 189.681 215.886 189.651 215.922 189.653L216.299 189.656C216.333 189.656 216.362 189.684 216.362 189.719C216.362 189.755 216.333 189.782 216.299 189.782ZM198.355 189.776C198.321 189.776 198.293 189.747 198.293 189.713C198.293 189.678 198.321 189.65 198.355 189.65L198.732 189.647C198.767 189.647 198.795 189.675 198.795 189.71C198.795 189.744 198.767 189.773 198.732 189.773L198.355 189.776ZM215.044 189.773L214.668 189.77C214.633 189.77 214.605 189.741 214.605 189.707C214.605 189.672 214.632 189.642 214.668 189.644L215.044 189.647C215.079 189.647 215.107 189.675 215.107 189.71C215.107 189.744 215.079 189.773 215.044 189.773ZM199.61 189.768C199.575 189.768 199.547 189.74 199.547 189.705C199.547 189.671 199.574 189.642 199.61 189.642L199.987 189.641C200.021 189.641 200.05 189.669 200.05 189.704C200.05 189.738 200.021 189.767 199.987 189.767L199.61 189.768ZM213.79 189.764L213.413 189.761C213.379 189.761 213.35 189.732 213.35 189.698C213.35 189.663 213.379 189.635 213.413 189.635L213.79 189.638C213.824 189.638 213.853 189.666 213.853 189.701C213.853 189.735 213.824 189.764 213.79 189.764ZM200.866 189.761C200.832 189.761 200.803 189.732 200.803 189.698C200.803 189.663 200.832 189.635 200.866 189.635L201.243 189.633C201.277 189.633 201.306 189.662 201.306 189.696C201.306 189.731 201.277 189.759 201.243 189.759L200.866 189.761ZM212.535 189.758L212.159 189.756C212.124 189.756 212.096 189.728 212.096 189.693C212.096 189.659 212.124 189.63 212.159 189.63L212.535 189.632C212.57 189.632 212.598 189.66 212.598 189.695C212.598 189.729 212.57 189.758 212.535 189.758ZM202.121 189.756C202.086 189.756 202.058 189.728 202.058 189.693C202.058 189.659 202.086 189.63 202.121 189.63L202.497 189.629C202.532 189.629 202.56 189.657 202.56 189.692C202.56 189.726 202.532 189.755 202.497 189.755L202.121 189.756ZM211.281 189.752L210.904 189.75C210.87 189.75 210.841 189.722 210.841 189.687C210.841 189.653 210.87 189.624 210.904 189.624L211.281 189.626C211.315 189.626 211.344 189.654 211.344 189.689C211.344 189.725 211.315 189.752 211.281 189.752ZM203.375 189.752C203.341 189.752 203.312 189.723 203.312 189.689C203.312 189.654 203.341 189.626 203.375 189.626L203.752 189.624C203.786 189.624 203.815 189.653 203.815 189.687C203.815 189.722 203.786 189.75 203.752 189.75L203.375 189.752ZM210.025 189.749H209.648C209.613 189.749 209.585 189.72 209.585 189.686C209.585 189.651 209.613 189.623 209.648 189.623L210.025 189.624C210.059 189.624 210.087 189.653 210.087 189.687C210.087 189.72 210.061 189.749 210.025 189.749ZM204.631 189.749C204.597 189.749 204.568 189.72 204.568 189.686C204.568 189.651 204.597 189.623 204.631 189.623L205.008 189.621C205.042 189.621 205.071 189.65 205.071 189.684C205.071 189.719 205.042 189.747 205.008 189.747L204.631 189.749ZM208.77 189.746H208.393C208.359 189.746 208.331 189.717 208.331 189.683C208.331 189.648 208.359 189.62 208.393 189.62H208.77C208.805 189.62 208.833 189.648 208.833 189.683C208.833 189.719 208.806 189.746 208.77 189.746ZM205.886 189.746C205.851 189.746 205.823 189.717 205.823 189.683C205.823 189.648 205.851 189.62 205.886 189.62H206.263C206.297 189.62 206.325 189.648 206.325 189.683C206.325 189.717 206.297 189.746 206.263 189.746H205.886ZM207.14 189.746C207.106 189.746 207.077 189.717 207.077 189.683C207.077 189.648 207.106 189.62 207.14 189.62H207.517C207.551 189.62 207.58 189.648 207.58 189.683C207.58 189.717 207.551 189.746 207.517 189.746H207.14Z" fill="#FAFBFE"/>
<path d="M217.253 213.046H210.624C209.756 213.046 209.024 212.397 208.921 211.535L208.156 205.13C208.033 204.111 208.831 203.213 209.859 203.213H217.821C218.829 203.213 219.619 204.076 219.53 205.079L218.962 211.484C218.883 212.367 218.141 213.046 217.253 213.046Z" fill="#7D97F4"/>
<mask id="mask0" mask-type="alpha" maskUnits="userSpaceOnUse" x="209" y="204" width="10" height="8">
<path d="M216.438 211.867H211.393C210.732 211.867 210.176 211.373 210.096 210.717L209.513 205.842C209.421 205.066 210.028 204.383 210.81 204.383H216.87C217.637 204.383 218.238 205.04 218.171 205.803L217.739 210.678C217.679 211.351 217.114 211.867 216.438 211.867Z" fill="url(#paint4_linear)"/>
</mask>
<g mask="url(#mask0)">
<path opacity="0.32" d="M216.438 211.867H211.393C210.732 211.867 210.176 211.373 210.096 210.717L209.513 205.842C209.421 205.066 210.028 204.383 210.81 204.383H216.87C217.637 204.383 218.238 205.04 218.171 205.803L217.739 210.678C217.679 211.351 217.114 211.867 216.438 211.867Z" fill="url(#paint5_linear)"/>
</g>
<path d="M214.123 151.476C213.579 136.791 212.6 117.802 211.012 109.826C209.178 100.622 204.257 95.2217 201.161 92.6317C199.381 91.1437 196.917 90.8104 194.819 91.7924C180.374 98.561 198.133 130.146 198.133 130.146L204.733 153.087C206.838 152.13 209.986 151.228 214.123 151.476Z" fill="#FFDC5E"/>
<path d="M214.124 151.475C209.986 151.228 206.838 152.13 204.735 153.088L210.092 171.711C210.092 171.711 209.173 181.871 209.999 182.991C210.826 184.111 217.451 183.718 217.451 181.871C217.451 180.024 214.69 170.787 214.69 170.787C214.69 170.787 214.526 162.302 214.124 151.475Z" fill="#FFB27D"/>
<path d="M236.546 88.3407C247.717 88.3407 256.772 79.2481 256.772 68.0319C256.772 56.8157 247.717 47.7231 236.546 47.7231C225.376 47.7231 216.321 56.8157 216.321 68.0319C216.321 79.2481 225.376 88.3407 236.546 88.3407Z" fill="#FF928E"/>
<path d="M236.546 87.6654C247.345 87.6654 256.099 78.8753 256.099 68.0323C256.099 57.1892 247.345 48.3992 236.546 48.3992C225.748 48.3992 216.994 57.1892 216.994 68.0323C216.994 78.8753 225.748 87.6654 236.546 87.6654Z" fill="#FF928E"/>
<path d="M221.97 57.8287C221.873 57.8107 221.777 57.7716 221.693 57.7086C221.405 57.4909 221.345 57.0795 221.562 56.7897C225.82 51.0766 232.811 48.2989 239.805 49.5406C240.92 49.7388 242.021 50.0376 243.073 50.431C243.411 50.5571 243.585 50.934 243.459 51.2748C243.334 51.6156 242.958 51.7913 242.619 51.6622C241.639 51.2988 240.615 51.0195 239.577 50.8349C233.073 49.6787 226.571 52.2628 222.609 57.5764C222.455 57.7806 222.205 57.8707 221.97 57.8287Z" fill="#FAFBFE"/>
<path opacity="0.78" d="M248.593 80.2789C255.055 73.7898 255.055 63.2688 248.593 56.7796C242.13 50.2905 231.652 50.2905 225.19 56.7796C218.727 63.2688 218.727 73.7898 225.19 80.2789C231.652 86.7681 242.13 86.7681 248.593 80.2789Z" fill="#FAFBFE"/>
<path d="M233.149 80.4093L233.463 78.6286C231.628 78.2262 229.877 77.4634 228.679 76.6617C228.252 76.3749 228.107 75.8118 228.327 75.3449L229.07 73.7669C229.342 73.1873 230.057 72.9906 230.592 73.3374C231.784 74.1077 233.298 74.8194 235.014 75.1242C236.793 75.441 238.229 75.0701 238.447 73.8284C238.644 72.7083 237.737 71.8585 235.378 70.7534C232.018 69.1574 229.758 67.1619 230.306 64.0404C230.803 61.2221 233.234 59.4369 236.895 59.4925L237.209 57.7117C237.31 57.1382 237.853 56.7568 238.424 56.8574L239.467 57.0421C240.036 57.1427 240.418 57.6907 240.317 58.2628L240.036 59.8618C241.735 60.2342 242.928 60.7492 243.854 61.2732C244.328 61.542 244.509 62.138 244.277 62.6335L243.592 64.0929C243.328 64.656 242.641 64.8677 242.109 64.5494C241.259 64.0419 240.038 63.4548 238.366 63.1575C236.253 62.7822 235.497 63.5539 235.358 64.3422C235.187 65.3121 236.337 66.2025 238.933 67.5388C242.647 69.4171 243.988 71.342 243.47 74.2804C242.994 76.977 240.576 79.046 236.608 78.9664L236.256 80.9588C236.156 81.5324 235.612 81.9138 235.041 81.8132L233.998 81.6285C233.429 81.5294 233.049 80.9829 233.149 80.4093Z" fill="#FF928E"/>
<path d="M205.758 51.099C218.919 51.099 229.589 40.3858 229.589 27.1702C229.589 13.9547 218.919 3.24146 205.758 3.24146C192.597 3.24146 181.927 13.9547 181.927 27.1702C181.927 40.3858 192.597 51.099 205.758 51.099Z" fill="#FF928E"/>
<path d="M205.758 50.3032C218.482 50.3032 228.796 39.9462 228.796 27.1701C228.796 14.3941 218.482 4.03711 205.758 4.03711C193.034 4.03711 182.72 14.3941 182.72 27.1701C182.72 39.9462 193.034 50.3032 205.758 50.3032Z" fill="#FF928E"/>
<path d="M187.037 17.5831C186.948 17.5801 186.859 17.5576 186.775 17.5126C186.489 17.3564 186.385 16.9991 186.539 16.7138C190.501 9.38516 198.115 4.98738 206.41 5.23662C207.732 5.27566 209.053 5.43632 210.339 5.71108C210.656 5.77865 210.858 6.09246 210.791 6.40926C210.724 6.72757 210.414 6.93478 210.094 6.8627C208.877 6.60295 207.625 6.4513 206.374 6.41377C198.525 6.17804 191.319 10.3401 187.569 17.2753C187.461 17.478 187.252 17.5906 187.037 17.5831Z" fill="#FAFBFE"/>
<path opacity="0.78" d="M220.031 41.5333C227.645 33.8873 227.645 21.4906 220.031 13.8446C212.416 6.19858 200.07 6.19859 192.455 13.8446C184.841 21.4906 184.841 33.8873 192.455 41.5333C200.07 49.1793 212.416 49.1793 220.031 41.5333Z" fill="#FAFBFE"/>
<path d="M203.899 42.18L203.962 40.0509C201.754 39.8963 199.584 39.3062 198.051 38.5765C197.504 38.3167 197.239 37.6831 197.417 37.1005L198.015 35.1336C198.235 34.4114 199.034 34.0601 199.718 34.3724C201.239 35.0676 203.126 35.6366 205.178 35.6982C207.307 35.7627 208.916 35.0856 208.961 33.5991C209.001 32.2583 207.798 31.425 204.862 30.5392C200.675 29.2524 197.698 27.314 197.81 23.5814C197.911 20.2121 200.441 17.7122 204.72 17.1521L204.783 15.023C204.804 14.3384 205.374 13.7994 206.056 13.8189L207.301 13.8564C207.983 13.8774 208.52 14.4495 208.5 15.1342L208.444 17.0455C210.486 17.1897 211.965 17.5845 213.134 18.038C213.734 18.2692 214.045 18.9344 213.858 19.5515L213.308 21.3712C213.095 22.0724 212.331 22.4373 211.657 22.158C210.582 21.7121 209.057 21.2361 207.057 21.176C204.532 21.0995 203.778 22.1295 203.75 23.0709C203.715 24.23 205.208 25.0723 208.46 26.1864C213.109 27.7404 214.999 29.7554 214.894 33.2703C214.799 36.4955 212.33 39.3227 207.69 39.9083L207.62 42.2911C207.599 42.9758 207.029 43.5148 206.347 43.4953L205.102 43.4577C204.415 43.4367 203.878 42.8647 203.899 42.18Z" fill="#FF928E"/>
<defs>
<linearGradient id="paint0_linear" x1="216.121" y1="196.936" x2="212.063" y2="215.121" gradientUnits="userSpaceOnUse">
<stop stop-color="#4F52FF"/>
<stop offset="1" stop-color="#4042E2"/>
</linearGradient>
<linearGradient id="paint1_linear" x1="227.332" y1="166.62" x2="225.176" y2="178.871" gradientUnits="userSpaceOnUse">
<stop stop-color="#09005D"/>
<stop offset="1" stop-color="#1A0F91"/>
</linearGradient>
<linearGradient id="paint2_linear" x1="214.251" y1="173.336" x2="212.749" y2="184.311" gradientUnits="userSpaceOnUse">
<stop stop-color="#4F52FF"/>
<stop offset="1" stop-color="#4042E2"/>
</linearGradient>
<linearGradient id="paint3_linear" x1="212.91" y1="199.528" x2="227.446" y2="150.037" gradientUnits="userSpaceOnUse">
<stop stop-color="#4F52FF"/>
<stop offset="1" stop-color="#4042E2"/>
</linearGradient>
<linearGradient id="paint4_linear" x1="209.504" y1="208.126" x2="218.176" y2="208.126" gradientUnits="userSpaceOnUse">
<stop stop-color="white"/>
<stop offset="1"/>
</linearGradient>
<linearGradient id="paint5_linear" x1="209.504" y1="208.126" x2="218.176" y2="208.126" gradientUnits="userSpaceOnUse">
<stop stop-color="white"/>
<stop offset="1" stop-color="white"/>
</linearGradient>
</defs>
</svg>
