<svg width="366" height="300" viewBox="0 0 366 300" fill="none" xmlns="http://www.w3.org/2000/svg">
<path fill-rule="evenodd" clip-rule="evenodd" d="M68.7757 263.018C47.5883 217.884 90.2521 167.437 107.309 119.047C121.527 78.7098 127.73 29.4839 157.428 11.5072C190.409 -8.45666 230.104 -1.90095 259.439 26.961C288.187 55.2454 298.602 104.713 301.623 153.377C304.697 202.906 305.064 261.757 275.799 290.559C248.104 317.817 213.552 277.835 179.738 273.336C140.915 268.171 90.0313 308.297 68.7757 263.018Z" fill="#F8EA8C"/>
<g clip-path="url(#clip0)">
<path d="M196.062 191.309C196.062 192.171 196.062 205.708 196.062 205.708C196.062 205.708 195.407 207.426 192.627 213.229C189.848 219.033 186.843 236.655 186.843 236.655L192.627 248.262L210.901 216.63C213.08 212.86 214.118 208.534 213.886 204.175L213.005 187.654L196.062 191.309Z" fill="#FFB27D"/>
<path d="M185.805 171.612L164.84 175.164C164.84 175.164 166.957 180.913 167.108 181.481C167.661 183.534 168.869 188.852 168.159 193.834C167.251 200.185 166.459 207.891 166.855 211.518C167.251 215.145 170.877 250.069 170.877 250.069H183.838L186.713 183.404L185.805 171.612Z" fill="#FFB27D"/>
<path d="M183.668 261.621C183.729 259.986 182.76 255.934 181.974 254.121C181.189 252.307 181.53 251 181.53 251L177.214 249.029C175.78 248.372 174.169 248.146 172.625 248.488C170.925 248.865 170.625 249.665 170.563 250.726C170.317 255.216 170.659 259.096 170.413 260.766C170.085 262.997 172.619 273.228 172.796 273.29C172.98 273.352 185.17 275.767 185.17 275.767C185.17 275.767 187.164 274.556 187.28 272.907C187.396 271.257 183.606 263.257 183.668 261.621Z" fill="#455A64"/>
<path d="M187.28 272.913C186.27 270.58 184.187 268.807 183.367 266.405C182.343 263.401 183.442 259.835 181.892 257.07C180.718 254.983 178.082 253.525 175.78 254.168C173.657 254.428 171.567 256.304 170.904 258.076C170.242 259.849 170.386 261.806 170.543 263.688C170.775 266.549 171.014 269.409 171.246 272.27C171.492 275.309 171.813 278.539 173.67 280.962C176.013 284.014 180.718 284.931 184.03 282.974C187.335 281.01 188.817 276.445 187.28 272.913Z" fill="#263238"/>
<path d="M188.387 263.469C188.387 263.469 192.771 259.643 194.225 249.309C195.68 238.968 193.413 234.541 193.413 234.541C193.413 234.541 191.849 228.484 188.161 229.223C185.785 229.791 184.344 231.399 182.882 232.987L188.387 263.469Z" fill="#455A64"/>
<path d="M189.916 231.906C189.711 231.721 189.486 231.55 189.233 231.44C187.028 230.468 184.221 231.454 182.691 233.363C181.073 235.382 180.656 238.147 180.895 240.72C181.066 242.63 181.558 244.567 181.148 246.442C180.711 248.433 179.331 250.055 178.266 251.787C176.641 254.428 175.692 257.481 175.534 260.574C175.398 263.236 175.931 266.165 178.867 267.425C180.349 268.061 182.029 268.054 183.552 267.514C186.693 266.405 188.694 263.572 190.121 260.656C194.328 252.074 194.512 241.624 190.64 232.891C190.476 232.522 190.224 232.186 189.916 231.906Z" fill="#263238"/>
<path d="M145.931 122.166C146.122 121.975 146.314 121.79 146.505 121.598C146.314 121.79 146.122 121.981 145.931 122.166Z" fill="#FFBE9D"/>
<path d="M146.505 121.605L148.827 122.994C152.965 122.057 157.103 120.743 160.593 118.313C164.076 115.884 166.862 112.188 167.415 107.972C159.63 111.066 152.487 115.733 146.505 121.605Z" fill="#FFB27D"/>
<path d="M152.152 104.927C153.463 101.902 159.186 89.7268 159.186 89.7268C159.186 89.7268 151.886 83.5195 146.935 84.9225C146.935 84.9225 139.205 102.833 138.74 104.455C138.74 104.455 133.789 115.186 138.74 117.937C138.74 117.937 143.445 118.388 145.911 114.953C148.383 111.517 152.152 104.927 152.152 104.927Z" fill="#FFB27D"/>
<path d="M118.431 131.412L162.628 91.6157L164.39 109.738L128.237 142.335C125.321 144.963 120.855 144.826 118.103 142.02C115.174 139.036 115.324 134.211 118.431 131.412Z" fill="#263238"/>
<path d="M128.354 142.075C128.285 142.075 128.552 141.185 128.135 139.837C127.739 138.502 126.667 136.825 125.144 135.334C123.621 133.828 121.907 132.849 120.616 132.309C119.326 131.747 118.458 131.576 118.479 131.508C118.486 131.481 118.704 131.515 119.093 131.59C119.483 131.672 120.043 131.816 120.712 132.076C122.05 132.569 123.826 133.534 125.39 135.08C126.954 136.613 128.019 138.358 128.374 139.768C128.558 140.473 128.558 141.069 128.511 141.472C128.456 141.869 128.367 142.081 128.354 142.075Z" fill="#455A64"/>
<path d="M162.628 91.6156L217.273 48.0346C222.879 45.4339 227.455 44.25 233.539 43.4561C234.489 43.3329 235.124 44.2637 234.816 45.1739C233.048 50.4572 231.245 54.2008 227.482 58.5534L165.735 108.109L162.628 91.6156Z" fill="#263238"/>
<path d="M236.394 42.58C236.203 42.4021 235.895 42.5321 235.67 42.6621C235.185 42.9496 234.707 43.237 234.222 43.5245L234.55 44.7837C235.069 44.3389 235.588 43.8872 236.114 43.4423C236.244 43.3328 236.38 43.2165 236.448 43.0591C236.524 42.9017 236.517 42.6964 236.394 42.58Z" fill="#263238"/>
<path d="M207.487 84.9224C207.692 85.5451 211.844 103.435 211.844 103.435C211.844 103.435 218.714 121.824 225.147 134.307L228.254 139.289L233.847 138.386C233.847 138.386 226.164 105.098 224.716 102.189C223.262 99.2737 220.667 84.9224 220.667 84.9224H207.487Z" fill="#FFB27D"/>
<path d="M177.044 20.0573L176.928 57.8964L193.126 58.6698L193.597 49.4649C193.597 49.4649 199.347 50.6078 200.836 45.256C201.785 41.8341 201.546 15.4036 201.546 15.4036L177.044 20.0573Z" fill="#FFB27D"/>
<path d="M203.676 18.0657C201.122 18.798 200.569 22.9795 200.569 22.9795L196.568 31.8353C194.526 30.2339 191.794 30.3297 191.275 33.9158C190.9 36.5096 194.123 37.0366 194.123 37.0366C192.252 40.2326 190.975 42.8195 188.25 45.8582C185.3 49.15 183.64 49.4785 180.438 49.5333H176.907C176.907 49.5333 175.179 43.9077 171.977 29.8506C168.426 14.2469 186.836 16.2589 190.244 12.2759C195.803 5.78801 211.721 15.7594 203.676 18.0657Z" fill="#263238"/>
<path d="M172.311 31.3153C169.327 29.3101 169.061 23.6845 170.802 20.3174C172.543 16.9502 176.204 14.6644 179.994 14.5892C180.499 14.5823 181.025 14.6028 181.496 14.4181C182.2 14.1443 182.65 13.4805 183.108 12.8851C185.771 9.41528 188.393 6.00024 193.365 6.00024C194.171 6.00024 195.065 6.00024 196.492 6.77359C197.203 7.16368 198.2 8.47084 198.37 9.26471C199.306 8.81987 200.255 8.37503 201.28 8.21762C202.304 8.06021 203.424 8.24499 204.195 8.92937C204.967 9.62059 205.254 10.8867 204.653 11.7285C206.326 11.619 207.917 13.0151 208.177 14.6713C208.443 16.3343 206.067 17.4977 205.821 17.6278C205.821 17.6278 207.125 20.3653 204.018 22.0009C202.768 22.6648 201.136 21.8641 200.952 21.7682" fill="#263238"/>
<path d="M163.031 140.617C163.031 140.617 162.443 156.214 163.031 160.956C163.618 165.706 162.771 194.354 162.771 194.354C162.771 194.354 184.726 200.76 190.647 193.163C190.647 193.163 188.25 158.342 188.011 157.391C187.772 156.439 185.839 132.712 185.839 132.712L163.031 140.617Z" fill="#263238"/>
<path d="M213.114 132.712C214.405 136.743 217.143 151.936 217.143 151.936V192.198C217.143 192.198 198.118 199.083 190.544 195.675L185.846 155.255V134.314L201.498 128.202L213.114 132.712Z" fill="#263238"/>
<path d="M186.789 159.417C186.884 159.41 187.806 167.513 188.844 177.525C189.882 187.537 190.64 195.661 190.544 195.675C190.449 195.682 189.527 187.579 188.489 177.566C187.451 167.554 186.686 159.43 186.789 159.417Z" fill="#455A64"/>
<path d="M209.194 99.7529C209.003 99.178 206.886 87.0304 206.886 87.0304L222.463 86.6471C222.463 86.6471 215.627 59.8675 211.898 57.8897C206.121 54.8305 193.419 54.4541 193.419 54.4541H177.071C177.071 54.4541 158.988 59.4637 155.724 64.8634L144.183 87.1056L159.186 92.6217L161.788 89.412L164.376 112.092C164.376 112.092 162.84 132.528 162.84 135.607C162.84 138.694 163.031 140.617 163.031 140.617C163.031 140.617 197.018 131.371 205.288 134.067C213.558 136.764 214.794 139.296 214.794 139.296C214.794 139.296 215.538 130.208 213.619 126.738L209.194 99.7529Z" fill="#FF725E"/>
<g opacity="0.3">
<g opacity="0.3">
<path opacity="0.3" d="M157.916 78.6399C157.916 78.6399 158.886 87.9611 159.186 92.6148L161.788 89.4051C161.788 89.4051 159.234 79.8102 157.916 78.6399Z" fill="black"/>
</g>
</g>
<g opacity="0.3">
<g opacity="0.3">
<path opacity="0.3" d="M181.92 111.565C180.13 114.412 178.437 117.882 177.29 121.044C182.52 116.773 186.7 111.216 189.343 105.002C186.208 106.206 183.716 108.718 181.92 111.565Z" fill="black"/>
</g>
</g>
<path d="M233.102 136.141C233.102 136.141 235.854 141.199 237.842 143.799L241.208 150.848V157.897C241.208 157.897 239.603 157.904 239.358 156.932C239.358 156.932 237.903 156.837 237.664 154.51C237.664 154.51 236.407 154.215 236.162 152.347C235.923 150.486 235.5 149 235.5 149L234.5 147.5L233.314 146.509C233.314 146.509 234.769 149.274 234.864 150C234.96 150.725 235.103 152.368 234.092 152.347C233.075 152.327 232.208 150.581 232.057 149.904C231.914 149.226 230.944 146.995 230.268 146.366C229.592 145.736 228.383 144.183 228.288 143.313C228.192 142.437 228.288 137.982 228.288 137.982L233.102 136.141Z" fill="#FFB27D"/>
<path d="M248.624 31.5206C247.743 30.3093 245.763 30.5009 244.643 31.5001C243.53 32.4993 243.045 34.0049 242.554 35.4216C242.062 36.8382 241.434 38.3233 240.177 39.1309C242.13 38.3233 244.568 36.7493 246.35 36.0033C248.126 35.2642 249.751 33.0878 248.624 31.5206Z" fill="#FF725E"/>
<path d="M239.119 41.9299C240.232 41.3481 242.588 40.828 243.817 41.0881C245.046 41.3481 246.18 42.0394 246.972 43.018C247.197 43.2986 247.402 43.6134 247.47 43.9761C247.539 44.3389 247.436 44.7358 247.156 44.9616C246.897 45.167 246.535 45.1806 246.207 45.1396C245.039 44.989 244.056 44.2157 243.127 43.4971C242.178 42.7785 240.293 41.9641 239.119 41.9299Z" fill="#FF725E"/>
</g>
<defs>
<clipPath id="clip0">
<rect width="133" height="278" fill="white" transform="translate(116 6.00024)"/>
</clipPath>
</defs>
</svg>
