<svg width="363" height="242" viewBox="0 0 363 242" fill="none" xmlns="http://www.w3.org/2000/svg">
<g clip-path="url(#clip0)">
<path d="M123.166 54.161C122.788 54.161 122.411 53.9312 122.243 53.5761C122.013 53.0539 122.222 52.4482 122.746 52.2184L159.386 35.4042C159.91 35.1744 160.518 35.3833 160.748 35.9055C160.979 36.4277 160.769 37.0334 160.245 37.2631L123.606 54.0774C123.459 54.1192 123.312 54.161 123.166 54.161Z" fill="#184655"/>
<path d="M120.294 119.914C120.252 119.914 120.21 119.914 120.168 119.914C119.602 119.851 119.204 119.329 119.288 118.765L129.119 41.9836C129.181 41.4196 129.706 41.0228 130.271 41.1063C130.837 41.169 131.236 41.6912 131.152 42.2551L121.321 119.058C121.237 119.538 120.797 119.914 120.294 119.914Z" fill="#184655"/>
<path d="M173.472 41.9001C170.181 34.1091 163.201 29.5974 157.856 31.8324C152.532 34.0673 150.876 42.1925 154.167 49.9834C154.985 51.9051 156.012 53.6387 157.206 55.1008L175.023 47.6232C174.793 45.7642 174.289 43.8217 173.472 41.9001Z" fill="#F7CC7F"/>
<path d="M133.017 50.234C133.017 52.448 131.215 54.2443 128.993 54.2443C126.771 54.2443 124.968 52.448 124.968 50.234C124.968 48.0199 126.771 46.2236 128.993 46.2236C131.215 46.2236 133.017 48.0199 133.017 50.234Z" fill="#184655"/>
<path d="M257.63 120.979C250.901 120.102 243.523 118.118 243.523 118.118C243.523 118.118 242.328 104.604 242.265 104.102C241.825 97.1677 240.966 92.5307 245.472 87.5804C247.61 85.2411 257.567 86.6823 259.223 95.0372C260.774 102.786 259.139 113.773 258.091 120.645L258.028 121.042L257.63 120.979Z" fill="#B75742"/>
<path d="M70.5753 206.742C70.5753 206.742 35.6755 181.782 30.7497 170.962C25.8239 160.143 35.5288 161.166 35.5288 161.166C35.5288 161.166 21.2963 141.929 24.8387 135.391C28.3811 128.874 34.4388 132.049 34.4388 132.049C34.4388 132.049 29.2195 110.661 34.7742 109.094C45.1079 106.149 54.2049 134.409 54.2049 134.409C54.2049 134.409 55.2948 123.151 59.7385 124.07C69.6321 126.138 64.9159 151.788 64.9159 151.788C64.9159 151.788 67.6827 142.159 73.1325 146.336C82.9841 153.835 70.5753 206.742 70.5753 206.742Z" fill="#355389"/>
<path d="M74.2224 144.937C69.0451 141.344 65.5027 146.837 65.5027 146.837C65.5027 146.837 69.5901 126.347 59.7594 124.07C54.5821 122.859 54.2258 134.409 54.2258 134.409C54.2258 134.409 45.1287 106.149 34.795 109.094L70.701 206.345C72.0844 200.204 82.5019 150.66 74.2224 144.937Z" fill="#466EB6"/>
<path d="M60.9961 198.993C60.9961 198.993 25.0901 199.014 20.1015 198.429C15.1128 197.844 20.6255 193.416 20.6255 193.416C20.6255 193.416 9.45335 193.813 7.75552 191.118C6.05769 188.403 10.6062 187.338 10.6062 187.338C10.6062 187.338 -0.524016 184.121 0.0209665 181.761C1.00613 177.375 13.2892 180.236 13.2892 180.236C13.2892 180.236 8.71972 178.022 10.5852 175.975C13.373 172.884 25.3207 181.301 25.3207 181.301C25.3207 181.301 21.6526 173.97 23.4762 171.777C30.6448 163.255 60.9961 198.993 60.9961 198.993Z" fill="#9BC1F9"/>
<path d="M69.9044 207.556C69.9044 207.556 104.28 200.914 111.889 194.544C119.498 188.194 110.17 187.693 110.17 187.693C110.17 187.693 130.544 180.006 130.293 173.803C130.041 167.599 121.279 167.223 121.279 167.223C121.279 167.223 133.437 156.362 130.942 151.098C127.107 143.015 109.709 158.346 109.709 158.346C109.709 158.346 110.128 144.978 104.741 143.704C96.6086 141.761 89.5657 166.847 89.5657 166.847C89.5657 166.847 88.329 160.79 82.7325 161.939C72.7132 164.006 69.9044 207.556 69.9044 207.556Z" fill="#86B1F2"/>
<path d="M50.9769 239.264H99.2288C105.37 232.329 105.999 222.115 105.852 211.63C105.79 206.345 108.032 202.418 106.188 197.907L43.976 198.763C42.2572 203.358 41.3349 208.413 41.3978 213.698C41.5236 223.682 45.1498 232.663 50.9769 239.264Z" fill="#F47458"/>
<path d="M347.112 238.156H11.4028C10.3338 238.156 9.47437 239.013 9.47437 240.078C9.47437 241.143 10.3338 242 11.4028 242H347.175C348.265 242 349.145 241.08 349.103 239.994C349.04 238.95 348.16 238.156 347.112 238.156Z" fill="#13375B"/>
<path d="M217.615 10.8615C224.784 8.64743 231.093 16.334 227.53 22.9343C226.901 24.1249 226.733 25.5035 227.027 26.8194L228.054 31.3519C228.326 32.6052 227.614 33.8584 226.377 34.2344L223.673 35.0698C222.457 35.4458 221.137 34.8192 220.655 33.6286C218.915 29.305 218.601 27.5713 216.295 26.4016C209.608 22.9761 210.468 13.0755 217.615 10.8615Z" fill="#F7CC7F"/>
<path d="M225.392 28.9289C224.113 25.3781 222.856 21.4304 222.437 19.9474C221.137 20.4487 219.754 20.6993 218.349 20.7202C219.544 23.6026 220.676 26.5477 221.724 29.472L221.347 29.5973C220.278 26.6104 219.125 23.6235 217.909 20.6993C217.05 20.6784 216.065 20.5949 215.457 20.01C215.163 19.7385 214.996 19.3207 215.017 18.9448C215.037 17.9004 216.232 17.5871 217.029 18.2555C217.553 18.6941 217.804 19.4043 218.182 20.3024C219.586 20.3233 221.011 20.0727 222.332 19.5505C222.143 18.7777 222.059 18.0466 222.332 17.3365C223.275 14.8509 226.713 18.1093 222.814 19.8012C223.149 20.9708 224.428 25.023 225.79 28.8036L225.392 28.9289ZM222.709 17.4827C222.479 18.0675 222.541 18.7359 222.709 19.4043C223.548 19.0283 224.03 18.5897 224.197 18.0675C224.449 17.1694 223.212 16.1459 222.709 17.4827ZM215.624 18.4644C215.268 18.7777 215.394 19.4043 215.729 19.7385C216.211 20.198 217.029 20.2607 217.741 20.3024C217.448 19.5923 217.217 18.9448 216.777 18.5688C216.463 18.2973 215.666 18.4226 215.624 18.4644Z" fill="#FAE0B2"/>
<path d="M227.006 26.7148C227.006 26.7566 227.027 26.7984 227.027 26.8193L228.054 31.3518C228.327 32.6051 227.614 33.8583 226.377 34.2343L223.673 35.0698C222.458 35.4457 221.137 34.8191 220.655 33.6285C219.879 31.7069 219.397 30.2866 218.873 29.2213L227.006 26.7148Z" fill="#96D9C9"/>
<path d="M221.011 5.4096L221.179 0.814395C221.2 0.375762 220.843 -0.000208702 220.403 -0.021096C219.963 -0.0419833 219.586 0.313101 219.565 0.751733L219.397 5.34693C219.376 5.78557 219.733 6.16154 220.173 6.18243C220.634 6.20331 221.011 5.86912 221.011 5.4096Z" fill="#FAE0B2"/>
<path d="M229.71 11.9685L233.839 9.44114C234.217 9.21138 234.342 8.71009 234.112 8.33412C233.881 7.95815 233.378 7.83282 233.001 8.06258L228.872 10.5899C228.494 10.8197 228.368 11.321 228.599 11.697C228.83 12.0938 229.333 12.1983 229.71 11.9685Z" fill="#FAE0B2"/>
<path d="M240.61 23.0175C240.756 22.5998 240.526 22.1402 240.086 21.994C238.493 21.4718 236.858 21.1168 235.202 20.9079C234.762 20.8452 234.363 21.1585 234.3 21.5972C234.238 22.0358 234.552 22.4327 234.992 22.4953C236.543 22.6833 238.094 23.0384 239.562 23.5188C240.002 23.665 240.463 23.4352 240.61 23.0175Z" fill="#FAE0B2"/>
<path d="M210.258 10.5269C210.594 10.2345 210.615 9.73319 210.321 9.39899C208.917 7.81156 207.68 6.0988 206.632 4.26072C206.402 3.88475 205.919 3.73854 205.542 3.9683C205.165 4.19806 205.018 4.67847 205.249 5.05444C206.36 6.97607 207.659 8.81415 209.126 10.4642C209.42 10.7984 209.923 10.8193 210.258 10.5269Z" fill="#FAE0B2"/>
<path d="M208.602 18.276C208.519 17.8374 208.099 17.545 207.68 17.6285L202.524 18.5058C202.084 18.5893 201.79 19.0071 201.874 19.4248C201.958 19.8635 202.377 20.1559 202.796 20.0723L207.953 19.1951C208.372 19.1324 208.665 18.7147 208.602 18.276Z" fill="#FAE0B2"/>
<path d="M207.198 33.8372C207.261 33.7954 207.324 33.7536 207.387 33.7118C208.728 32.5004 209.923 31.1427 210.971 29.6806C211.223 29.3255 211.139 28.8242 210.782 28.5527C210.426 28.302 209.923 28.3856 209.651 28.7407C208.665 30.1192 207.534 31.3725 206.297 32.5213C205.961 32.8137 205.941 33.3359 206.234 33.6492C206.486 33.9207 206.884 33.9834 207.198 33.8372Z" fill="#FAE0B2"/>
<path d="M160.114 156.707H234.399V132.31H160.114V156.707Z" fill="#13375B"/>
<path d="M129.334 226.065H184.901V130.902H129.334V226.065Z" fill="#FAE0B2"/>
<path d="M152.403 238.281H158.042V225.832H152.403V238.281Z" fill="#184655"/>
<path d="M121.15 238.278H126.789V226.038H121.15V238.278Z" fill="#184655"/>
<path d="M311.709 238.198H317.662C309.508 232.914 304.834 219.212 302.381 210.022C297.665 192.351 296.596 175.119 296.575 174.973L288.505 176.142C291.042 192.873 297.959 225.478 311.709 238.198Z" fill="#355389"/>
<path d="M98.8489 226.065H189.19V130.902H98.8489L98.8489 226.065Z" fill="#355389"/>
<path d="M98.9639 238.312H105.609L105.609 128.8H98.9639L98.9639 238.312Z" fill="#184655"/>
<path d="M97.6776 126.16H155.152C157.353 126.16 159.135 124.322 159.135 122.045V119.601C159.135 117.324 157.353 115.486 155.152 115.486H97.6776C100.298 118.452 100.361 123.006 97.7824 126.014L97.6776 126.16Z" fill="#B75742"/>
<path d="M98.558 116.719H130.439C132.64 116.719 134.422 118.557 134.422 120.834C134.422 123.11 132.64 124.948 130.439 124.948H98.558C100.046 122.421 100.046 119.246 98.558 116.719Z" fill="#FAE0B2"/>
<path d="M114.362 108.05H162.237C163.725 108.05 164.92 109.262 164.92 110.724V112.98C164.92 114.463 163.704 115.653 162.237 115.653H114.362L114.383 115.632C116.437 113.523 116.416 110.16 114.362 108.05Z" fill="#F47458"/>
<path d="M115.201 109.178H140.794C142.282 109.178 143.477 110.39 143.477 111.852C143.477 113.335 142.261 114.525 140.794 114.525H115.201C116.144 112.875 116.144 110.828 115.201 109.178Z" fill="#FAE0B2"/>
<path d="M250.671 90.1287C247.065 85.5753 239.415 88.4577 242.265 103.559C242.286 103.643 243.062 115.423 242.706 119.977C239.079 119.141 232.456 116.948 227.614 116.697C227.614 116.697 221.703 110.953 219.376 109.909C217.657 109.136 212.983 109.533 212.983 109.533C212.983 109.533 206.171 113.126 206.695 114.274C207.407 115.862 211.348 111.371 213.486 112.102C213.486 112.102 208.518 114.88 209.692 115.381C210.866 115.883 212.857 115.214 213.821 115.152C214.786 115.089 218.265 117.951 220.99 119.371C221.43 119.601 222.478 120.52 224.532 121.648C226.608 122.776 228.788 124.697 231.638 125.867C239.268 129 247.757 133.157 250.671 130.922L250.65 130.88C254.045 126.953 256.686 97.7317 250.671 90.1287Z" fill="#F48C7F"/>
<path d="M320.408 99.4442C316.341 98.567 312.254 100.844 311.227 104.562L296.03 159.036C295.485 160.978 293.578 162.315 291.398 162.315H244.97C241.092 162.315 237.969 165.448 237.969 169.291C237.969 173.051 240.945 176.121 244.718 176.268L300.537 178.294C304.247 178.294 308.397 173.302 309.298 169.981L326.109 107.987C327.136 104.186 324.579 100.322 320.408 99.4442Z" fill="#13375B"/>
<path d="M245.661 238.199H248.659C251.363 219.588 251.929 197.803 248.889 169.646L241.616 169.793C246.437 197.719 247.233 219.546 245.661 238.199Z" fill="#13375B"/>
<path d="M228.048 238.552H235.908V127.807H228.048V238.552Z" fill="#184655"/>
<path d="M212.774 215.369C210.74 219.15 205.731 231.64 205.542 232.58C205.479 232.852 204.787 233.771 204.536 233.938C198.08 234.585 193.364 231.139 189.8 227.734C193.175 227.964 198.352 227.108 199.107 226.982C201.077 226.648 200.868 220.695 201.979 214.032C203.718 214.784 210.237 213.071 212.774 215.369Z" fill="#F7A491"/>
<path d="M205.563 232.475C205.039 234.564 202.817 238.407 202.377 238.303C201.874 238.178 182.841 231.368 181.206 228.653C180.2 226.982 185.399 226.899 189.591 227.107C193.175 230.512 204.473 233.018 205.563 232.475Z" fill="#355389"/>
<path d="M274.252 161.981L234.95 166.284L213.842 220.194L201.014 217.687C201.014 217.687 208.204 160.08 212.396 155.255C223.841 142.096 263.792 143.663 263.792 143.663L274.252 161.981Z" fill="#3C8F7C"/>
<path d="M240.086 218.356C239.918 220.925 239.331 224.037 239.457 227.024C239.541 229.029 240.274 231.473 240.379 231.849C240.442 232.12 240.19 233.248 240.044 233.499C234.447 236.757 228.725 235.588 224.051 233.979C227.216 232.789 229.437 230.429 230.234 229.551C231.575 228.089 230.611 223.724 228.851 217.186C230.737 217.207 236.837 217.332 240.086 218.356Z" fill="#F7A491"/>
<path d="M269.535 138.336C269.535 138.336 228.389 140.55 218.014 155.693C210.258 167.014 229.584 222.867 229.584 222.867L241.217 220.736C241.217 220.736 238.534 182.889 236.606 170.419C236.271 168.309 234.761 162.064 234.761 162.064C234.761 162.064 278.842 166.388 285.99 162.67C293.137 158.973 296.135 148.905 292.991 142.367C289.846 135.767 269.535 138.336 269.535 138.336Z" fill="#50BFA5"/>
<path d="M240.358 231.766C241.092 233.082 241.448 238.22 241.029 238.303C240.505 238.387 218.643 239.619 216.023 237.823C214.409 236.716 220.152 235.525 224.051 233.98C228.704 235.588 240.128 233.186 240.358 231.766Z" fill="#355389"/>
<path d="M246.625 79.9983C242.957 80.6459 242.727 83.591 242.727 83.591L238.975 99.1729C238.975 99.1729 238.639 105.773 239.394 108.301C240.882 113.209 243.858 115.152 248.763 116.823C255.261 119.037 257.818 124.614 260.627 127.872C265.49 133.512 261.528 140.279 261.528 140.279L274.461 144.352L293.787 141.762C293.787 141.762 295.967 138.42 288.274 119.872C281.588 103.747 265.574 76.6982 246.625 79.9983Z" fill="#F47458"/>
<path d="M256.75 238.199H259.705C263.52 210.126 262.367 178.858 258.594 150.89C258.175 147.778 260.522 144.979 263.667 144.833L308.104 142.744V139.694C308.083 139.694 270.521 137.397 253.647 136.436C250.44 136.248 247.967 139.172 248.68 142.284C249.183 144.477 249.77 147.214 250.419 150.514C255.974 178.545 259.013 209.646 256.75 238.199Z" fill="#355389"/>
<path d="M260.984 83.3824C256.812 78.829 249.434 81.7532 252.725 96.8547C252.746 96.9383 252.725 111.497 252.306 116.05C248.114 115.215 239.059 111.142 233.315 109.784C233.315 109.784 227.488 104.207 224.805 103.163C222.814 102.39 217.406 102.787 217.406 102.787C217.406 102.787 209.525 106.379 210.133 107.528C210.971 109.116 215.499 104.625 217.993 105.356C217.993 105.356 212.25 108.134 213.612 108.635C214.975 109.136 217.28 108.468 218.391 108.405C219.502 108.343 222.562 111.622 225.706 113.042C226.23 113.272 228.41 113.773 230.779 114.901C233.189 116.029 257.064 132.676 259.265 129.272C265.092 120.248 267.922 90.9854 260.984 83.3824Z" fill="#F7A491"/>
<path d="M264.589 114.024C257.861 113.146 250.482 111.162 250.482 111.162C250.482 111.162 249.288 97.648 249.225 97.1467C248.785 90.2121 247.925 85.5752 252.432 80.6249C254.57 78.2855 264.526 79.7267 266.182 88.0816C267.733 95.8308 266.098 106.818 265.05 113.689L264.987 114.086L264.589 114.024Z" fill="#B75742"/>
<path d="M243.586 54.286C244.11 49.8161 244.089 32.793 254.486 33.1481C264.861 33.5032 264.924 44.8867 273.33 31.1638C281.127 18.4643 295.506 26.673 294.165 37.1793C295.653 37.3255 297.099 37.8268 298.42 38.7041C302.968 41.7119 304.058 48.0198 300.872 52.803C300.369 53.555 300.411 54.4113 299.761 54.9962C300.076 59.7376 298.273 64.7714 293.766 69.3666C281.441 81.9199 274.713 64.9803 268.089 64.5626C261.466 64.1448 264.715 69.9933 258.363 72.8548C252.012 75.7373 247.673 73.8365 240.589 61.3668L238.891 57.9831C238.891 58.004 243.062 58.7768 243.586 54.286Z" fill="#B75742"/>
<path d="M237.591 51.2154C244.885 56.291 246.499 69.2202 239.792 75.4028C235.432 79.4132 226.817 80.1234 222.038 76.1339C214.283 69.6797 213.423 62.3692 216.169 56.6252C219.712 49.2311 231.575 47.017 237.591 51.2154Z" fill="#B75742"/>
<path d="M239.876 68.7397C239.876 68.7397 242.119 75.6952 250.042 79.7265C251.027 80.2278 238.996 99.5067 238.975 99.2769C238.933 97.794 241.05 89.1048 240.547 88.0396C239.142 85.1154 230.968 71.7893 230.968 71.7893L239.876 68.7397Z" fill="#F7A491"/>
<path d="M235.328 70.2854L230.968 71.7684C230.968 71.7893 234.552 77.6168 237.382 82.4209C238.388 81.6063 239.268 80.4157 239.981 78.7865C241.113 76.1756 241.28 73.4603 240.861 70.8911C240.149 69.5961 239.876 68.7397 239.876 68.7397L235.328 70.2854Z" fill="#F47458"/>
<path d="M223.652 55.6649C223.652 55.6649 227.551 54.0148 231.785 55.6022C236.019 57.1897 243.649 67.4662 239.708 76.4686C235.789 85.471 226.398 81.0012 222.227 75.278C218.077 69.5758 213.947 60.9703 223.652 55.6649Z" fill="#F7A491"/>
<path d="M240.547 60.7819C237.193 54.9753 233.504 51.5497 228.327 52.8865C223.149 54.2024 218.496 55.1006 218.161 61.1579L217.783 62.2022C217.783 62.2022 225.287 58.547 228.389 61.4085C231.492 64.2701 238.01 65.1891 238.891 67.1734C239.75 69.1577 241.909 72.7503 241.909 72.7503L242.287 70.5154C242.287 70.4945 243.901 66.5886 240.547 60.7819Z" fill="#B75742"/>
<path d="M232.644 64.3329C233.336 66.1293 234.929 67.1736 236.187 66.6514C237.444 66.1293 237.885 64.2494 237.193 62.4531C236.501 60.6568 234.908 59.6124 233.65 60.1346C232.393 60.6568 231.932 62.5366 232.644 64.3329Z" fill="#F7A491"/>
<path d="M187.939 238.312H195.401V128.801H187.939V238.312Z" fill="#184655"/>
<path d="M146.286 71.142C146.286 71.142 151.631 72.9383 153.811 78.557C156.745 86.1808 152.197 98.3999 153.496 101.805C154.796 105.209 160.916 108.927 160.916 108.927L174.793 104.019C174.793 104.019 169.951 94.8908 170.076 91.7577C170.223 88.6246 169.741 73.8573 163.935 71.1211H146.286V71.142Z" fill="#FAE0B2"/>
<path d="M164.585 74.275H153.392C153.245 74.275 153.119 74.1496 153.119 74.0034C153.119 73.8572 153.245 73.7319 153.392 73.7319H164.585C164.731 73.7319 164.857 73.8572 164.857 74.0034C164.857 74.1496 164.731 74.275 164.585 74.275Z" fill="#13375B"/>
<path d="M166.576 76.3843H155.089C154.943 76.3843 154.817 76.259 154.817 76.1128C154.817 75.9666 154.943 75.8413 155.089 75.8413H166.576C166.723 75.8413 166.848 75.9666 166.848 76.1128C166.848 76.259 166.723 76.3843 166.576 76.3843Z" fill="#13375B"/>
<path d="M167.121 78.7657H159.261C159.114 78.7657 158.988 78.6404 158.988 78.4942C158.988 78.348 159.114 78.2227 159.261 78.2227H167.121C167.268 78.2227 167.393 78.348 167.393 78.4942C167.393 78.6404 167.268 78.7657 167.121 78.7657Z" fill="#13375B"/>
<path d="M166.639 123.005H154.251V126.055H166.639V123.005Z" fill="#13375B"/>
<path d="M209.797 122.378H196.592V126.034H209.797V122.378Z" fill="#13375B"/>
<path d="M154.293 101.763H150.017V94.5566H153.79L154.293 101.763Z" fill="#13375B"/>
<path d="M157.165 90.1079C157.165 93.1574 154.67 95.643 151.61 95.643C148.55 95.643 146.055 93.1574 146.055 90.1079C146.055 87.0583 148.55 84.5728 151.61 84.5728C154.67 84.5728 157.165 87.0375 157.165 90.1079Z" fill="#466EB6"/>
<path d="M154.523 90.1074C154.523 91.7158 153.224 93.0108 151.61 93.0108C149.996 93.0108 148.696 91.7158 148.696 90.1074C148.696 88.4991 149.996 87.2041 151.61 87.2041C153.224 87.2041 154.523 88.4991 154.523 90.1074Z" fill="#13375B"/>
<path d="M161.734 83.2356C161.734 84.4471 160.749 85.4079 159.554 85.4079C158.338 85.4079 157.374 84.4262 157.374 83.2356C157.374 82.045 158.359 81.0633 159.554 81.0633C160.77 81.0424 161.734 82.0241 161.734 83.2356Z" fill="#13375B"/>
<path d="M153.769 101.533L152.721 100.092C152.784 100.05 158.653 95.7889 159.847 92.2798C161.021 88.8334 159.47 85.0528 159.449 85.0111L161.084 84.3218C161.168 84.5098 162.908 88.7708 161.524 92.8438C160.162 96.8959 154.02 101.345 153.769 101.533Z" fill="#13375B"/>
<path d="M175.945 83.2356C175.945 84.4471 174.96 85.4079 173.766 85.4079C172.55 85.4079 171.586 84.4262 171.586 83.2356C171.586 82.0451 172.55 81.0425 173.766 81.0425C174.96 81.0425 175.945 82.0242 175.945 83.2356Z" fill="#13375B"/>
<path d="M167.98 101.533L166.932 100.092C166.995 100.05 172.864 95.7889 174.059 92.2798C175.233 88.8334 173.682 85.0528 173.661 85.0111L175.296 84.3218C175.379 84.5098 177.119 88.7708 175.736 92.8438C174.373 96.8959 168.232 101.345 167.98 101.533Z" fill="#13375B"/>
<path d="M172.885 82.4209H159.973V83.507H172.885V82.4209Z" fill="#13375B"/>
<path d="M181.647 90.6297C181.647 93.3451 179.739 95.5382 177.371 95.5382C175.002 95.5382 173.095 93.3451 173.095 90.6297C173.095 87.9144 175.002 85.7212 177.371 85.7212C179.739 85.7421 181.647 87.9352 181.647 90.6297Z" fill="#466EB6"/>
<path d="M177.476 85.7627H166.911V95.7051H177.476V85.7627Z" fill="#466EB6"/>
<path d="M172.298 90.6927C172.298 93.4081 169.972 95.6012 167.1 95.6012C164.228 95.6012 161.902 93.4081 161.902 90.6927C161.902 87.9774 164.228 85.7842 167.1 85.7842C169.972 85.7842 172.298 87.9774 172.298 90.6927Z" fill="#13375B"/>
<path d="M202.293 108.175C202.293 108.739 201.245 109.199 199.946 109.199C198.646 109.199 197.598 108.739 197.598 108.175C197.598 107.611 198.646 107.152 199.946 107.152C201.245 107.152 202.293 107.611 202.293 108.175Z" fill="#13375B"/>
<path d="M207.073 110.744C207.073 111.287 206.213 111.705 205.165 111.705C204.117 111.705 203.258 111.266 203.258 110.744C203.258 110.201 204.117 109.783 205.165 109.783C206.213 109.763 207.073 110.201 207.073 110.744Z" fill="#13375B"/>
<path d="M213.088 110.744C213.088 111.287 212.229 111.705 211.181 111.705C210.133 111.705 209.273 111.266 209.273 110.744C209.273 110.201 210.133 109.783 211.181 109.783C212.229 109.763 213.088 110.201 213.088 110.744Z" fill="#13375B"/>
<path d="M210.154 108.551C210.154 109.094 209.294 109.512 208.246 109.512C207.198 109.512 206.339 109.073 206.339 108.551C206.339 108.008 207.198 107.59 208.246 107.59C209.294 107.59 210.154 108.029 210.154 108.551Z" fill="#13375B"/>
<path d="M205.689 111.12H204.725V118.243H205.689V111.12Z" fill="#13375B"/>
<path d="M202.44 113.606C203.494 113.606 204.348 113.176 204.348 112.645C204.348 112.114 203.494 111.684 202.44 111.684C201.387 111.684 200.533 112.114 200.533 112.645C200.533 113.176 201.387 113.606 202.44 113.606Z" fill="#13375B"/>
<path d="M202.943 113.042H201.979V120.164H202.943V113.042Z" fill="#13375B"/>
<path d="M200.428 108.823H199.464V115.945H200.428V108.823Z" fill="#13375B"/>
<path d="M211.705 111.1H210.74V118.222H211.705V111.1Z" fill="#13375B"/>
<path d="M208.728 109.282H207.764V116.801H208.728V109.282Z" fill="#13375B"/>
<path d="M214.451 115.611V123.82H146.537V101.637H156.871L160.875 94.4314L185.923 94.306L188.396 94.2852C187.369 108.656 200.994 119.287 214.451 115.611Z" fill="#13375B"/>
<path d="M214.451 115.611V118.138C199.317 121.794 184.959 109.784 185.944 94.306L188.417 94.2852C187.369 108.656 200.994 119.287 214.451 115.611Z" fill="#466EB6"/>
<path d="M197.933 120.144H149.975V103.664C149.975 103.434 149.786 103.246 149.556 103.246C149.325 103.246 149.137 103.434 149.137 103.664V120.541C149.137 120.771 149.325 120.959 149.556 120.959H197.913C198.143 120.959 198.332 120.771 198.332 120.541C198.332 120.332 198.143 120.144 197.933 120.144Z" fill="#466EB6"/>
<path d="M82.1665 132.76H244.886C246.479 132.76 247.778 131.465 247.778 129.877V128.896C247.778 127.308 246.479 126.013 244.886 126.013H82.1665C80.5735 126.013 79.2739 127.308 79.2739 128.896V129.877C79.2949 131.465 80.5735 132.76 82.1665 132.76Z" fill="#184655"/>
<path d="M104.741 115.11L101.597 115.402L98.7047 88.9382L99.6899 83.8208L101.87 88.6458L104.741 115.11Z" fill="#B75742"/>
<path d="M101.87 88.7083V88.6666L100.361 85.3037L99.3963 85.3873L98.7256 88.8754C99.7108 88.8754 100.843 88.9381 101.87 88.7083Z" fill="#F7CC7F"/>
<path d="M105.307 116.342L102.163 116.029L105.077 92.3635C105.182 91.5071 105.852 89.6482 106.712 89.7317C107.592 89.8153 107.676 91.7996 107.592 92.6559L105.307 116.342Z" fill="#13375B"/>
<path d="M106.565 91.9251H106.544C106.439 91.9042 106.376 91.8206 106.397 91.7162L106.816 88.3533C106.837 88.2489 106.921 88.1862 107.026 88.2071C107.131 88.228 107.194 88.3116 107.173 88.416L106.754 91.7788C106.733 91.8415 106.649 91.9251 106.565 91.9251Z" fill="#13375B"/>
<path d="M106.649 126.034H97.7614C96.336 126.034 95.1622 124.885 95.1622 123.444V103.748H109.248V123.444C109.227 124.885 108.074 126.034 106.649 126.034Z" fill="#50BFA5"/>
<path d="M103.567 123.444V103.748H95.1622V123.444C95.1622 124.865 96.3151 126.034 97.7614 126.034H100.989C102.394 126.034 103.567 124.885 103.567 123.444Z" fill="#96D9C9"/>
<path d="M205.941 96.9795L205.291 98.379C205.102 98.7549 204.704 98.9847 204.285 98.9011C203.656 98.7967 203.32 98.1283 203.593 97.5644L206.989 90.7969L209.462 91.2146L210.468 98.7132C210.552 99.3398 210.007 99.862 209.378 99.7575L209.294 99.7366C208.875 99.674 208.561 99.3398 208.519 98.922L208.33 97.3764L205.941 96.9795ZM208.309 95.9351L208.1 94.0762C208.037 93.554 207.995 92.9065 207.953 92.4052H207.932C207.722 92.8856 207.492 93.4913 207.282 93.9508L206.486 95.6427L208.309 95.9351Z" fill="#96D9C9"/>
<path d="M190.409 82.5465C190.933 82.1497 192.085 81.5022 193.196 80.9591C194.559 80.3116 195.46 80.04 196.382 80.1236C197.242 80.1654 198.08 80.604 198.499 81.4813C198.919 82.3585 198.793 83.4238 197.892 84.3637L197.912 84.3846C199.191 84.1548 200.428 84.5935 201.057 85.8676C201.476 86.7657 201.413 87.6639 201.036 88.4576C200.595 89.3767 199.547 90.2748 197.577 91.2147C196.466 91.7369 195.628 92.0502 195.083 92.2173L190.409 82.5465ZM194.433 85.2619L195.167 84.9068C196.34 84.3428 196.739 83.57 196.382 82.8389C196.026 82.087 195.271 81.9617 194.244 82.463C193.762 82.6927 193.49 82.8598 193.322 82.9851L194.433 85.2619ZM196.529 89.6273C196.76 89.5438 197.032 89.4184 197.409 89.2513C198.416 88.7709 199.128 87.9563 198.625 86.912C198.143 85.9094 197.053 85.9511 195.942 86.4733L195.188 86.8284L196.529 89.6273Z" fill="#FAE0B2"/>
<path d="M209.399 75.4451C209.587 76.0091 209.273 76.6357 208.707 76.8237C208.183 77.0117 207.491 77.1788 206.716 77.2623C202.608 77.7845 200.155 75.5078 199.715 72.1241C199.191 68.0719 201.79 65.461 205.395 65.0015C206.108 64.918 206.758 64.8971 207.282 64.9389C207.911 64.9806 208.351 65.5446 208.267 66.1712V66.213C208.204 66.7978 207.68 67.2156 207.093 67.1738C206.716 67.1529 206.276 67.1529 205.814 67.2156C203.677 67.4871 202.188 68.991 202.524 71.6228C202.838 74.0039 204.431 75.3198 206.842 75.0065C207.24 74.9647 207.659 74.8603 208.036 74.735C208.602 74.5679 209.21 74.8812 209.399 75.4451Z" fill="#FAE0B2"/>
<path d="M181.856 50.7979C183.009 50.2131 184.539 49.5864 186.216 49.0225C188.983 48.1034 190.953 48.0199 192.693 48.6047C194.579 49.2314 196.131 50.6935 196.969 53.2626C197.891 56.0406 197.514 58.2964 196.508 59.9465C195.397 61.7219 193.259 63.1005 190.408 64.0404C188.689 64.6044 187.453 64.8968 186.593 65.0639L181.856 50.7979ZM189.109 61.5757C189.402 61.5548 189.863 61.3877 190.282 61.2624C193.28 60.3016 194.684 58.0249 193.531 54.5576C192.546 51.529 190.241 50.5264 187.411 51.4454C186.677 51.6961 186.216 51.9049 185.965 52.072L189.109 61.5757Z" fill="#96D9C9"/>
<path d="M348.16 183.746C348.265 184.56 347.678 185.312 346.839 185.396C346.022 185.5 345.267 184.915 345.183 184.08C345.079 183.265 345.666 182.513 346.504 182.43C347.3 182.346 348.055 182.931 348.16 183.746Z" fill="#FAE0B2"/>
<path d="M345.917 184.727C346.483 185.584 347.804 185.103 347.699 184.08C347.636 183.557 347.154 183.161 346.63 183.223C345.896 183.328 345.54 184.142 345.917 184.727Z" fill="#F47458"/>
<path d="M355.664 186.001C355.14 186.627 355.203 187.567 355.832 188.11C356.461 188.633 357.404 188.57 357.949 187.943C358.473 187.317 358.41 186.377 357.781 185.834C357.131 185.291 356.188 185.374 355.664 186.001Z" fill="#FAE0B2"/>
<path d="M355.957 187.902C356.356 188.236 356.984 188.194 357.32 187.798C357.592 187.463 357.613 187.004 357.383 186.649C357.341 186.565 357.278 186.503 357.194 186.44C357.005 186.273 356.754 186.189 356.481 186.21C355.643 186.273 355.308 187.359 355.957 187.902Z" fill="#F47458"/>
<path d="M348.893 183.703C348.893 184.518 349.564 185.207 350.382 185.207C351.199 185.207 351.891 184.539 351.891 183.724C351.891 182.909 351.22 182.22 350.403 182.22C349.585 182.199 348.914 182.868 348.893 183.703Z" fill="#FAE0B2"/>
<path d="M350.361 184.977C351.136 184.977 351.598 184.121 351.178 183.494C350.654 182.68 349.397 183.077 349.397 184.016C349.397 184.539 349.816 184.956 350.361 184.977Z" fill="#F47458"/>
<path d="M342.249 186.272C342.773 186.899 343.716 186.982 344.366 186.46C344.995 185.938 345.079 184.998 344.555 184.351C344.031 183.724 343.087 183.64 342.438 184.163C341.809 184.685 341.725 185.646 342.249 186.272Z" fill="#FAE0B2"/>
<path d="M342.815 186.189C343.15 186.607 343.779 186.648 344.177 186.314C344.575 185.98 344.638 185.374 344.303 184.957C343.968 184.539 343.339 184.497 342.94 184.831C342.542 185.165 342.479 185.771 342.815 186.189Z" fill="#F47458"/>
<path d="M353.589 203.504C353.211 202.773 353.526 201.875 354.259 201.499C354.993 201.123 355.894 201.437 356.272 202.168C356.649 202.899 356.335 203.797 355.601 204.173C354.846 204.528 353.945 204.235 353.589 203.504Z" fill="#FAE0B2"/>
<path d="M353.945 203.108C354.218 203.526 354.742 203.652 355.182 203.443C355.706 203.192 355.874 202.545 355.559 202.043C355.287 201.626 354.763 201.5 354.323 201.709C353.798 201.981 353.631 202.628 353.945 203.108Z" fill="#F47458"/>
<path d="M358.599 198.45C357.844 198.115 357.488 197.238 357.823 196.486C358.158 195.734 359.039 195.379 359.793 195.713C360.548 196.048 360.904 196.925 360.569 197.677C360.234 198.429 359.353 198.763 358.599 198.45Z" fill="#FAE0B2"/>
<path d="M358.096 197.51C358.515 198.136 359.479 198.074 359.793 197.364C360.003 196.883 359.772 196.298 359.29 196.089C358.41 195.734 357.572 196.716 358.096 197.51Z" fill="#F47458"/>
<path d="M359.185 191.348C358.389 191.578 357.55 191.139 357.32 190.346C357.089 189.552 357.529 188.716 358.326 188.487C359.122 188.257 359.961 188.696 360.191 189.489C360.422 190.283 359.982 191.119 359.185 191.348Z" fill="#FAE0B2"/>
<path d="M359.332 190.492C359.458 190.262 359.479 190.012 359.416 189.761C359.164 188.946 358.032 188.821 357.634 189.573C357.508 189.803 357.487 190.053 357.55 190.304C357.802 191.14 358.934 191.265 359.332 190.492Z" fill="#F47458"/>
<path d="M358.263 199.118C357.55 198.7 356.628 198.951 356.209 199.661C355.789 200.371 356.041 201.29 356.754 201.708C357.466 202.126 358.388 201.875 358.808 201.165C359.227 200.455 358.975 199.536 358.263 199.118Z" fill="#FAE0B2"/>
<path d="M357.508 201.166C358.346 200.958 358.493 199.83 357.739 199.391C357.277 199.12 356.691 199.287 356.418 199.746C355.999 200.498 356.691 201.375 357.508 201.166Z" fill="#F47458"/>
<path d="M355.056 185.542C354.595 186.231 353.673 186.419 352.981 185.959C352.289 185.5 352.101 184.581 352.562 183.891C353.023 183.202 353.945 183.014 354.637 183.474C355.329 183.933 355.517 184.852 355.056 185.542Z" fill="#FAE0B2"/>
<path d="M353.148 185.793C353.589 186.085 354.197 185.96 354.49 185.521C354.783 185.082 354.658 184.477 354.218 184.184C353.777 183.892 353.169 184.017 352.876 184.456C352.666 184.769 352.666 185.187 352.876 185.521C352.876 185.563 352.96 185.688 353.148 185.793Z" fill="#F47458"/>
<path d="M359.353 192.079C358.536 192.225 357.991 192.998 358.137 193.813C358.284 194.627 359.06 195.17 359.877 195.024C360.695 194.878 361.24 194.105 361.093 193.29C360.946 192.497 360.171 191.954 359.353 192.079Z" fill="#FAE0B2"/>
<path d="M359.479 194.523C360.171 194.398 360.506 193.625 360.129 193.04C359.919 192.727 359.542 192.56 359.143 192.622C358.619 192.706 358.263 193.207 358.347 193.729C358.452 194.273 358.955 194.607 359.479 194.523Z" fill="#F47458"/>
<path d="M344.303 186.481L344.072 186.627L353.966 201.687L354.196 201.541L349.795 194.815L356.272 199.619L356.439 199.389L349.69 194.397L357.739 196.841L357.823 196.57L350.109 194.23L358.158 193.75L358.137 193.478L349.753 193.98L357.487 190.7L357.383 190.45L349.962 193.604L355.831 188.089L355.643 187.881L349.543 193.625L353.337 186.168L353.086 186.042L349.438 193.207L350.361 185.228L350.088 185.186L349.124 193.499L347.217 185.353L346.944 185.416L348.768 193.249L344.303 186.481Z" fill="#F47458"/>
<path d="M349.369 193.115L317.703 213.787L318.369 214.8L350.035 194.128L349.369 193.115Z" fill="#F47458"/>
<path d="M332.9 145.584C333.718 146.712 333.466 148.3 332.313 149.114C331.182 149.929 329.589 149.678 328.771 148.529C327.954 147.401 328.205 145.814 329.358 144.999C330.511 144.185 332.083 144.435 332.9 145.584Z" fill="#FAE0B2"/>
<path d="M330.427 148.863C331.957 149.657 333.529 147.861 332.523 146.461C331.999 145.73 330.972 145.542 330.238 146.085C329.232 146.817 329.358 148.3 330.427 148.863Z" fill="#F47458"/>
<path d="M345.875 142.764C345.602 144.143 346.504 145.459 347.866 145.73C349.25 146.002 350.57 145.104 350.843 143.746C351.115 142.367 350.214 141.051 348.851 140.78C347.489 140.508 346.147 141.407 345.875 142.764Z" fill="#FAE0B2"/>
<path d="M347.887 145.354C348.767 145.521 349.648 144.957 349.815 144.059C349.962 143.349 349.606 142.639 348.977 142.304C348.83 142.221 348.684 142.179 348.537 142.137C348.097 142.054 347.677 142.137 347.3 142.388C346.084 143.203 346.483 145.062 347.887 145.354Z" fill="#F47458"/>
<path d="M333.99 144.895C334.661 146.127 336.212 146.566 337.428 145.897C338.664 145.229 339.105 143.683 338.434 142.472C337.763 141.239 336.212 140.801 334.996 141.469C333.76 142.138 333.299 143.683 333.99 144.895Z" fill="#FAE0B2"/>
<path d="M337.176 145.584C338.329 144.957 338.287 143.307 337.155 142.701C335.709 141.929 334.179 143.537 334.955 144.936C335.395 145.73 336.38 146.023 337.176 145.584Z" fill="#F47458"/>
<path d="M326.235 154.148C327.534 154.649 329.002 154.001 329.526 152.706C330.029 151.411 329.379 149.949 328.079 149.427C326.78 148.926 325.312 149.573 324.788 150.868C324.285 152.163 324.935 153.646 326.235 154.148Z" fill="#FAE0B2"/>
<path d="M327.01 153.542C327.849 153.876 328.813 153.458 329.127 152.602C329.463 151.766 329.044 150.826 328.184 150.492C327.346 150.158 326.382 150.576 326.067 151.432C325.753 152.267 326.151 153.207 327.01 153.542Z" fill="#F47458"/>
<path d="M357.194 170.398C356.041 169.604 355.748 168.038 356.523 166.889C357.299 165.74 358.892 165.448 360.045 166.221C361.198 167.014 361.491 168.581 360.716 169.73C359.94 170.899 358.368 171.192 357.194 170.398Z" fill="#FAE0B2"/>
<path d="M357.425 169.52C358.158 169.896 359.081 169.688 359.542 168.998C360.087 168.205 359.814 167.098 358.955 166.638C358.221 166.262 357.32 166.471 356.838 167.16C356.272 167.954 356.544 169.061 357.425 169.52Z" fill="#F47458"/>
<path d="M360.485 158.806C359.081 158.952 357.844 157.928 357.718 156.529C357.571 155.129 358.598 153.897 360.003 153.772C361.407 153.626 362.644 154.649 362.77 156.048C362.895 157.427 361.868 158.68 360.485 158.806Z" fill="#FAE0B2"/>
<path d="M358.976 157.845C360.129 158.451 361.491 157.532 361.365 156.236C361.281 155.338 360.464 154.691 359.563 154.774C357.949 154.941 357.53 157.093 358.976 157.845Z" fill="#F47458"/>
<path d="M355.517 147.819C354.532 148.822 352.939 148.843 351.933 147.861C350.927 146.879 350.906 145.292 351.891 144.289C352.876 143.287 354.469 143.266 355.475 144.247C356.46 145.229 356.481 146.837 355.517 147.819Z" fill="#FAE0B2"/>
<path d="M355.035 146.44C355.035 146.002 354.847 145.605 354.532 145.291C353.484 144.268 351.723 145.02 351.744 146.482C351.744 146.921 351.933 147.317 352.248 147.631C353.275 148.654 355.035 147.902 355.035 146.44Z" fill="#F47458"/>
<path d="M360.527 160.08C359.122 160.059 357.969 161.166 357.927 162.545C357.906 163.944 359.017 165.093 360.401 165.135C361.805 165.155 362.958 164.048 363 162.67C363.042 161.27 361.931 160.101 360.527 160.08Z" fill="#FAE0B2"/>
<path d="M361.113 163.714C362.161 162.712 361.47 160.936 360.023 160.894C359.122 160.874 358.367 161.584 358.346 162.503C358.305 163.965 360.065 164.717 361.113 163.714Z" fill="#F47458"/>
<path d="M344.617 142.597C344.513 143.997 343.297 145.041 341.892 144.916C340.488 144.811 339.44 143.6 339.566 142.2C339.671 140.801 340.886 139.756 342.291 139.882C343.674 139.986 344.722 141.219 344.617 142.597Z" fill="#FAE0B2"/>
<path d="M341.997 144.539C342.899 144.602 343.695 143.934 343.758 143.035C343.821 142.137 343.15 141.344 342.249 141.281C341.348 141.218 340.551 141.887 340.488 142.785C340.446 143.432 340.782 144.059 341.368 144.351C341.41 144.393 341.62 144.518 341.997 144.539Z" fill="#F47458"/>
<path d="M356.377 148.78C355.287 149.657 355.119 151.245 355.978 152.331C356.859 153.417 358.452 153.584 359.542 152.728C360.632 151.85 360.799 150.263 359.94 149.177C359.06 148.07 357.466 147.903 356.377 148.78Z" fill="#FAE0B2"/>
<path d="M358.556 152.289C359.478 151.558 359.332 150.117 358.305 149.574C357.718 149.261 357.026 149.344 356.502 149.741C355.789 150.305 355.685 151.328 356.25 152.038C356.816 152.749 357.843 152.853 358.556 152.289Z" fill="#F47458"/>
<path d="M329.442 152.79L329.211 153.208L356.272 167.411L356.502 166.993L344.45 160.623L357.97 162.44L358.033 161.96L343.926 160.08L357.844 157.114L357.739 156.654L344.387 159.495L355.916 152.226L355.664 151.829L343.653 159.411L352.394 148.237L352.017 147.944L343.632 158.68L347.762 145.709L347.301 145.563L342.983 159.077L342.459 144.916L341.977 144.936L342.48 158.534L337.281 145.96L336.841 146.148L342.249 159.265L332.712 148.738L332.356 149.051L341.494 159.14L329.442 152.79Z" fill="#F47458"/>
<path d="M342.432 158.433L312.549 214.942L314.366 215.896L344.249 159.387L342.432 158.433Z" fill="#F47458"/>
<path d="M315.859 216.579C315.859 216.579 295.107 201.227 292.257 194.606C289.406 187.985 295.275 188.737 295.275 188.737C295.275 188.737 286.891 176.893 289.113 172.988C291.334 169.082 295.967 174.074 295.967 174.074C295.967 174.074 292.068 158.053 295.464 157.176C301.752 155.526 306.929 172.758 306.929 172.758C306.929 172.758 306.468 165.593 310.409 166.575C316.362 168.037 313.218 183.431 313.218 183.431C313.218 183.431 315.104 180.695 318.374 183.306C324.222 187.922 315.859 216.579 315.859 216.579Z" fill="#466EB6"/>
<path d="M319.254 183.661C315.984 181.071 313.217 183.39 313.217 183.39C313.217 183.39 316.361 167.996 310.409 166.534C306.468 165.573 306.929 172.716 306.929 172.716C306.929 172.716 301.752 155.484 295.464 157.134L316.005 216.496C316.948 212.82 324.704 188.027 319.254 183.661Z" fill="#355389"/>
<path d="M315.838 216.037C315.838 216.037 294.563 216.016 290.182 212.34C285.801 208.664 291.167 208.371 291.167 208.371C291.167 208.371 281.001 203.003 281.148 199.411C281.295 195.818 284.753 196.549 284.753 196.549C284.753 196.549 277.731 190.283 279.177 187.234C281.399 182.555 291.44 191.432 291.44 191.432C291.44 191.432 290.664 187.881 293.787 187.129C298.482 186.001 303.261 199.327 303.261 199.327C303.261 199.327 301.019 193.333 304.247 194.001C310.011 195.192 315.838 216.037 315.838 216.037Z" fill="#86B1F2"/>
<path d="M316.719 217.228C316.719 217.228 335.605 201.165 337.91 194.711C340.216 188.257 334.682 189.301 334.682 189.301C334.682 189.301 341.935 177.542 339.587 173.949C337.239 170.357 333.886 172.487 333.886 172.487C333.886 172.487 335.856 159.934 332.586 159.286C326.487 158.096 322.63 174.806 322.63 174.806C322.63 174.806 322.63 167.975 318.941 169.124C313.365 170.858 317.306 185.333 317.306 185.333C317.306 185.333 315.252 179.923 312.317 182.596C307.014 187.359 316.719 217.228 316.719 217.228Z" fill="#355389"/>
<path d="M311.017 181.406C314.434 179.359 316.488 182.095 316.488 182.095C316.488 182.095 313.365 170.837 318.94 169.103C322.63 167.954 322.63 174.785 322.63 174.785C322.63 174.785 326.507 158.075 332.586 159.265L316.656 216.977C315.545 213.51 306.951 183.85 311.017 181.406Z" fill="#466EB6"/>
<path d="M318.626 214.909C318.626 214.909 339.377 214.909 342.249 214.575C345.141 214.24 341.955 211.671 341.955 211.671C341.955 211.671 348.411 211.901 349.396 210.335C350.381 208.768 347.74 208.162 347.74 208.162C347.74 208.162 354.175 206.303 353.861 204.946C353.295 202.418 346.189 204.068 346.189 204.068C346.189 204.068 348.83 202.794 347.761 201.604C346.147 199.807 339.251 204.674 339.251 204.674C339.251 204.674 341.85 199.786 340.32 199.181C337.553 198.074 318.626 214.909 318.626 214.909Z" fill="#9BC1F9"/>
<path d="M333.592 238.177H299.069C294.668 234.167 291.985 228.674 292.089 222.616C292.131 219.567 292.76 216.893 294.081 214.282L338.581 214.784C339.817 217.436 340.467 220.36 340.425 223.41C340.341 229.175 337.763 234.376 333.592 238.177Z" fill="#F47458"/>
</g>
<defs>
<clipPath id="clip0">
<rect width="363" height="242" fill="white"/>
</clipPath>
</defs>
</svg>
