<svg width="1440" height="900" viewBox="0 0 1440 900" fill="none" xmlns="http://www.w3.org/2000/svg">
<g clip-path="url(#clip0)">
<path fill-rule="evenodd" clip-rule="evenodd" d="M1101.34 84.3055C1264.48 106.666 1359.14 274.934 1422.35 427.024C1487.27 583.24 1547.59 775.16 1444.06 908.966C1346.16 1035.48 1152.67 963.027 993.747 980.913C849.601 997.136 698.871 1090.51 580.901 1006.11C453.385 914.88 400.391 735.166 437.119 582.685C469.491 448.286 632.253 416.841 742.817 333.883C865.359 241.938 949.595 63.5063 1101.34 84.3055Z" fill="#F8EA8C"/>
<mask id="mask0" mask-type="alpha" maskUnits="userSpaceOnUse" x="425" y="82" width="1075" height="959">
<path fill-rule="evenodd" clip-rule="evenodd" d="M1101.34 84.3055C1264.48 106.666 1359.14 274.934 1422.35 427.024C1487.27 583.24 1547.59 775.16 1444.06 908.966C1346.16 1035.48 1152.67 963.027 993.747 980.913C849.601 997.135 698.871 1090.51 580.901 1006.11C453.385 914.88 400.391 735.166 437.119 582.685C469.491 448.286 632.253 416.841 742.817 333.883C865.359 241.938 949.595 63.5063 1101.34 84.3055Z" fill="#C4C4C4"/>
</mask>
<g mask="url(#mask0)">
<path d="M1261.45 484.231C1254.63 484.189 1248.01 483.312 1243.33 476.623C1234.16 463.491 1220.16 451.695 1204.46 465.052C1195.41 472.754 1202.22 488.601 1194.42 496.225C1187.53 502.966 1178.77 501.854 1175.24 513.038C1170.06 529.496 1186.4 543.918 1191.65 558.152C1196.05 570.094 1186.15 574.647 1181.7 583.957C1178.27 591.131 1180.03 598.817 1183.77 605.678C1190.36 617.772 1204.97 627.51 1201.59 643.174C1198.76 656.244 1196.14 667.893 1207.67 677.803C1215.58 684.597 1230.25 690.784 1229.13 703.352C1228.73 707.801 1225.66 711.592 1224.81 715.978C1223.48 722.918 1227.97 729.674 1233.19 734.436C1245.07 745.276 1255.5 755.495 1264.4 769.133C1268.2 774.961 1283.42 788.119 1277.34 796.082C1288.4 781.602 1300.09 767.562 1310.13 752.336C1318.4 739.814 1330.85 721.503 1322.37 706.083C1319.73 701.29 1314.83 697.713 1313.48 692.408C1311.06 682.827 1320.47 673.945 1323.97 665.789C1329.47 652.991 1325.44 638.125 1315.76 628.517C1311.18 623.969 1306.21 618.973 1305.53 612.555C1304.8 605.548 1309.19 599.016 1311.19 592.552C1313.02 586.594 1314.17 580.255 1314.84 574.067C1315.32 569.697 1315.5 565.222 1314.47 560.951C1312.52 552.821 1305.2 548.304 1299.78 542.534C1286.88 528.802 1293.66 512.657 1288.02 496.695C1282.95 482.362 1271.96 484.288 1261.45 484.231Z" fill="#1D7E8E"/>
<path d="M1278.71 812.398C1283.5 757.494 1279.1 702.156 1268.96 648.087C1259.28 596.509 1246.59 544.748 1227.33 495.854C1220.97 479.698 1213.83 463.84 1205.71 448.489" stroke="#00A09D" stroke-width="5" stroke-miterlimit="10"/>
<path d="M1162.37 522.113C1189.39 531.652 1215.17 544.717 1238.83 560.883C1244.84 564.981 1248.18 566.235 1253.19 571.508" stroke="#00A09D" stroke-width="5" stroke-miterlimit="10"/>
<path d="M1266 630.329C1240.06 613.568 1210.65 602.211 1180.18 597.204" stroke="#00A09D" stroke-width="5" stroke-miterlimit="10"/>
<path d="M1276.25 701.149C1252.12 680.231 1222.69 665.459 1191.5 658.604" stroke="#00A09D" stroke-width="5" stroke-miterlimit="10"/>
<path d="M1251.84 569.696C1253.72 540.649 1260.96 511.957 1273.06 485.484" stroke="#00A09D" stroke-width="5" stroke-miterlimit="10"/>
<path d="M1265.67 627.932C1277.93 601.694 1295.65 578.02 1317.36 558.851" stroke="#00A09D" stroke-width="5" stroke-miterlimit="10"/>
<path d="M1277.86 703.164C1279.56 695.055 1282.53 687.217 1286.64 680.027C1291.41 671.663 1297.66 664.243 1304.03 657.011C1308.61 651.805 1313.28 646.662 1318.01 641.597" stroke="#00A09D" stroke-width="5" stroke-miterlimit="10"/>
<path d="M1345.22 584.296C1350.17 585.21 1355.09 585.492 1359.41 581.283C1367.88 573.023 1379.67 566.412 1389.21 578.27C1394.71 585.111 1387.58 595.663 1392.17 602.274C1396.24 608.117 1402.75 608.524 1403.76 617.124C1405.24 629.781 1391.4 637.979 1385.62 647.576C1380.77 655.633 1387.33 660.301 1389.26 667.668C1390.76 673.349 1388.42 678.68 1384.76 683.134C1378.3 690.998 1366.36 696.037 1366.65 707.869C1366.89 717.743 1367.18 726.557 1357.44 732.144C1350.77 735.976 1339.27 738.436 1338.34 747.709C1338.01 750.988 1339.72 754.168 1339.72 757.463C1339.73 762.679 1335.54 766.961 1331.09 769.692C1320.98 775.911 1311.99 781.879 1303.65 790.536C1300.09 794.238 1287.23 801.674 1290.54 808.295C1284.52 796.259 1277.98 784.458 1272.8 772.026C1268.54 761.802 1262.04 746.795 1270.33 736.78C1272.9 733.668 1276.96 731.752 1278.67 728.092C1281.75 721.476 1276.16 713.727 1274.75 707.331C1272.53 697.285 1277.51 687.061 1285.87 681.432C1289.82 678.769 1294.12 675.83 1295.49 671.266C1297 666.285 1294.71 660.938 1294.16 655.972C1293.65 651.393 1293.7 646.641 1294.07 642.057C1294.33 638.819 1294.81 635.551 1296.15 632.595C1298.69 626.972 1304.63 624.706 1309.36 621.27C1320.62 613.093 1317.93 600.441 1324.23 589.648C1329.87 579.962 1337.58 582.886 1345.22 584.296Z" fill="#00A09D"/>
<path d="M1287.27 819.954C1291.4 779.466 1302.25 739.934 1317.09 702.12C1331.24 666.044 1347.62 630.261 1368.35 597.454C1375.2 586.614 1382.58 576.103 1390.59 566.088" stroke="#1D7E8E" stroke-width="5" stroke-miterlimit="10"/>
<path d="M1411.84 625.489C1390.92 628.668 1370.41 634.579 1351.01 643.028C1346.09 645.169 1343.49 645.618 1339.13 648.75" stroke="#1D7E8E" stroke-width="5" stroke-miterlimit="10"/>
<path d="M1321.69 689.64C1342.82 681.072 1365.74 676.905 1388.53 677.49" stroke="#1D7E8E" stroke-width="5" stroke-miterlimit="10"/>
<path d="M1304.45 739.595C1324.85 727.763 1348.24 721.121 1371.81 720.468" stroke="#1D7E8E" stroke-width="5" stroke-miterlimit="10"/>
<path d="M1340.35 647.623C1343.01 626.293 1341.73 604.477 1336.62 583.601" stroke="#1D7E8E" stroke-width="5" stroke-miterlimit="10"/>
<path d="M1322.26 687.948C1317 667.219 1307.42 647.591 1294.32 630.684" stroke="#1D7E8E" stroke-width="5" stroke-miterlimit="10"/>
<path d="M1303 740.832C1302.89 734.718 1301.82 728.619 1299.84 722.834C1297.53 716.103 1294.02 709.858 1290.41 703.728C1287.8 699.316 1285.14 694.94 1282.4 690.612" stroke="#1D7E8E" stroke-width="5" stroke-miterlimit="10"/>
<path d="M1239.11 805.929H1340.33L1322.57 907.227H1256.87L1239.11 805.929Z" fill="#9D786A"/>
<path d="M1226.72 805.929H1352.72V777.498H1226.72V805.929Z" fill="#94624F"/>
<path opacity="0.1" d="M1337.97 819.364H1241.46L1239.11 805.929H1340.33L1337.97 819.364Z" fill="#231F20"/>
<path d="M738.313 845.795H597.974V858.593H738.313V845.795Z" fill="#94624F"/>
<path d="M729.723 640.563H608.709V661.324H729.723V640.563Z" fill="#94624F"/>
<path d="M764.984 626.413H573.442V640.568H764.984V626.413Z" fill="#9D786A"/>
<path d="M759.563 907.597H744.228L714.507 661.324H729.842L759.563 907.597Z" fill="#94624F"/>
<path d="M578.867 907.597H594.203L623.924 661.324H608.588L578.867 907.597Z" fill="#94624F"/>
<path d="M674.641 640.563H663.791V907.597H674.641V640.563Z" fill="#9D786A"/>
<path d="M678.819 539.642L678.908 532.389" stroke="#151614" stroke-miterlimit="10"/>
<path d="M692.739 540.289H665.07V619.312H692.739V540.289Z" fill="#D74034"/>
<path d="M692.739 540.289H665.07L667.347 537.694H690.374L692.739 540.289Z" fill="#EF5132"/>
<path d="M714.518 552.852L714.606 545.599" stroke="#151614" stroke-miterlimit="10"/>
<path d="M728.443 553.499H700.774V619.311H728.443V553.499Z" fill="#D74034"/>
<path d="M728.443 553.499H700.774L703.046 550.904H726.078L728.443 553.499Z" fill="#EF5132"/>
<path d="M734.647 626.157H658.308C656.914 626.157 655.786 625.029 655.786 623.635V619.317H737.169V623.635C737.169 625.024 736.041 626.157 734.647 626.157Z" fill="#0B2D4E"/>
<path d="M638.916 626.33H613.587C606.089 626.33 600.011 620.252 600.011 612.754V551.155H652.492V612.754C652.492 620.252 646.414 626.33 638.916 626.33Z" fill="#00A09D"/>
<path d="M656.152 568.161C643.568 568.161 633.365 578.51 633.365 591.282C633.365 604.054 643.568 614.403 656.152 614.403C668.736 614.403 678.939 604.049 678.939 591.282C678.939 578.51 668.741 568.161 656.152 568.161ZM656.152 606.158C648.053 606.158 641.49 599.496 641.49 591.282C641.49 583.069 648.053 576.406 656.152 576.406C664.251 576.406 670.814 583.069 670.814 591.282C670.814 599.496 664.251 606.158 656.152 606.158Z" fill="#00A09D"/>
<path opacity="0.2" d="M607.858 597.799C606.297 597.799 605.022 596.525 605.022 594.963V558.381C605.022 556.82 606.302 555.546 607.858 555.546C609.419 555.546 610.693 556.825 610.693 558.381V594.963C610.693 596.519 609.414 597.799 607.858 597.799Z" fill="#FAFBFE"/>
<path d="M640.367 551.16V613.04C640.367 620.382 634.414 626.329 627.078 626.329H639.197C646.539 626.329 652.486 620.377 652.486 613.04V551.16H640.367Z" fill="#1D7E8E"/>
<path d="M894.144 813.646H1083.77C1136.37 813.646 1178.8 770.595 1178.03 717.998L1178.15 454.426C1177.4 402.9 1135.42 361.524 1083.88 361.524H897.987C846.455 361.524 804.474 402.9 803.722 454.426L799.879 717.998C799.112 770.6 841.542 813.646 894.144 813.646Z" fill="#66BBC4"/>
<path d="M894.144 814.962H1083.77C1136.37 814.962 1178.8 771.911 1178.03 719.314C1178.03 719.314 1178.74 569.018 1178.11 534.086C1092.62 652.176 888.316 653.366 802.558 535.412C801.811 581.288 799.879 719.314 799.879 719.314C799.112 771.911 841.542 814.962 894.144 814.962Z" fill="#66A5AF"/>
<path d="M849.855 656.129H1130.69C1132.86 656.129 1134.61 657.883 1134.61 660.045V725.371C1134.61 727.533 1132.86 729.287 1130.69 729.287H849.855C847.693 729.287 845.938 727.533 845.938 725.371V660.045C845.938 657.883 847.693 656.129 849.855 656.129Z" fill="#66BBC4"/>
<path d="M856.152 656.129H1125.05C1130.51 656.129 1134.93 660.556 1134.93 666.013H846.268C846.268 660.556 850.695 656.129 856.152 656.129Z" fill="#8ED2CC"/>
<path d="M855.823 729.287H1124.73C1130.19 729.287 1134.61 724.86 1134.61 719.403H845.938C845.938 724.86 850.366 729.287 855.823 729.287Z" fill="#66A5AF"/>
<path d="M783.327 859.781H1200.52V822.875H783.327V859.781Z" fill="#94624F"/>
<path d="M1154.64 868.332C1154.64 881.417 1165.25 892.027 1178.34 892.027C1191.42 892.027 1202.03 881.417 1202.03 868.332C1202.03 855.246 1191.42 844.636 1178.34 844.636C1165.25 844.631 1154.64 855.241 1154.64 868.332Z" fill="#94624F"/>
<path d="M1191.73 897.735C1194.86 890.338 1191.4 881.806 1184 878.68C1176.6 875.553 1168.07 879.015 1164.94 886.413C1161.82 893.811 1165.28 902.342 1172.68 905.469C1180.07 908.595 1188.61 905.133 1191.73 897.735Z" fill="#94624F"/>
<path d="M809.856 891.965C822.592 888.958 830.478 876.195 827.471 863.46C824.464 850.724 811.701 842.837 798.966 845.845C786.23 848.852 778.343 861.614 781.35 874.35C784.358 887.086 797.12 894.972 809.856 891.965Z" fill="#94624F"/>
<path d="M789.844 892.664C789.844 900.695 796.355 907.206 804.386 907.206C812.416 907.206 818.928 900.695 818.928 892.664C818.928 884.633 812.416 878.122 804.386 878.122C796.355 878.117 789.844 884.628 789.844 892.664Z" fill="#94624F"/>
<path d="M811.309 539.192C812.395 544.127 833.255 636.13 834.236 643.357C835.218 650.583 833.902 673.38 833.949 669.323C833.996 665.266 833.631 677.918 841.583 676.67C845.557 676.043 875.821 666.279 906.549 661.434C937.367 656.572 968.644 656.63 971.667 656.087C977.708 655.001 979.854 651.711 981.886 642.349C983.922 632.992 970.299 595.162 968.174 582.917C966.049 570.673 964.968 524.703 963.558 518.693C961.694 510.74 954.039 508.244 947.486 509.132C943.737 509.638 905.239 517.721 875.178 521.799C845.52 525.82 824.295 525.841 821.188 526.259C814.932 527.099 810.223 534.253 811.309 539.192Z" fill="#00A09D"/>
<path d="M811.847 539.12C812.933 544.054 833.793 636.058 834.774 643.284C835.756 650.511 834.44 673.308 834.487 669.251C834.534 665.194 834.169 677.845 842.121 676.597C846.095 675.971 876.359 666.207 907.087 661.361C937.905 656.5 969.182 656.557 972.205 656.014C978.247 654.928 980.393 651.633 982.424 642.276C983.348 638.026 981.04 627.902 978.048 616.968C913.442 649.957 830.133 642.083 829.245 525.784C825.256 525.962 822.661 526.05 821.721 526.176C815.47 527.027 810.761 534.18 811.847 539.12Z" fill="#1D7E8E"/>
<path d="M774.429 587.585H817.267C833.098 587.585 845.938 600.42 845.938 616.257V730.603H1134.61V616.257C1134.61 600.425 1147.45 587.585 1163.28 587.585H1206.12C1221.95 587.585 1234.79 600.42 1234.79 616.257V730.603L1228.2 813.646H1134.61H845.938H752.347L745.758 730.603V616.257C745.758 600.425 758.592 587.585 774.429 587.585Z" fill="#66BBC4"/>
<path d="M778.053 838.694H1203.15C1216.99 838.694 1228.2 827.484 1228.2 813.652H753.011C753.011 827.478 764.221 838.694 778.053 838.694Z" fill="#66A5AF"/>
<path d="M1177.49 454.426C1176.73 402.9 1126.24 336.482 1022.59 336.482H955.325C854.043 336.482 803.723 402.326 803.723 454.426C902.279 428.673 873.179 494.658 990.278 494.658C1107.37 494.658 1089.36 436.218 1177.49 454.426Z" fill="#8ED2CC"/>
<path d="M1198.54 684.805C1233.97 684.805 1262.69 656.086 1262.69 620.659C1262.69 585.231 1233.97 556.512 1198.54 556.512C1163.12 556.512 1134.4 585.231 1134.4 620.659C1134.4 656.086 1163.12 684.805 1198.54 684.805Z" fill="#66BBC4"/>
<path d="M1227.54 634.327C1235.07 618.293 1228.18 599.19 1212.15 591.66C1196.11 584.129 1177.01 591.022 1169.48 607.056C1161.95 623.09 1168.84 642.193 1184.88 649.723C1200.91 657.254 1220.01 650.361 1227.54 634.327Z" fill="#8ED2CC"/>
<path d="M782.006 684.805C817.433 684.805 846.152 656.086 846.152 620.659C846.152 585.231 817.433 556.512 782.006 556.512C746.579 556.512 717.859 585.231 717.859 620.659C717.859 656.086 746.579 684.805 782.006 684.805Z" fill="#66BBC4"/>
<path d="M804.68 643.339C817.207 630.813 817.206 610.504 804.68 597.977C792.154 585.451 771.845 585.451 759.319 597.977C746.792 610.504 746.792 630.813 759.319 643.339C771.845 655.865 792.154 655.865 804.68 643.339Z" fill="#8ED2CC"/>
<path d="M979.391 415.568C979.391 421.761 984.409 426.779 990.602 426.779C996.795 426.779 1001.81 421.761 1001.81 415.568C1001.81 409.375 996.795 404.357 990.602 404.357C984.409 404.357 979.391 409.38 979.391 415.568Z" fill="#66A5AF"/>
<path d="M1125.71 890.037C1109.96 889.296 1094.25 891.828 1078.67 894.35C1073.75 895.149 1068.55 897.88 1072.25 903.754C1074.28 906.981 1078.5 907.926 1082.29 908.36C1098.56 910.224 1115.27 908.161 1131.62 908.188" fill="#0B2D4E"/>
<path d="M1241.64 868.191C1244.03 882.801 1237.17 903.917 1221.22 908.188C1214.79 909.911 1207.04 909.3 1200.41 909.258C1192.33 909.211 1184.24 909.143 1176.16 909.086C1160.29 908.971 1144.41 908.856 1128.53 908.741C1118.07 908.668 1106.94 908.402 1098.21 902.632C1087.84 895.781 1082.67 883.114 1089.57 872.211C1095.49 862.844 1106.58 857.106 1117.16 854.829C1134.87 851.012 1153.27 856.072 1170.88 852.897C1173.73 852.385 1176.55 851.654 1179.35 850.641C1195.25 844.877 1211.04 836.935 1227.27 846.344C1235.06 850.866 1240.18 859.304 1241.64 868.191Z" fill="#061F33"/>
<path d="M1110.14 836.726C1107.49 833.922 1105.86 833.373 1104.26 837.363C1102.41 841.963 1101.16 846.97 1101.22 851.957C1094.58 853.346 1088.3 856.385 1082.99 860.64C1078.9 857.737 1074.05 855.91 1069.2 854.813C1065 853.868 1064.53 855.523 1065.33 859.293C1066.32 863.951 1067.91 868.446 1069.45 872.947C1070.41 875.767 1071.28 878.613 1072.26 881.422C1072.96 884.336 1074.33 887.113 1076.01 889.197C1080.64 894.961 1089.87 898.308 1097.02 899.253C1105.11 900.324 1112.78 898.256 1118.23 892.105C1123.12 886.586 1126.46 879.057 1127.73 871.83C1128.45 867.715 1128.12 863.319 1126.67 859.34C1125.05 854.876 1121.84 851.628 1119.05 847.889C1116.19 844.083 1113.41 840.193 1110.14 836.726Z" fill="#0B2D4E"/>
<path d="M1229.7 856.578C1244.94 871.083 1243.34 887.803 1234.92 902.59C1225.59 918.991 1210.21 930.097 1193.07 937.318C1172.82 945.85 1149.64 950.216 1127.96 945.099C1123.6 944.07 1118.83 941.929 1117.55 937.637C1113.75 924.938 1133.55 925.168 1140.62 924.562C1155.13 923.325 1170.51 923.179 1184.62 918.458C1200.12 913.279 1211.14 902.23 1218.89 888.09" fill="#0B2D4E"/>
<path d="M1240.74 879.955C1240.69 873.141 1238.37 866.337 1234.12 861.001C1223.34 847.44 1202.36 847.017 1187.91 854.369C1171.33 862.802 1168.71 885.124 1175.2 900.856C1175.5 901.577 1169.4 901.368 1168.88 901.405C1164.5 901.713 1155.43 900.877 1153.68 906.245C1152.51 909.843 1154.91 914.709 1158.52 915.874C1160.03 916.359 1161.65 916.364 1163.24 916.359C1174.59 916.344 1185.94 916.38 1197.29 916.401C1206.18 916.417 1212.89 914.772 1218.22 907.19C1220.99 903.243 1223.09 898.836 1226.04 895.024" fill="#0B2D4E"/>
<path d="M1108.48 884.957C1109.12 886.617 1108.08 888.565 1106.15 889.312C1104.23 890.059 1102.14 889.317 1101.5 887.662C1100.86 886.007 1101.9 884.054 1103.83 883.307C1105.76 882.555 1107.84 883.296 1108.48 884.957Z" fill="#061F33"/>
<path d="M1124.47 854.552C1124.99 855.555 1125.7 856.411 1126.33 857.361C1126.65 857.831 1126.95 858.332 1127.19 858.881C1127.43 859.439 1127.58 859.998 1127.72 860.557C1127.98 861.679 1128.14 862.812 1128.3 863.925C1128.46 865.021 1128.58 866.191 1128.64 867.329C1128.77 869.627 1128.6 871.934 1128.24 874.211C1127.86 876.488 1127.24 878.717 1126.44 880.879C1125.59 883.025 1124.56 885.098 1123.32 887.046C1122.07 888.978 1120.64 890.81 1119 892.424C1117.37 894.053 1115.58 895.494 1113.61 896.69C1112.62 897.264 1111.57 897.776 1110.45 898.079C1109.33 898.392 1108.15 898.476 1107.04 898.261C1109.32 898.235 1111.32 897.16 1113.05 895.839C1113.92 895.186 1114.74 894.444 1115.54 893.687C1115.93 893.301 1116.33 892.93 1116.7 892.523C1117.09 892.131 1117.45 891.724 1117.81 891.312C1119.23 889.651 1120.54 887.897 1121.64 886.007C1122.75 884.137 1123.71 882.169 1124.49 880.132C1126.05 876.07 1126.91 871.731 1127.01 867.35C1127.04 866.248 1126.98 865.178 1126.94 864.04C1126.89 862.922 1126.84 861.815 1126.71 860.729C1126.65 860.186 1126.57 859.643 1126.43 859.147C1126.29 858.64 1126.06 858.139 1125.83 857.638C1125.35 856.646 1124.78 855.638 1124.47 854.552Z" fill="#73B8D4"/>
<path d="M1057.08 667.976C1052.78 670.091 1048.25 671.83 1043.75 673.412C1023.63 680.471 1002.7 685.228 981.509 687.552C959.365 689.985 935.884 689.51 916.277 678.941C883.741 661.402 887.746 630.522 887.752 599.057C887.752 594.196 891.694 590.254 896.555 590.254C945.162 590.254 993.77 590.254 1042.38 590.254C1050.21 590.254 1058.93 589.162 1066.7 590.254C1071.1 590.87 1074.81 591.204 1076.78 596.18C1078.15 599.668 1077.31 607.432 1077.92 611.406C1080.23 626.22 1083.56 645.038 1072.47 657C1068.14 661.674 1062.81 665.156 1057.08 667.976Z" fill="#0B2D4E"/>
<path d="M909.761 567.644C909.118 566.198 908.476 564.72 907.792 563.196C900.691 547.317 895.49 530.587 892.336 513.481C891.198 507.315 890.044 500.563 885.329 496.428C878.807 490.705 866.109 491.436 858.031 492.517C854.256 493.023 850.313 494.324 848.032 497.373C844.257 502.427 844.632 513.837 844.486 519.925C843.583 556.94 872.844 587.544 896.675 612.523C901.265 617.332 906.241 622.194 912.601 624.141C918.956 626.084 927.028 624.063 929.806 618.027C931.848 613.594 930.595 608.393 928.981 603.788C926.203 595.872 922.021 588.619 917.264 581.737C914.047 577.095 911.933 572.553 909.761 567.644Z" fill="#F8A17A"/>
<path d="M1053.61 567.644C1054.26 566.198 1054.9 564.72 1055.58 563.196C1062.68 547.317 1067.88 530.587 1071.04 513.481C1072.18 507.315 1073.33 500.563 1078.05 496.428C1084.57 490.705 1097.27 491.436 1105.34 492.517C1109.12 493.023 1113.06 494.324 1115.34 497.373C1119.12 502.427 1118.74 513.837 1118.89 519.925C1119.79 556.94 1090.53 587.544 1066.7 612.523C1062.11 617.332 1057.13 622.194 1050.77 624.141C1044.42 626.084 1036.35 624.063 1033.57 618.027C1031.53 613.594 1032.78 608.393 1034.39 603.788C1037.17 595.872 1041.35 588.619 1046.11 581.737C1049.33 577.095 1051.44 572.553 1053.61 567.644Z" fill="#F8A17A"/>
<path d="M865.654 448.348C863.383 454.071 861.206 459.825 859.06 465.59C851.713 485.322 834.252 518.792 853.948 536.978C856.183 539.041 861.55 538.926 864.318 538.378C872.239 536.811 876.228 529.428 880.113 523.146C891.762 504.292 900.211 483.635 911.437 464.519C919.541 450.724 923.645 434.271 927.535 418.899C930.109 408.727 933.419 394.164 924.84 385.737C921.353 382.311 916.272 380.567 911.416 381.131C908.492 381.471 905.709 382.593 903.067 383.893C900.806 385.006 898.597 386.274 896.676 387.909C891.914 391.976 889.611 397.856 886.776 403.26C883.439 409.62 880.024 415.928 876.907 422.402C872.813 430.903 869.127 439.581 865.654 448.348Z" fill="#F8A17A"/>
<path d="M874.515 417.207C885.402 397.24 899.558 379.283 921.384 371.957C927.634 369.858 935.356 369.341 940.04 373.978C942.975 376.886 944.04 381.277 943.789 385.402C943.429 391.381 940.724 397.057 939.341 402.848C935.659 418.272 930.083 433.315 922.731 447.366C921.144 450.395 909.526 483.291 910.465 484.105C902.8 477.448 891.882 469.151 882.713 464.791C880.28 463.631 858.062 452.196 857.42 453.643C862.563 442.035 867.941 429.258 874.515 417.207Z" fill="#D74034"/>
<path d="M1100.24 448.348C1102.51 454.071 1104.69 459.825 1106.84 465.59C1114.18 485.322 1131.64 518.792 1111.95 536.978C1109.71 539.041 1104.35 538.926 1101.58 538.378C1093.65 536.811 1089.67 529.428 1085.78 523.146C1074.13 504.292 1065.69 483.635 1054.46 464.519C1046.36 450.724 1042.25 434.271 1038.36 418.899C1035.79 408.727 1032.48 394.164 1041.06 385.737C1044.54 382.311 1049.62 380.567 1054.48 381.131C1057.4 381.471 1060.19 382.593 1062.83 383.893C1065.09 385.006 1067.3 386.274 1069.22 387.909C1073.98 391.976 1076.29 397.856 1079.12 403.26C1082.46 409.62 1085.87 415.928 1088.99 422.402C1093.08 430.903 1096.76 439.581 1100.24 448.348Z" fill="#F8A17A"/>
<path d="M1091.28 417.207C1080.4 397.24 1066.24 379.283 1044.41 371.957C1038.16 369.858 1030.44 369.341 1025.76 373.978C1022.82 376.886 1021.76 381.277 1022.01 385.402C1022.37 391.381 1025.07 397.057 1026.46 402.848C1030.14 418.272 1035.71 433.315 1043.07 447.366C1044.65 450.395 1056.27 483.291 1055.33 484.105C1063 477.448 1073.92 469.151 1083.08 464.791C1085.52 463.631 1107.74 452.196 1108.38 453.643C1103.23 442.035 1097.85 429.258 1091.28 417.207Z" fill="#D74034"/>
<path d="M1060.31 570.527C1060.17 569.931 1060.03 569.336 1059.89 568.741C1054.74 546.455 1053.99 523.455 1054.63 500.678C1055.26 478.346 1060.24 456.374 1060.88 434.025C1061.62 408.257 1057.14 371.654 1024.89 368.678C1011.55 367.446 998.14 366.01 984.71 365.848V365.817C984.23 365.817 983.755 365.832 983.274 365.832C982.794 365.832 982.319 365.817 981.838 365.817V365.848C968.408 366.01 954.994 367.446 941.659 368.678C909.41 371.654 904.925 408.262 905.666 434.025C906.314 456.374 911.285 478.346 911.917 500.678C912.564 523.455 911.807 546.455 906.659 568.741C906.523 569.336 906.382 569.931 906.236 570.527C905.223 574.714 903.588 578.965 904.356 583.205C906.011 592.363 928.072 596.807 935.508 598.78C949.371 602.462 963.688 604.101 977.964 605.151C979.264 605.245 980.538 605.339 981.807 605.427V605.626C982.292 605.595 982.783 605.558 983.274 605.527C983.76 605.558 984.256 605.595 984.741 605.626V605.427C986.005 605.339 987.284 605.245 988.584 605.151C1002.86 604.101 1017.18 602.456 1031.04 598.78C1038.48 596.807 1060.54 592.363 1062.19 583.205C1062.96 578.959 1061.33 574.714 1060.31 570.527Z" fill="#EF5132"/>
<path d="M962.529 390.191C982.444 403.333 1021.2 393.141 1010.22 367.075C1008.89 363.911 1007.26 360.851 1006.37 357.551C1004.9 352.073 1005.05 346.434 1005.2 340.863C1005.38 334.357 1005.43 327.84 1005.78 321.345C998.505 319.982 992.6 319.303 984.867 319.585C978.47 319.82 972.079 319.23 965.688 319.559C965.171 319.585 964.618 319.632 964.252 319.935C963.887 320.238 963.819 320.713 963.777 321.157C962.921 329.939 963.761 338.832 963.088 347.63C962.712 352.554 962.038 358.183 959.793 362.746C956.336 369.769 951.193 376.291 956.148 383.92C957.772 386.405 959.96 388.488 962.529 390.191Z" fill="#F8A17A"/>
<path d="M1006.09 356.366C1004.94 351.275 1005.24 345.943 1005.38 340.784C1005.56 334.278 1005.61 327.762 1005.97 321.266C998.689 319.904 992.783 319.225 985.05 319.507C978.654 319.742 972.262 319.152 965.871 319.481C965.36 319.507 964.801 319.554 964.435 319.857C964.07 320.159 964.002 320.635 963.96 321.078C963.104 329.861 963.945 338.753 963.271 347.552C963.078 350.074 962.723 352.59 962.195 355.076C963.198 355.854 964.221 356.601 965.271 357.285C973.166 362.449 983.812 364.161 993.258 361.791C998.067 360.585 1002.2 358.799 1006.09 356.366Z" fill="#E5785C"/>
<path d="M876.165 487.139L874.348 491.441H1090.91L1088.73 486.601L876.165 487.139Z" fill="#B8D1CE"/>
<path d="M1075.96 628.287H889.208L875.831 489.254C875.591 486.763 877.517 484.601 879.987 484.601H1085.19C1087.65 484.601 1089.58 486.763 1089.34 489.254L1075.96 628.287Z" fill="#B8D1CE"/>
<path d="M1077.43 632.219H887.741L874.15 493.185C873.904 490.695 875.868 488.533 878.369 488.533H1086.79C1089.3 488.533 1091.26 490.695 1091.01 493.185L1077.43 632.219Z" fill="#FAFBFE"/>
<path d="M1077.31 632.219H887.741V640.657H1077.31V632.219Z" fill="#B8D1CE"/>
<path d="M995.74 560.377C995.74 567.64 989.85 573.53 982.586 573.53C975.323 573.53 969.433 567.64 969.433 560.377C969.433 553.113 975.323 547.223 982.586 547.223C989.85 547.223 995.74 553.113 995.74 560.377Z" fill="#B8D1CE"/>
<path d="M972.252 662.671C965.37 665.141 958.472 667.527 951.559 669.725C944.494 671.976 903.965 678.498 912.001 694.11C913.577 697.175 917.405 698.177 920.799 698.804C940.296 702.407 960.154 700.788 979.849 698.418" fill="#F8A17A"/>
<path d="M942.902 701.477C934.516 703.89 925.525 705.096 917.666 706.897C914.126 707.707 910.581 708.521 906.994 709.096C901.297 710.009 895.517 710.312 889.757 710.62C885.57 710.845 881.382 711.064 877.194 711.283C874.912 711.404 872.526 711.508 870.453 710.552C867.973 709.414 866.38 706.991 864.918 704.683C862.021 700.109 858.585 695.802 856.167 690.935C854.585 687.75 852.935 684.638 854.669 681.14C855.52 679.427 856.872 678.012 858.256 676.696C860.031 675.004 861.921 673.406 864.052 672.19C871.059 668.19 878.494 669.95 885.935 671.459C893.804 673.057 901.673 674.889 909.714 675.365C918.371 675.876 927.003 674.801 935.597 673.908" fill="#D5EFF7"/>
<path d="M913.531 712.197C914.857 712.109 916.183 712.025 917.51 711.941C920.637 711.748 924.532 711.388 926.95 709.158C927.326 708.814 927.676 708.417 927.864 707.942C928.334 706.767 927.686 705.378 926.673 704.621C925.66 703.864 924.371 703.603 923.117 703.409C924.564 703.629 926.767 698.224 927.013 697.227C927.686 694.512 928.02 691.316 927.754 688.523C927.504 685.876 926.83 683.338 925.081 681.301C924.188 680.257 921.076 677.077 919.457 677.547C920.862 677.14 921.572 675.385 921.149 673.986C920.726 672.587 919.436 671.584 918.047 671.125C916.658 670.665 915.165 670.665 913.703 670.686C906.017 670.796 898.216 671.328 890.624 669.84C883.893 668.519 877.596 668.128 870.698 668.681C865.56 669.099 860.522 670.456 855.812 672.545C854.533 673.114 853.295 673.824 852.141 674.649C836.738 685.667 848.288 705.039 861.754 711.388C871.717 716.082 881.92 714.813 892.478 713.863C899.521 713.221 906.492 712.667 913.531 712.197Z" fill="#D74034"/>
<path d="M1018.59 328.055C1012.55 335.339 1004.1 340.142 995.718 344.539C993.66 345.62 991.572 346.695 989.311 347.223C982.377 348.841 975.375 345.082 969.589 340.931C961.6 335.192 954.358 328.41 948.102 320.812C941.81 313.173 938.291 304.819 934.187 295.827C930.057 286.773 929.148 277.677 930.02 267.782C930.918 257.616 925.232 248.536 927.801 238.265C929.43 231.738 933.404 225.827 938.834 221.854C941.805 219.676 945.257 218.053 948.922 217.656C957.11 216.768 964.075 222.334 972.168 222.715C980.335 223.102 988.193 220.125 996.036 218.34C1002.89 216.778 1010.4 215.922 1017.2 218.251C1024.78 220.841 1028.42 226.637 1032.61 233.341C1036.18 239.069 1041.57 243.372 1045.88 248.457C1051.65 255.272 1053.47 263.945 1051.63 272.821C1050.08 280.324 1047.17 288.031 1043.35 294.684C1040.02 300.48 1036.4 306.578 1032.49 312.071C1029.51 316.249 1026.25 319.329 1022.77 322.979C1021.25 324.551 1019.99 326.352 1018.59 328.055Z" fill="#0B2D4E"/>
<path d="M1026 293.195C1025.87 284.857 1024.64 276.962 1022.43 270.414C1012.89 242.165 977.473 235.518 956.388 256.07C932.876 278.993 942.499 333.14 967.693 351.943C974.429 356.971 983.53 358.668 991.628 356.413C1016.13 349.578 1026.41 319.24 1026 293.195Z" fill="#F8A17A"/>
<path d="M1031.79 270.32C1021.06 242.087 981.087 235.482 957.261 256.06C951.689 260.874 945.752 268.445 943.168 275.374C940.395 282.799 941.126 291.008 941.888 298.892C942.484 292.381 945.533 286.528 949.81 281.672C951.919 279.275 954.284 277.113 956.759 275.108C957.658 274.377 964.414 268.242 963.767 267.396C966.169 270.529 968.555 273.641 972.257 275.213C976.888 277.176 981.703 278.314 986.595 279.374C995.247 281.254 1002.02 283.687 1008.3 290.162C1014.1 296.146 1018.3 303.586 1021.09 311.408C1021.98 313.878 1023.48 317.684 1026.71 316.578C1027.47 316.316 1034.13 311.356 1034.2 311.011C1035.37 305.033 1035.89 298.955 1035.79 293.096C1035.65 284.763 1034.28 276.863 1031.79 270.32Z" fill="#E5785C"/>
<path d="M1012.66 287.557C1014.82 291.076 1016.14 295.039 1017.44 298.956C1019.5 305.154 1021.12 311.816 1023.76 317.764C1032.75 312.338 1038.67 299.54 1042.77 290.288C1046.4 282.08 1047.42 275.553 1044.35 266.942C1042.36 261.376 1038.54 256.431 1034.02 252.192C1020.95 239.947 1001.36 233.713 982.46 234.955C975.823 235.394 970.409 237.733 964.174 239.54C958.451 241.2 954.071 242.286 949.867 246.996C946.129 251.189 943.727 256.4 941.847 261.695C938.777 270.326 937.043 279.218 937.717 288.387C938.15 294.251 938.187 300.052 943.993 303.242C943.894 299.754 943.789 296.261 943.69 292.773C943.643 291.102 943.596 289.421 943.878 287.771C944.129 286.304 944.64 284.889 945.147 283.489C946.693 279.213 948.118 275.788 951.052 272.263C954.89 267.652 959.96 263.48 961.031 257.58C970.122 266.415 980.852 271.95 992.799 276.064C1000.38 278.67 1008.07 280.174 1012.57 287.416C1012.6 287.458 1012.63 287.51 1012.66 287.557Z" fill="#0B2D4E"/>
<path d="M1026.17 293.942C1036.99 287.885 1040.48 302.913 1038.69 310.427C1037.94 313.528 1036.75 316.562 1034.86 319.126C1032.3 322.582 1024.96 328.342 1020.66 324.634C1018.71 322.953 1018.48 320.06 1018.39 317.486C1018.17 310.578 1018.84 298.046 1026.17 293.942Z" fill="#F8A17A"/>
<path d="M947.997 293.942C937.178 287.885 933.685 302.913 935.481 310.427C936.223 313.528 937.413 316.562 939.309 319.126C941.862 322.582 949.203 328.342 953.506 324.634C955.459 322.953 955.683 320.06 955.772 317.486C956.002 310.578 955.328 298.046 947.997 293.942Z" fill="#F8A17A"/>
<path d="M932.578 269.469C932.484 265.057 929.555 261.308 927.32 257.506C923.816 251.554 922.553 244.557 923.31 237.675C924.182 229.702 929.001 222.256 935.92 218.193C940.954 215.238 947.167 214.183 952.968 215.838C958.299 217.363 962.633 221.441 967.803 222.856C979.394 226.031 991.273 216.601 1002.31 214.324C1013.22 212.069 1024.9 215.744 1030.37 226.72C1032.52 231.049 1033.47 236.067 1036.28 239.952C1040.98 246.442 1050.03 248.583 1053.76 255.736C1059.87 267.412 1047.73 284.481 1041.56 293.561" stroke="#0B2D4E" stroke-width="3" stroke-miterlimit="10"/>
<path d="M959.98 234.986C968.977 235.565 977.744 233.623 986.532 231.827C990.965 231.007 995.471 230.605 999.972 230.459C1002.23 230.391 1004.48 230.401 1006.74 230.495C1008.98 230.595 1011.27 230.699 1013.53 231.169C1018.06 232.093 1022.34 234.542 1025.15 238.369C1026.55 240.364 1026.95 242.823 1027.1 245.069C1027.26 247.335 1027.2 249.554 1027.66 251.663C1028.05 253.794 1029.17 255.653 1030.51 257.428C1031.83 259.198 1033.34 260.932 1034.37 263.005C1035.37 265.083 1035.79 267.37 1035.91 269.615C1036.04 271.871 1035.87 274.111 1035.67 276.346C1035.7 274.106 1035.74 271.86 1035.52 269.646C1035.29 267.438 1034.76 265.25 1033.71 263.339C1032.67 261.417 1031.17 259.767 1029.76 258.008C1028.35 256.269 1027.02 254.227 1026.54 251.924C1025.96 249.658 1025.98 247.356 1025.81 245.163C1025.64 242.985 1025.25 240.834 1024.02 239.137C1023.45 238.286 1022.69 237.523 1021.86 236.808C1021.05 236.098 1020.18 235.456 1019.26 234.902C1017.41 233.795 1015.35 233.07 1013.23 232.631C1011.11 232.166 1008.9 232.041 1006.68 231.921C1004.46 231.811 1002.23 231.775 1000.01 231.822C995.56 231.895 991.127 232.328 986.72 232.96C982.339 233.649 977.901 234.573 973.431 235.022C968.956 235.456 964.429 235.571 959.98 234.986Z" fill="#73B8D4"/>
<path d="M963.939 702.684C973.134 701.577 1000.68 697.384 1009.75 696.407C1055.28 691.499 1100.34 684.053 1142.51 665.292C1152.23 660.948 1162.5 653.826 1167.95 644.511C1182.26 620.011 1157.97 594.854 1132.49 600.566C1089.93 610.111 1055.12 627.833 1014.01 642.406C1007.15 644.839 994.808 650.056 987.859 652.625C981.885 654.834 961.85 660.817 955.835 662.974" fill="#0B2D4E"/>
<path d="M981.029 792.249C983.254 798.979 985.556 805.678 988 812.279C990.501 819.025 1009.74 853.889 993.002 857.079C989.718 857.706 986.663 855.377 984.157 853.163C969.751 840.417 959.13 824.278 949.173 807.809" fill="#F8A17A"/>
<path d="M968.91 837.864C972.08 845.712 976.528 853.309 979.849 860.384C981.348 863.575 982.846 866.77 984.549 869.856C987.259 874.754 990.475 879.354 993.686 883.939C996.02 887.27 998.349 890.601 1000.68 893.938C1001.95 895.755 1003.3 897.635 1005.27 898.653C1007.62 899.87 1010.43 899.64 1013.06 899.379C1018.28 898.862 1023.63 898.914 1028.79 897.854C1032.17 897.16 1035.54 896.559 1037.17 893.144C1037.97 891.468 1038.24 889.594 1038.42 887.745C1038.65 885.375 1038.75 882.978 1038.4 880.623C1037.27 872.879 1031.48 868.248 1025.89 863.465C1019.96 858.405 1013.86 853.487 1008.69 847.628C1003.13 841.321 998.798 834.078 994.344 826.977" fill="#D5EFF7"/>
<path d="M978.272 866.713C977.546 865.648 976.82 864.583 976.089 863.517C974.372 861.011 972.314 857.821 972.575 854.641C972.617 854.145 972.706 853.643 972.956 853.215C973.573 852.155 975.024 851.816 976.204 852.14C977.39 852.463 978.361 853.294 979.254 854.134C978.22 853.158 981.034 848.25 981.65 847.461C983.321 845.32 985.566 843.164 987.859 841.691C990.031 840.302 992.375 839.3 994.976 839.415C996.307 839.477 1000.59 839.952 1001.2 841.467C1000.67 840.151 1001.59 838.558 1002.91 838.047C1004.23 837.535 1005.77 837.921 1006.95 838.705C1008.13 839.493 1009.03 840.637 1009.88 841.764C1014.39 847.701 1018.64 853.983 1024.32 858.896C1029.35 863.251 1033.42 867.825 1037.11 873.433C1039.86 877.61 1041.83 882.273 1043.05 887.119C1043.38 888.434 1043.58 889.802 1043.64 891.181C1044.42 909.535 1022.72 912.286 1009.82 905.786C1000.28 900.982 995.148 892.424 989.566 883.787C985.859 878.028 982.12 872.373 978.272 866.713Z" fill="#D74034"/>
<path d="M955.418 822.507C950.77 814.821 937.513 791.267 932.84 783.748C909.384 746.028 888.154 707.148 877.288 663.71C874.797 653.685 874.108 641.587 877.967 631.854C888.133 606.284 921.874 609.808 932.735 632.694C950.87 670.916 958.133 708.109 971.557 748.231C973.797 754.93 977.186 767.472 979.379 774.323C981.259 780.208 988.658 799.094 990.605 804.979" fill="#0B2D4E"/>
</g>
</g>
<defs>
<clipPath id="clip0">
<rect width="1440" height="900" fill="white"/>
</clipPath>
</defs>
</svg>
