<svg width="166" height="160" viewBox="0 0 166 160" fill="none" xmlns="http://www.w3.org/2000/svg">
<g clip-path="url(#clip0)">
<path d="M155.352 107.92C139.643 143.537 97.7973 163.485 61.5128 158.103C55.6078 157.228 39.418 154.617 25.0858 142.314C-2.50444 118.623 -8.40943 71.7083 13.8515 38.6512C30.0531 14.5883 59.0855 0.948331 86.6817 1.63405C92.6223 1.78262 115.4 2.68547 135.417 18.5769C138.355 20.914 144.841 26.4569 150.687 35.2569C164.408 55.9198 165.589 84.7141 155.352 107.92Z" fill="url(#paint0_linear)"/>
<path d="M117.756 153.634C125.815 155.183 136.1 146.726 139.417 137.486C142.829 127.977 136.574 123.994 136.622 110.8C136.675 95.8114 144.776 93.5543 150.129 73.3486C151.34 68.7886 158.331 42.4114 149.666 37.4686C141.654 32.8971 119.144 46.0171 115.198 62.8114C112.385 74.7828 121.079 79.8114 117.761 93.76C114.848 105.994 107.186 106.171 104.254 117.977C100.676 132.349 107.18 151.594 117.756 153.634Z" fill="#BDFBF1"/>
<path d="M118.343 157.263C116.171 141.114 120.408 116.2 124.343 98.1425C128.604 78.5939 133.441 62.6454 133.489 62.4854L134.159 62.6739C134.112 62.8339 129.281 78.7596 125.026 98.2796C121.103 116.285 116.877 141.114 119.032 157.171L118.343 157.263Z" fill="#4CD7D0"/>
<path d="M119.874 152.983C109.305 147.68 105.69 129.474 111.696 123.554C115.756 119.554 121.578 123.76 127.192 119.617C134.361 114.326 129.085 104.36 134.723 91.4342C139.518 80.4342 151.025 70.0285 157.749 72.16C164.788 74.3942 168.497 90.9828 162.485 100.966C158.574 107.457 152.592 107.777 151.292 113.811C149.785 120.817 157.061 124.011 157.102 130.806C157.18 143.011 133.856 160 119.874 152.983Z" fill="#96FAE8"/>
<path d="M125.577 157.645C125.512 157.645 125.453 157.634 125.388 157.605C125.174 157.508 125.085 157.257 125.186 157.051C139.198 129.251 143.304 97.0054 143.346 96.6797C143.376 96.4511 143.589 96.2911 143.827 96.3197C144.064 96.3483 144.23 96.554 144.2 96.7826C144.159 97.1083 140.034 129.497 125.963 157.417C125.892 157.56 125.738 157.645 125.577 157.645Z" fill="#4CD7D0"/>
<path d="M154.325 105.034C154.283 105.034 154.236 105.023 154.2 104.994C154.111 104.926 154.093 104.8 154.165 104.714C158.586 99.2456 163.488 91.0342 161.725 82.9542C160.675 78.1428 157.72 75.6285 157.69 75.6057C157.607 75.5314 157.595 75.4114 157.666 75.3257C157.743 75.2457 157.868 75.2343 157.957 75.3028C158.082 75.4057 161.049 77.9257 162.129 82.8685C163.12 87.4114 162.598 94.9314 154.491 104.954C154.444 105.006 154.384 105.034 154.325 105.034Z" fill="url(#paint1_linear)"/>
<path d="M118.925 150.56C118.859 150.56 118.794 150.532 118.753 150.475C111.957 140.926 109.637 133.543 111.862 128.543C113.839 124.097 118.836 123.269 118.889 123.257C119.002 123.24 119.109 123.314 119.126 123.423C119.144 123.532 119.067 123.634 118.954 123.652C118.907 123.657 114.123 124.457 112.236 128.703C110.076 133.572 112.379 140.823 119.091 150.252C119.156 150.343 119.132 150.463 119.037 150.526C119.002 150.549 118.96 150.56 118.925 150.56Z" fill="#F0F0F0"/>
<path d="M130.61 8.57098C130.586 34.011 130.385 121.754 128.8 152.811C128.634 156.102 126.23 158.697 123.304 158.742C108.836 158.965 55.8036 159.188 32.1836 157.565C27.2638 157.228 23.4478 152.651 23.4775 147.097C23.6021 120.4 24.243 45.3138 27.608 10.9824C28.0116 6.86812 30.9551 3.65098 34.6168 3.31384C50.403 1.87384 103.726 -1.32616 124.123 0.599551C127.809 0.948123 130.616 4.41098 130.61 8.57098Z" fill="url(#paint2_linear)"/>
<path d="M123.981 16.234C124.29 36.7712 125.174 105.097 123.815 130.331C123.619 134.017 120.966 136.948 117.69 137.091C104.195 137.691 58.1835 138.668 38.4626 136.468C34.9136 136.074 32.1955 132.771 32.0947 128.748C31.5724 107.788 30.1599 44.154 31.4834 19.2112C31.697 15.234 34.5101 12.0397 38.0412 11.754C52.6523 10.5883 101.578 8.12544 118.349 9.51401C121.489 9.77687 123.928 12.6797 123.981 16.234Z" fill="#96FAE8"/>
<path d="M118.687 22.2115C118.96 40.4 119.744 100.903 118.539 123.246C118.361 126.509 116.017 129.103 113.115 129.234C101.168 129.766 60.4207 130.634 42.955 128.68C39.8097 128.331 37.4061 125.406 37.3171 121.846C36.8542 103.286 35.602 46.9372 36.777 24.8458C36.961 21.32 39.4536 18.4915 42.5811 18.2458C55.5187 17.2172 98.8477 15.0343 113.696 16.2629C116.48 16.4915 118.646 19.0629 118.687 22.2115Z" fill="#BDFBF1"/>
<path opacity="0.5" d="M94.9605 4.423C94.9427 5.20586 94.3908 5.83443 93.6964 5.863C90.2781 5.99443 80.6461 6.35443 76.3376 6.543C75.4889 6.583 74.8421 5.70872 75.026 4.77158L75.0557 4.61158C75.1803 3.97158 75.661 3.503 76.2426 3.45158C79.1565 3.21158 87.9457 2.57158 93.7498 2.92586C94.4442 2.97729 94.9783 3.64015 94.9605 4.423Z" fill="white"/>
<path d="M74.3318 49.4685C74.3318 51.0056 72.8956 52.2571 71.1211 52.2571H43.703C41.9285 52.2571 40.4923 51.0114 40.4923 49.4685V22.0742C40.4923 20.5371 41.9285 19.2856 43.703 19.2856H71.1211C72.8956 19.2856 74.3318 20.5314 74.3318 22.0742V49.4685Z" fill="url(#paint3_linear)"/>
<path d="M114.984 49.4685C114.984 51.0056 113.548 52.2571 111.773 52.2571H84.3552C82.5808 52.2571 81.1446 51.0114 81.1446 49.4685V22.0742C81.1446 20.5371 82.5808 19.2856 84.3552 19.2856H111.773C113.548 19.2856 114.984 20.5314 114.984 22.0742V49.4685Z" fill="url(#paint4_linear)"/>
<path d="M74.3318 88.3426C74.3318 89.8797 72.8956 91.1312 71.1211 91.1312H43.703C41.9285 91.1312 40.4923 89.8854 40.4923 88.3426V60.9482C40.4923 59.4111 41.9285 58.1597 43.703 58.1597H71.1211C72.8956 58.1597 74.3318 59.4054 74.3318 60.9482V88.3426Z" fill="url(#paint5_linear)"/>
<path d="M114.984 88.3426C114.984 89.8797 113.548 91.1312 111.773 91.1312H84.3552C82.5808 91.1312 81.1446 89.8854 81.1446 88.3426V60.9482C81.1446 59.4111 82.5808 58.1597 84.3552 58.1597H111.773C113.548 58.1597 114.984 59.4054 114.984 60.9482V88.3426Z" fill="url(#paint6_linear)"/>
<path d="M74.3318 127.211C74.3318 128.748 72.8956 130 71.1211 130H43.703C41.9285 130 40.4923 128.754 40.4923 127.211V99.8169C40.4923 98.2798 41.9285 97.0283 43.703 97.0283H71.1211C72.8956 97.0283 74.3318 98.274 74.3318 99.8169V127.211Z" fill="url(#paint7_linear)"/>
<path d="M114.984 127.211C114.984 128.748 113.548 130 111.773 130H84.3552C82.5808 130 81.1446 128.754 81.1446 127.211V99.8169C81.1446 98.2798 82.5808 97.0283 84.3552 97.0283H111.773C113.548 97.0283 114.984 98.274 114.984 99.8169V127.211Z" fill="url(#paint8_linear)"/>
<path d="M97.8803 45.3139C92.4916 45.3139 88.1118 41.0967 88.1118 35.9082C88.1118 30.7196 92.4916 26.5024 97.8803 26.5024C103.269 26.5024 107.649 30.7196 107.649 35.9082C107.649 41.091 103.269 45.3139 97.8803 45.3139ZM97.8803 28.0796C93.3996 28.0796 89.7498 31.5939 89.7498 35.9082C89.7498 40.2224 93.3996 43.7367 97.8803 43.7367C102.361 43.7367 106.011 40.2224 106.011 35.9082C106.011 31.5939 102.367 28.0796 97.8803 28.0796Z" fill="url(#paint9_linear)"/>
<path fill-rule="evenodd" clip-rule="evenodd" d="M94.824 39.5307V32.765C94.824 32.045 95.643 31.5936 96.2839 31.965L102.201 35.3479C102.836 35.7079 102.836 36.5879 102.201 36.9536L96.2839 40.3365C95.637 40.6965 94.824 40.2508 94.824 39.5307Z" fill="url(#paint10_linear)"/>
<path d="M89.465 80.1424H103.435C103.797 80.1424 104.118 79.9367 104.225 79.6053L108.242 66.571L112.462 66.0453C112.913 65.9882 113.227 65.5939 113.168 65.1596C113.109 64.7253 112.699 64.4224 112.248 64.4796L107.5 65.0796C107.18 65.1196 106.913 65.331 106.818 65.6339L102.824 78.5996H90.1475L88.3019 69.2167C88.2188 68.7882 87.7855 68.5082 87.3404 68.5882C86.8953 68.6682 86.6045 69.0853 86.6876 69.5139L88.6579 79.5253C88.7351 79.8967 89.0734 80.1424 89.465 80.1424Z" fill="url(#paint11_linear)"/>
<path d="M87.5779 70.1195H106.308C106.759 70.1195 107.127 69.7881 107.127 69.3481C107.127 68.9081 106.759 68.5767 106.308 68.5767H87.5779C87.1269 68.5767 86.7589 68.9081 86.7589 69.3481C86.7589 69.7881 87.1269 70.1195 87.5779 70.1195Z" fill="url(#paint12_linear)"/>
<path d="M100.177 79.4052C100.628 79.4052 101.079 79.0509 101.079 78.6166V69.4394C101.079 69.0052 100.634 68.6509 100.177 68.6509C99.7261 68.6509 99.275 69.0052 99.275 69.4394V78.6166C99.275 79.0509 99.7201 79.4052 100.177 79.4052Z" fill="url(#paint13_linear)"/>
<path d="M93.2692 79.4052C93.7202 79.4052 94.0704 79.0509 94.0704 78.6166V69.4394C94.0704 69.0052 93.7262 68.6509 93.2692 68.6509C92.8182 68.6509 92.468 69.0052 92.468 69.4394V78.6166C92.468 79.0509 92.8182 79.4052 93.2692 79.4052Z" fill="url(#paint14_linear)"/>
<path d="M88.563 75.1312H104.664C105.115 75.1312 105.483 74.7998 105.483 74.3598C105.483 73.9255 105.115 73.5884 104.664 73.5884H88.563C88.112 73.5884 87.744 73.9198 87.744 74.3598C87.744 74.7998 88.112 75.1312 88.563 75.1312Z" fill="url(#paint15_linear)"/>
<path d="M101.168 84.8226C102.079 84.8226 102.818 84.1114 102.818 83.234C102.818 82.3567 102.079 81.6455 101.168 81.6455C100.257 81.6455 99.5181 82.3567 99.5181 83.234C99.5181 84.1114 100.257 84.8226 101.168 84.8226Z" fill="url(#paint16_linear)"/>
<path d="M91.1029 84.8226C92.0141 84.8226 92.7527 84.1114 92.7527 83.234C92.7527 82.3567 92.0141 81.6455 91.1029 81.6455C90.1918 81.6455 89.4531 82.3567 89.4531 83.234C89.4531 84.1114 90.1918 84.8226 91.1029 84.8226Z" fill="url(#paint17_linear)"/>
<path d="M68.6522 42.1826C68.6522 43.4569 67.5781 44.4855 66.2606 44.4855H48.6287C47.3052 44.4855 46.237 43.4512 46.237 42.1826V29.6398C46.237 28.3655 47.3112 27.3369 48.6287 27.3369H66.2606C67.584 27.3369 68.6522 28.3712 68.6522 29.6398V42.1826ZM67.2516 29.8569C67.2516 29.4226 66.8837 29.0683 66.4327 29.0683H48.6524C48.2014 29.0683 47.8334 29.4226 47.8334 29.8569V42.3541C47.8334 42.7884 48.2014 43.1426 48.6524 43.1426H66.4327C66.8837 43.1426 67.2516 42.7884 67.2516 42.3541V29.8569Z" fill="url(#paint18_linear)"/>
<path d="M57.3288 36.1995C57.1686 36.1995 57.0083 36.1538 56.8718 36.0567L47.0025 29.3196C46.6464 29.0796 46.5633 28.6053 46.8126 28.2624C47.0618 27.9196 47.5544 27.8396 47.9105 28.0796L57.3288 34.5081L66.6166 28.1539C66.9727 27.9082 67.4652 27.9939 67.7145 28.331C67.9697 28.6739 67.8807 29.1481 67.5305 29.3881L57.7858 36.0567C57.6493 36.1538 57.489 36.1995 57.3288 36.1995Z" fill="url(#paint19_linear)"/>
<path d="M47.5782 43.9026L47.3467 42.3997L47.4535 43.154L46.7948 42.7426C46.9788 42.4626 50.5396 36.4626 52.8838 32.5026C53.0974 32.1369 53.5782 32.0111 53.958 32.2169C54.3378 32.4226 54.4684 32.8911 54.2547 33.2511C54.2547 33.2511 52.7295 35.8169 51.2043 38.3883C50.4387 39.674 49.6791 40.9597 49.1034 41.9197C47.9639 43.8397 47.9639 43.8397 47.5782 43.9026Z" fill="url(#paint20_linear)"/>
<path d="M67.0143 43.9027C66.6345 43.8456 66.6345 43.8456 65.4891 41.9256C64.9134 40.9599 64.1479 39.6799 63.3882 38.3941C61.863 35.8227 60.3378 33.257 60.3378 33.257C60.1242 32.8913 60.2548 32.4284 60.6346 32.2227C61.0144 32.017 61.4951 32.1427 61.7087 32.5084C64.0589 36.4684 67.6137 42.4627 67.7977 42.7484L67.1389 43.1599L67.0143 43.9027Z" fill="url(#paint21_linear)"/>
<path d="M70.6522 79.6513C70.6522 81.4113 69.1685 82.8398 67.3406 82.8398H50.5455C48.7177 82.8398 47.234 81.4113 47.234 79.6513V68.8741C47.234 67.1141 48.7177 65.6855 50.5455 65.6855H67.3466C69.1744 65.6855 70.6581 67.1141 70.6581 68.8741V79.6513H70.6522ZM69.2516 69.0055C69.2516 68.0284 68.4267 67.2341 67.4119 67.2341H50.6761C49.6613 67.2341 48.8364 68.0284 48.8364 69.0055V79.5313C48.8364 80.5084 49.6613 81.3027 50.6761 81.3027H67.4119C68.4267 81.3027 69.2516 80.5084 69.2516 79.5313V69.0055Z" fill="url(#paint22_linear)"/>
<path d="M67.0499 65.3542C67.0499 65.9656 66.5395 66.457 65.9045 66.457H63.1923C62.5573 66.457 62.0469 65.9656 62.0469 65.3542V65.2513C62.0469 64.6399 62.5573 64.1484 63.1923 64.1484H65.9045C66.5395 64.1484 67.0499 64.6399 67.0499 65.2513V65.3542Z" fill="url(#paint23_linear)"/>
<path d="M66.0471 70.463C66.0471 70.9144 65.6672 71.2801 65.1984 71.2801H62.2904C61.8216 71.2801 61.4418 70.9144 61.4418 70.463V70.3601C61.4418 69.9087 61.8216 69.543 62.2904 69.543H65.1984C65.6672 69.543 66.0471 69.9087 66.0471 70.3601V70.463Z" fill="url(#paint24_linear)"/>
<path d="M61.6434 74.7658C61.6434 77.4173 59.412 79.5658 56.6583 79.5658H56.2191C53.4654 79.5658 51.234 77.4173 51.234 74.7658V74.343C51.234 71.6915 53.4654 69.543 56.2191 69.543H56.6583C59.412 69.543 61.6434 71.6915 61.6434 74.343V74.7658ZM60.047 74.0858C60.047 72.2173 58.4743 70.6973 56.5277 70.6973H55.9521C54.0114 70.6973 52.4328 72.2115 52.4328 74.0858V74.6401C52.4328 76.5087 54.0055 78.0287 55.9521 78.0287H56.5277C58.4684 78.0287 60.047 76.5144 60.047 74.6401V74.0858Z" fill="url(#paint25_linear)"/>
<path d="M56.7828 123.126C56.6107 123.126 56.4386 123.12 56.2606 123.114C50.32 122.863 45.685 118.309 45.9283 112.96C46.047 110.36 47.2874 107.966 49.412 106.223C51.5247 104.492 54.2725 103.6 57.1389 103.72C63.0795 103.972 67.7145 108.526 67.4711 113.874C67.3524 116.474 66.1121 118.869 63.9875 120.612C62.0053 122.246 59.4653 123.126 56.7828 123.126ZM56.6285 105.08C54.2843 105.08 52.0707 105.846 50.3378 107.263C48.5099 108.76 47.4476 110.806 47.3527 113.017C47.145 117.612 51.1686 121.526 56.3318 121.743C58.8362 121.846 61.2338 121.074 63.0736 119.566C64.9014 118.069 65.9637 116.023 66.0646 113.812C66.2723 109.217 62.2486 105.303 57.0855 105.086C56.9312 105.086 56.7769 105.08 56.6285 105.08Z" fill="url(#paint26_linear)"/>
<path d="M59.2812 113.463C59.2812 115.052 59.1684 116.646 58.8776 118.218C58.8064 118.612 58.7174 119 58.6165 119.383C58.5156 119.772 58.3969 120.155 58.2545 120.526C58.112 120.898 57.9399 121.269 57.7144 121.606C57.6017 121.772 57.4711 121.932 57.3049 122.063C57.2218 122.126 57.1387 122.189 57.0379 122.229C56.9429 122.269 56.8361 122.298 56.7293 122.298C56.6224 122.303 56.5156 122.28 56.4147 122.24C56.3138 122.2 56.2248 122.149 56.1417 122.086C55.9756 121.96 55.845 121.8 55.7263 121.635C55.4949 121.303 55.3228 120.932 55.1744 120.56C55.026 120.189 54.9073 119.806 54.8064 119.418C54.7056 119.029 54.6165 118.64 54.5453 118.252C54.397 117.469 54.2961 116.675 54.2308 115.886C54.1655 115.092 54.1299 114.298 54.124 113.503C54.124 113.103 54.1358 112.709 54.1477 112.309C54.1655 111.909 54.1833 111.515 54.2189 111.115C54.2783 110.32 54.3732 109.532 54.5038 108.743C54.5691 108.349 54.6521 107.96 54.7471 107.572C54.8421 107.183 54.9548 106.8 55.0913 106.423C55.1625 106.235 55.2337 106.052 55.3228 105.869C55.4118 105.686 55.5067 105.509 55.6195 105.343C55.7322 105.178 55.8628 105.018 56.023 104.892C56.1061 104.829 56.1951 104.772 56.2901 104.738C56.3851 104.698 56.4919 104.68 56.5987 104.686C56.7055 104.692 56.8064 104.715 56.9014 104.755C56.9963 104.795 57.0853 104.852 57.1684 104.915C57.3287 105.04 57.4652 105.195 57.5838 105.36C57.8212 105.692 57.9993 106.052 58.1536 106.423C58.3079 106.795 58.4325 107.172 58.5453 107.555C58.6521 107.938 58.747 108.326 58.8301 108.715C59.1447 110.275 59.2752 111.869 59.2812 113.463ZM59.1565 113.463C59.1565 112.669 59.1269 111.875 59.0616 111.086C58.9963 110.298 58.8954 109.509 58.7411 108.732C58.6639 108.343 58.5749 107.955 58.474 107.572C58.3672 107.189 58.2485 106.812 58.1002 106.44C57.9518 106.075 57.7797 105.709 57.5482 105.383C57.4355 105.223 57.3049 105.069 57.1447 104.943C57.0675 104.88 56.9844 104.829 56.8895 104.783C56.8005 104.743 56.6996 104.715 56.5987 104.715C56.4978 104.709 56.3969 104.732 56.3079 104.766C56.2129 104.8 56.1299 104.858 56.0527 104.92C55.8984 105.046 55.7679 105.2 55.661 105.366C55.5542 105.532 55.4593 105.709 55.3762 105.892C55.2931 106.075 55.2219 106.258 55.1507 106.446C55.0201 106.823 54.9133 107.206 54.8242 107.589C54.7352 107.978 54.6581 108.366 54.5987 108.755C54.4741 109.538 54.391 110.326 54.3376 111.12C54.2842 111.909 54.2664 112.703 54.2664 113.498C54.2664 114.292 54.2901 115.08 54.3554 115.875C54.4148 116.663 54.5097 117.452 54.6521 118.235C54.7234 118.623 54.8064 119.012 54.9014 119.4C55.0023 119.783 55.115 120.166 55.2575 120.538C55.3999 120.909 55.5661 121.269 55.7916 121.6C55.9043 121.76 56.0349 121.915 56.1892 122.04C56.2664 122.103 56.3494 122.155 56.4444 122.189C56.5334 122.223 56.6343 122.246 56.7293 122.24C56.8302 122.24 56.9251 122.212 57.0141 122.172C57.1031 122.132 57.1862 122.075 57.2634 122.012C57.4177 121.886 57.5423 121.732 57.6551 121.566C57.8746 121.235 58.0408 120.869 58.1773 120.498C58.3138 120.126 58.4325 119.743 58.5275 119.36C58.6224 118.978 58.7055 118.589 58.7767 118.195C58.9191 117.412 59.0082 116.623 59.0734 115.835C59.1269 115.052 59.1565 114.258 59.1565 113.463Z" fill="url(#paint27_linear)"/>
<path d="M56.6996 122.532C56.575 122.532 56.4444 122.509 56.3198 122.458C56.2071 122.412 56.1002 122.349 55.9875 122.269C55.8213 122.143 55.6729 121.983 55.5246 121.766C55.3109 121.463 55.1329 121.109 54.9489 120.646C54.8124 120.292 54.6878 119.915 54.575 119.481C54.4741 119.109 54.3911 118.721 54.308 118.298C54.1655 117.549 54.0646 116.766 53.9875 115.909C53.9222 115.132 53.8866 114.321 53.8807 113.503C53.8807 113.075 53.8925 112.658 53.9044 112.303C53.9222 111.898 53.946 111.498 53.9756 111.103C54.0409 110.241 54.1359 109.458 54.2664 108.709C54.3376 108.281 54.4207 107.898 54.5097 107.521C54.6166 107.086 54.7293 106.703 54.8599 106.349C54.937 106.138 55.0142 105.949 55.0973 105.772C55.1982 105.561 55.2991 105.378 55.4118 105.218C55.5602 105.001 55.7026 104.841 55.8688 104.709C55.9756 104.623 56.0884 104.561 56.2011 104.521C56.3317 104.469 56.4682 104.446 56.6047 104.452C56.7352 104.458 56.8658 104.486 56.9964 104.538C57.1032 104.583 57.21 104.646 57.3168 104.732C57.4771 104.858 57.6254 105.018 57.7797 105.223C57.9934 105.526 58.1833 105.875 58.3732 106.332C58.5216 106.681 58.6462 107.063 58.7708 107.492C58.8776 107.863 58.9726 108.252 59.0557 108.669C59.3583 110.155 59.5067 111.721 59.5126 113.463C59.5126 115.218 59.3762 116.783 59.1032 118.258C59.026 118.681 58.937 119.069 58.842 119.441C58.7293 119.875 58.6046 120.252 58.4741 120.606C58.296 121.069 58.1121 121.429 57.9103 121.732C57.7619 121.949 57.6195 122.109 57.4593 122.241C57.3524 122.326 57.2456 122.395 57.1388 122.441C57.0023 122.498 56.8658 122.532 56.7352 122.532C56.7234 122.532 56.7115 122.532 56.6996 122.532ZM56.575 104.949C56.5157 104.949 56.4504 104.961 56.391 104.983C56.3257 105.006 56.2605 105.046 56.1952 105.098C56.0765 105.195 55.9697 105.321 55.851 105.492C55.756 105.635 55.667 105.795 55.5839 105.983C55.5127 106.143 55.4415 106.321 55.3703 106.515C55.2516 106.852 55.1448 107.218 55.0498 107.635C54.9667 107.995 54.8896 108.372 54.8243 108.789C54.7056 109.521 54.6225 110.286 54.5691 111.132C54.5216 111.852 54.4979 112.623 54.4979 113.492C54.4979 114.292 54.5216 115.086 54.581 115.852C54.6462 116.692 54.7412 117.458 54.8718 118.189C54.9489 118.601 55.0261 118.972 55.121 119.338C55.2278 119.755 55.3406 120.115 55.4712 120.446C55.6314 120.869 55.7976 121.195 55.9815 121.458C56.1002 121.629 56.213 121.749 56.3317 121.846C56.397 121.898 56.4622 121.938 56.5275 121.961C56.5928 121.989 56.6581 121.995 56.7174 121.995C56.7827 121.995 56.8421 121.978 56.9073 121.949C56.9726 121.921 57.0379 121.881 57.1032 121.823C57.2219 121.726 57.3287 121.601 57.4474 121.423C57.6254 121.155 57.7857 120.829 57.9459 120.406C58.0705 120.075 58.1833 119.709 58.2901 119.292C58.3791 118.932 58.4622 118.555 58.5334 118.143C58.664 117.418 58.7589 116.652 58.8242 115.806C58.8836 115.046 58.9132 114.252 58.9132 113.446C58.9132 112.646 58.8836 111.852 58.8183 111.092C58.7471 110.252 58.6403 109.486 58.5038 108.761C58.4266 108.355 58.3376 107.978 58.2367 107.618C58.1239 107.206 58.0052 106.846 57.8688 106.509C57.6966 106.092 57.5305 105.766 57.3406 105.498C57.2219 105.326 57.1032 105.201 56.9845 105.103C56.9192 105.052 56.848 105.006 56.7827 104.978C56.7115 104.949 56.6462 104.932 56.5869 104.932C56.5869 104.949 56.5809 104.949 56.575 104.949Z" fill="url(#paint28_linear)"/>
<path d="M63.4294 113.463C63.4235 114.486 63.287 115.514 63.0021 116.503C62.7113 117.492 62.2781 118.434 61.6846 119.286C61.3879 119.709 61.0556 120.109 60.6817 120.474C60.3078 120.84 59.8924 121.166 59.4473 121.434C58.9962 121.709 58.5155 121.926 58.0051 122.074C57.4948 122.223 56.9666 122.297 56.4384 122.303C55.9102 122.303 55.3761 122.229 54.8716 122.08C54.3613 121.932 53.8805 121.714 53.4295 121.446C52.9785 121.172 52.569 120.846 52.1892 120.486C51.8153 120.12 51.477 119.72 51.1803 119.297C50.5868 118.446 50.1536 117.497 49.8628 116.509C49.7204 116.017 49.6135 115.509 49.5423 115C49.4711 114.492 49.4355 113.977 49.4355 113.469C49.4355 112.954 49.4711 112.446 49.5423 111.937C49.6135 111.429 49.7204 110.926 49.8628 110.429C50.1536 109.44 50.5927 108.497 51.1803 107.646C51.477 107.223 51.8094 106.823 52.1892 106.457C52.5631 106.097 52.9785 105.772 53.4295 105.497C53.8805 105.229 54.3672 105.012 54.8716 104.863C55.3761 104.714 55.9102 104.64 56.4384 104.64C56.9666 104.64 57.4948 104.72 58.0051 104.869C58.5096 105.017 58.9962 105.234 59.4473 105.503C59.8983 105.777 60.3078 106.103 60.6817 106.463C61.0556 106.823 61.3879 107.223 61.6846 107.652C62.2781 108.503 62.7113 109.452 63.0021 110.434C63.287 111.412 63.4235 112.44 63.4294 113.463ZM63.2929 113.463C63.2929 112.452 63.1624 111.434 62.8834 110.457C62.6045 109.48 62.1891 108.537 61.6134 107.692C61.3226 107.269 60.9962 106.869 60.6342 106.509C60.2662 106.149 59.8627 105.817 59.4176 105.549C58.9725 105.28 58.4977 105.057 57.9933 104.914C57.4888 104.766 56.9666 104.692 56.4443 104.686C55.9221 104.686 55.3939 104.766 54.8954 104.914C54.3909 105.063 53.9162 105.28 53.4711 105.554C53.026 105.829 52.6224 106.154 52.2604 106.52C51.8924 106.886 51.566 107.28 51.2812 107.703C50.7055 108.549 50.2901 109.492 50.0111 110.469C49.8747 110.954 49.7738 111.457 49.7085 111.954C49.6432 112.457 49.6076 112.96 49.6076 113.469C49.6076 113.977 49.6432 114.48 49.7085 114.983C49.7738 115.486 49.8747 115.983 50.0171 116.469C50.296 117.446 50.7114 118.383 51.2871 119.234C51.572 119.657 51.8984 120.057 52.2663 120.417C52.6343 120.777 53.0378 121.109 53.477 121.377C53.9221 121.646 54.3969 121.863 54.9013 122.012C55.3998 122.16 55.9221 122.24 56.4503 122.24C56.9725 122.24 57.4948 122.16 57.9992 122.012C58.4977 121.863 58.9784 121.646 59.4235 121.377C59.8686 121.103 60.2722 120.777 60.6401 120.417C61.0081 120.057 61.3345 119.657 61.6193 119.234C62.195 118.389 62.6164 117.446 62.8953 116.469C63.1564 115.492 63.287 114.474 63.2929 113.463Z" fill="url(#paint29_linear)"/>
<path d="M56.4384 122.532C55.8865 122.532 55.3346 122.452 54.8004 122.297C54.2841 122.149 53.7797 121.926 53.299 121.635C52.8479 121.36 52.4147 121.023 52.0171 120.64C51.6432 120.275 51.293 119.863 50.9844 119.417C50.3969 118.572 49.9399 117.612 49.6373 116.566C49.4948 116.069 49.3821 115.549 49.3109 115.029C49.2397 114.52 49.204 113.995 49.204 113.463C49.21 112.932 49.2456 112.406 49.3168 111.898C49.388 111.378 49.5008 110.858 49.6432 110.36C49.9518 109.315 50.4088 108.355 50.9963 107.509C51.3109 107.063 51.6551 106.652 52.0349 106.286C52.4325 105.903 52.8657 105.566 53.3168 105.292C53.7916 105.006 54.296 104.783 54.8182 104.635C55.3524 104.48 55.9043 104.4 56.4503 104.4C57.0022 104.4 57.5541 104.48 58.0883 104.635C58.6046 104.783 59.109 105.006 59.5897 105.298C60.0408 105.572 60.474 105.903 60.8657 106.292C61.2396 106.658 61.5897 107.069 61.8983 107.515C62.4859 108.36 62.9369 109.32 63.2455 110.366C63.5304 111.349 63.6728 112.395 63.6847 113.463C63.6787 114.538 63.5304 115.578 63.2514 116.56C62.9428 117.606 62.4918 118.566 61.9043 119.412C61.5957 119.857 61.2455 120.275 60.8716 120.635C60.474 121.017 60.0467 121.355 59.5957 121.629C59.115 121.92 58.6105 122.143 58.0942 122.292C57.5423 122.452 56.9903 122.532 56.4384 122.532ZM56.4384 104.915C55.9399 104.915 55.4414 104.989 54.9607 105.132C54.4918 105.269 54.0349 105.475 53.5957 105.743C53.1921 105.995 52.7945 106.303 52.4266 106.675C52.0824 107.018 51.7619 107.406 51.477 107.823C50.937 108.618 50.5215 109.526 50.2367 110.52C50.1061 110.983 50.0052 111.469 49.9399 111.978C49.8747 112.463 49.8391 112.96 49.8391 113.463C49.8391 113.96 49.8747 114.463 49.9399 114.949C50.0112 115.452 50.112 115.943 50.2426 116.406C50.5275 117.4 50.9429 118.309 51.483 119.103C51.7678 119.526 52.0883 119.909 52.4325 120.252C52.8005 120.617 53.1981 120.932 53.6016 121.177C54.0349 121.44 54.4978 121.646 54.9666 121.789C55.4473 121.932 55.9458 122.006 56.4443 122.006C56.9429 122.006 57.4354 121.932 57.9221 121.789C58.3909 121.652 58.8538 121.446 59.2871 121.183C59.6906 120.937 60.0882 120.623 60.4562 120.257C60.8004 119.915 61.1209 119.532 61.4117 119.109C61.9517 118.315 62.3731 117.406 62.658 116.412C62.925 115.48 63.0556 114.492 63.0615 113.469C63.0615 112.452 62.925 111.458 62.6639 110.526C62.379 109.532 61.9636 108.623 61.4235 107.823C61.1387 107.4 60.8182 107.018 60.4681 106.675C60.1001 106.309 59.7025 105.995 59.2989 105.749C58.8598 105.48 58.4028 105.275 57.934 105.138C57.4354 104.989 56.9369 104.915 56.4384 104.915Z" fill="url(#paint30_linear)"/>
<path d="M48.2844 109.966L50.3853 109.949L52.4861 109.937L56.6879 109.932L60.8896 109.937L62.9905 109.949L65.0914 109.966C65.0973 109.966 65.0973 109.966 65.0973 109.972C65.0973 109.972 65.0973 109.978 65.0914 109.978L62.9905 109.995L60.8896 110.006L56.6879 110.012L52.4861 110.006L50.3853 109.995L48.2844 109.978C48.2785 109.978 48.2725 109.972 48.2725 109.972C48.2725 109.972 48.2785 109.966 48.2844 109.966Z" fill="url(#paint31_linear)"/>
<path d="M56.6819 110.246L50.3793 110.235L48.1775 110.212L48.0351 110.075V109.972L48.041 109.743L48.2784 109.732L52.4802 109.709L56.6819 109.703L62.9786 109.72L65.3168 109.737L65.3228 110.206L65.0795 110.212L60.8836 110.24L56.6819 110.246Z" fill="url(#paint32_linear)"/>
<path d="M50.7173 106.566C51.2158 106.56 51.7084 106.555 52.2069 106.549L53.6965 106.537C54.195 106.532 54.6876 106.532 55.1861 106.532H56.6757L59.6549 106.537L61.1445 106.549C61.643 106.555 62.1356 106.56 62.6341 106.566C62.64 106.566 62.64 106.566 62.64 106.566C62.64 106.572 62.64 106.578 62.6341 106.578C62.1356 106.583 61.643 106.589 61.1445 106.595L59.6549 106.606L56.6757 106.612H55.1861C54.6876 106.612 54.195 106.612 53.6965 106.606L52.2069 106.595C51.7084 106.589 51.2158 106.583 50.7173 106.578C50.7114 106.578 50.7054 106.572 50.7054 106.566C50.7054 106.572 50.7114 106.566 50.7173 106.566Z" fill="url(#paint33_linear)"/>
<path d="M56.6818 106.851L54.8064 106.846C54.4385 106.846 54.0705 106.846 53.7026 106.84L51.7145 106.829C51.3821 106.823 51.0498 106.823 50.7175 106.817L50.4801 106.811L50.4682 106.343L50.7115 106.332C51.032 106.326 51.3525 106.326 51.6729 106.32L53.6907 106.303C54.0409 106.303 54.391 106.297 54.7412 106.297L56.6759 106.292L61.6906 106.314C62.0052 106.32 62.3257 106.32 62.6402 106.326L62.8835 106.332L62.8716 106.8L62.6343 106.806C62.3078 106.811 61.9755 106.817 61.6432 106.817L59.6551 106.834L56.6818 106.851Z" fill="url(#paint34_linear)"/>
<path d="M47.5544 113.366L49.8393 113.349L52.1241 113.338L56.6879 113.332L61.2516 113.338L63.5365 113.349L65.8213 113.366C65.8273 113.366 65.8273 113.366 65.8273 113.372C65.8273 113.372 65.8273 113.378 65.8213 113.378L63.5365 113.395L61.2516 113.407L56.6879 113.412L52.1241 113.407L49.8393 113.395L47.5544 113.378C47.5485 113.378 47.5425 113.372 47.5425 113.366C47.5425 113.372 47.5485 113.366 47.5544 113.366Z" fill="url(#paint35_linear)"/>
<path d="M56.6819 113.646L49.8333 113.629L47.3111 113.612L47.3051 113.143L47.5484 113.132L52.1181 113.109L56.6819 113.098L63.5245 113.121L65.9103 113.138L66.0586 113.28L66.0468 113.606L65.8094 113.612L61.2456 113.64L56.6819 113.646Z" fill="url(#paint36_linear)"/>
<path d="M48.2844 116.766L50.3853 116.749L52.4861 116.738L56.6879 116.732L60.8896 116.738L62.9905 116.749L65.0914 116.766C65.0973 116.766 65.0973 116.766 65.0973 116.766C65.0973 116.772 65.0973 116.778 65.0914 116.778L62.9905 116.795L60.8896 116.807L56.6879 116.812L52.4861 116.807L50.3853 116.795L48.2844 116.778C48.2785 116.778 48.2725 116.772 48.2725 116.766C48.2725 116.766 48.2785 116.766 48.2844 116.766Z" fill="url(#paint37_linear)"/>
<path d="M56.6819 117.046L50.3793 117.029L48.1775 117.012L48.0351 116.875V116.766L48.041 116.543L48.2784 116.532L52.4802 116.509L56.6819 116.498L62.9786 116.52L65.3168 116.538L65.3228 117.006L65.0795 117.012L60.8836 117.04L56.6819 117.046Z" fill="url(#paint38_linear)"/>
<path d="M62.9431 120.206H51.0203C51.0025 120.206 50.9906 120.194 50.9906 120.177C50.9906 120.16 51.0025 120.148 51.0203 120.148H62.9431C62.9609 120.148 62.9727 120.16 62.9727 120.177C62.9727 120.189 62.9609 120.206 62.9431 120.206Z" fill="url(#paint39_linear)"/>
<path d="M62.943 120.434H51.0203C50.8719 120.434 50.7473 120.314 50.7473 120.172C50.7473 120.029 50.8719 119.909 51.0203 119.909H62.943C63.0914 119.909 63.216 120.029 63.216 120.172C63.216 120.314 63.0914 120.434 62.943 120.434Z" fill="url(#paint40_linear)"/>
<path d="M90.6994 122.349H87.4947C86.7885 122.349 86.2662 121.817 86.2662 121.132V115.212C86.2662 114.526 86.7885 113.869 87.4947 113.869H90.6994C91.3937 113.869 91.6727 114.514 91.6727 115.212V121.132C91.6667 121.829 91.3878 122.349 90.6994 122.349ZM90.4679 121.154V121.766V121.154ZM87.4947 115.217C87.4947 115.217 87.6668 115.194 87.6668 115.212V121.132C87.6668 121.149 87.5897 121.154 87.5897 121.154H90.6104C90.6104 121.149 90.4679 121.143 90.4679 121.132V115.212C90.4679 115.2 90.6638 115.217 90.6638 115.217H87.4947Z" fill="url(#paint41_linear)"/>
<path d="M96.6517 122.349H93.6488C92.9663 122.349 92.0702 121.817 92.0702 121.131V111.851C92.0702 111.166 92.9663 110.789 93.6488 110.789H96.6517C97.3224 110.789 97.6725 111.126 97.6725 111.851V121.131C97.6725 121.851 97.3224 122.349 96.6517 122.349ZM93.6844 121.194H96.539C96.539 121.194 96.6755 121.137 96.6755 121.131V111.851C96.6755 111.846 96.539 111.56 96.539 111.56H93.6844C93.6844 111.56 93.6726 111.84 93.6726 111.851V121.131C93.6726 121.137 93.6785 121.194 93.6844 121.194Z" fill="url(#paint42_linear)"/>
<path d="M104.076 121.297C104.076 121.983 103.495 122.543 102.782 122.543H99.3641C98.6519 122.543 98.0703 121.983 98.0703 121.297V108.949C98.0703 108.263 98.6519 107.703 99.3641 107.703H102.782C103.495 107.703 104.076 108.263 104.076 108.949V121.297ZM103.079 108.686C103.079 108.675 103.067 108.663 103.055 108.663H99.6964C99.6845 108.663 99.6727 108.675 99.6727 108.686V120.977C99.6727 120.989 99.6845 121 99.6964 121H103.055C103.067 121 103.079 120.989 103.079 120.977V108.686Z" fill="url(#paint43_linear)"/>
<path d="M110.681 121.103C110.681 121.789 110.1 122.349 109.388 122.349H105.969C105.257 122.349 104.676 121.789 104.676 121.103V106.246C104.676 105.56 105.257 105 105.969 105H109.388C110.1 105 110.681 105.56 110.681 106.246V121.103ZM109.281 105.8C109.281 105.789 109.269 105.777 109.257 105.777H105.898C105.886 105.777 105.874 105.789 105.874 105.8V120.594C105.874 120.606 105.886 120.617 105.898 120.617H109.257C109.269 120.617 109.281 120.606 109.281 120.594V105.8Z" fill="url(#paint44_linear)"/>
<path d="M150.515 17.9481C150.515 15.7881 148.699 14.0396 146.456 14.0396H5.05632C2.81302 14.0396 0.997009 15.7881 0.997009 17.9481V31.5253C0.997009 33.6853 2.81302 35.4338 5.05632 35.4338H146.456C148.699 35.4338 150.515 33.6853 150.515 31.5253V17.9481Z" fill="url(#paint45_linear)"/>
<path d="M14.5221 19.5826C12.718 18.0112 9.91092 18.1712 8.28482 19.9083C6.65279 21.6454 6.77148 24.3483 8.57562 25.9197C10.1661 27.3026 12.6053 27.2626 14.1423 26.194L15.3589 27.2511C15.3708 27.5654 15.4658 27.9483 15.7447 28.1883L19.7981 31.714C20.3084 32.1597 21.0799 31.9997 21.5428 31.5083L21.5725 31.4797C22.0354 30.9883 22.0236 30.3369 21.5132 29.8911L17.4479 26.3597C17.169 26.1197 16.7654 26.0683 16.5993 25.9197L15.3827 24.8626C16.3382 23.2854 16.1126 20.9654 14.5221 19.5826ZM9.3946 25.3369C8.00589 24.1254 7.89313 22.0569 9.15128 20.7197C10.4094 19.3826 12.5578 19.274 13.9465 20.4854C15.3352 21.6969 15.448 23.7654 14.1898 25.1026C12.9376 26.4397 10.7892 26.5483 9.3946 25.3369Z" fill="white"/>
<path d="M10.1899 24.2855C10.178 24.2969 10.1662 24.3084 10.1543 24.3198C10.0059 24.4398 9.78636 24.4226 9.66173 24.2798C8.84868 23.3541 8.87242 21.9827 9.72107 21.0855C9.85164 20.9484 10.0712 20.9369 10.2137 21.0627C10.3561 21.1884 10.368 21.3998 10.2374 21.5369C9.62612 22.1884 9.60831 23.1827 10.1958 23.8512C10.3086 23.9769 10.3027 24.1655 10.1899 24.2855Z" fill="white"/>
<path d="M146.112 28.3594C146.112 29.7079 144.972 30.8051 143.571 30.8051H30.5577C29.1572 30.8051 28.0177 29.7079 28.0177 28.3594V20.9193C28.0177 19.5708 29.1572 18.4736 30.5577 18.4736H143.566C144.966 18.4736 146.106 19.5708 146.106 20.9193V28.3594H146.112Z" fill="white"/>
<path d="M32.6229 28.1593C32.6229 28.4507 32.3796 28.6908 32.071 28.6908H31.9701C31.6674 28.6908 31.4182 28.4565 31.4182 28.1593V21.1193C31.4182 20.8279 31.6615 20.5879 31.9701 20.5879H32.071C32.3736 20.5879 32.6229 20.8222 32.6229 21.1193V28.1593Z" fill="url(#paint46_linear)"/>
<path d="M32.2672 158.988C30.4037 159.143 27.1693 159.394 24.6174 159.503C23.0863 159.565 22.202 159.423 21.6917 159.228C21.6917 159.285 21.6917 159.337 21.6976 159.383C21.7095 159.64 21.929 159.845 22.1961 159.863C27.015 160.12 30.8488 159.954 32.2138 159.874C32.4987 159.857 32.6648 159.56 32.5224 159.331C32.4512 159.211 32.3622 159.097 32.2672 158.988Z" fill="url(#paint47_linear)"/>
<path d="M24.617 159.502C27.1689 159.394 30.4033 159.142 32.2667 158.988C30.4329 156.822 24.617 155.365 24.617 155.365H22.9731C21.8455 156.931 21.6793 158.428 21.6912 159.228C22.2016 159.422 23.0858 159.565 24.617 159.502Z" fill="url(#paint48_linear)"/>
<path d="M22.7001 152.777L22.8544 155.708C22.8722 156.028 23.1156 156.291 23.4479 156.337C23.7743 156.383 24.2135 156.388 24.6823 156.24C24.9672 156.148 25.1808 155.914 25.2343 155.634L25.7684 152.783H22.7001V152.777Z" fill="url(#paint49_linear)"/>
<path d="M1.35841 159.479C0.551294 159.371 0.183345 158.965 0.0290436 158.537C0.0290436 158.542 0.0290436 158.542 0.0231089 158.548C-0.0955844 159.005 0.17741 159.479 0.729334 159.702C1.39402 159.977 2.12398 160.022 2.68777 159.999C3.29311 159.977 3.85097 159.731 4.15957 159.348L4.1655 159.342C3.56017 159.628 2.70558 159.662 1.35841 159.479Z" fill="url(#paint50_linear)"/>
<path d="M5.16804 152.76H3.81494C1.74968 152.72 0.455921 156.908 0.0286255 158.531C0.182927 158.965 0.544941 159.365 1.35799 159.474C2.70516 159.657 3.55975 159.622 4.17102 159.331C5.28674 157.92 5.83866 155.851 6.10572 154.64C6.40245 153.274 5.16804 152.76 5.16804 152.76Z" fill="url(#paint51_linear)"/>
<path d="M3.98808 150.04L3.23438 152.92C3.13943 153.274 3.31747 153.64 3.65574 153.805C4.0771 154.011 4.67057 154.234 5.21656 154.171C5.47175 154.142 5.6854 153.965 5.76848 153.737L6.87233 150.702L3.98808 150.04Z" fill="url(#paint52_linear)"/>
<path d="M3.09186 150.874C4.02953 151.674 7.07402 151.777 7.07402 151.777C18.0413 126.429 22.5279 122.829 22.5279 122.829C20.9433 132.394 22.2727 153.577 22.2727 153.577C24.0828 154.349 26.4151 153.577 26.4151 153.577C26.5634 137.914 29.0619 124.257 32.0174 113.486C24.605 113.326 20.6644 110.88 19.3766 109.903C13.1927 119.497 3.09186 150.874 3.09186 150.874Z" fill="url(#paint53_linear)"/>
<path d="M21.2578 80.7599C19.8572 87.497 20.3557 99.5598 20.6881 105.063C20.783 106.611 19.6614 108.754 18.7534 110.217C18.6109 110.446 18.6999 110.743 18.9433 110.863C20.4625 111.611 25.602 113.943 31.5544 114.228C31.9521 114.246 32.3081 113.988 32.409 113.617C36.8304 97.7313 41.9579 87.5827 41.9579 87.5827C36.2962 78.8627 21.2578 80.7599 21.2578 80.7599Z" fill="url(#paint54_linear)"/>
<path d="M23.2758 122.234C23.2165 122.234 23.1512 122.217 23.0918 122.183C22.9257 122.085 22.8723 121.88 22.9732 121.72C23.0325 121.628 24.4509 119.417 27.3233 118.086C27.4954 118.006 27.709 118.074 27.7921 118.246C27.8752 118.411 27.804 118.617 27.6259 118.697C24.9494 119.943 23.5844 122.051 23.5726 122.074C23.5073 122.171 23.3945 122.234 23.2758 122.234Z" fill="#96FAE8"/>
<path d="M12.457 100.097C12.908 103.234 14.2374 106.663 16.902 110.297L17.9169 109.503C17.9169 109.503 16.7477 104.937 17.4124 99.7543C15.7685 99.4458 13.8279 99.7658 12.457 100.097Z" fill="url(#paint55_linear)"/>
<path d="M22.8247 89.0741L21.258 80.7598C21.258 80.7598 10.7892 88.4684 12.4569 100.103C13.8278 99.7713 15.7684 99.4513 17.4123 99.7598C17.8871 96.0227 19.3173 91.9655 22.8247 89.0741Z" fill="url(#paint56_linear)"/>
<path d="M41.964 87.5767L37.9225 95.9596C38.5753 101.022 41.4002 103.205 44.4447 104.045C44.6346 101.737 45.2399 99.8739 45.8037 98.5881C41.9106 94.7196 41.964 87.5767 41.964 87.5767Z" fill="url(#paint57_linear)"/>
<path d="M45.7976 98.5879C45.2338 99.8793 44.6285 101.742 44.4386 104.045C52.5572 107.079 54.7055 101.194 54.7055 101.194L53.2041 100.936C49.8213 101.285 47.4534 100.234 45.7976 98.5879Z" fill="url(#paint58_linear)"/>
<path d="M38.237 77.2282L36.2844 84.1368C36.0649 84.9139 35.1925 85.3311 34.421 85.0282C33.5842 84.7082 32.5219 84.2682 31.6079 83.7939C30.6346 83.2854 30.326 82.0797 30.9432 81.1939L35.0026 75.3711L38.237 77.2282Z" fill="url(#paint59_linear)"/>
<path d="M58.4328 96.5713L8.43321 114.091C6.33827 114.828 5.33531 117.126 6.25518 119.08L6.40949 119.4C7.22847 121.131 9.35308 121.891 11.1453 121.091L59.6968 99.4684L58.4328 96.5713Z" fill="url(#paint60_linear)"/>
<path opacity="0.2" d="M81.4177 109.371C95.0494 109.371 106.1 98.9227 106.1 86.0339C106.1 73.1452 95.0494 62.6968 81.4177 62.6968C67.7861 62.6968 56.7355 73.1452 56.7355 86.0339C56.7355 98.9227 67.7861 109.371 81.4177 109.371Z" fill="white"/>
<path d="M81.4175 60.0625C66.2485 60.0625 53.9519 71.6911 53.9519 86.0282C53.9519 100.371 66.2485 111.994 81.4175 111.994C96.5865 111.994 108.883 100.365 108.883 86.0282C108.877 71.6911 96.5806 60.0625 81.4175 60.0625ZM81.4175 108.188C68.48 108.188 57.9875 98.2682 57.9875 86.0339C57.9875 73.7996 68.48 63.8796 81.4175 63.8796C94.3551 63.8796 104.848 73.7996 104.848 86.0339C104.848 98.2682 94.3551 108.188 81.4175 108.188Z" fill="url(#paint61_linear)"/>
<path d="M56.041 89.2282C55.9579 89.2282 55.8867 89.1711 55.8748 89.0911C55.7917 88.4739 55.7383 87.8511 55.7027 87.2282C55.6967 87.1425 55.768 87.0682 55.857 87.0625C55.946 87.0511 56.0231 87.1253 56.0291 87.2111C56.0588 87.8225 56.1181 88.4396 56.1953 89.0454C56.2071 89.1311 56.1418 89.2111 56.0528 89.2225C56.0528 89.2282 56.0469 89.2282 56.041 89.2282ZM56.2249 81.9711C56.2131 81.9711 56.2071 81.9711 56.1953 81.9711C56.1062 81.9539 56.0469 81.8739 56.0647 81.7882C56.3733 80.1196 56.8718 78.4796 57.5424 76.9082C61.5008 67.6682 70.8658 61.6968 81.4117 61.6968C86.3256 61.6968 91.1089 63.0111 95.2335 65.5025C95.3107 65.5482 95.3344 65.6453 95.2869 65.7196C95.2394 65.7939 95.1386 65.8168 95.0614 65.7711C90.9902 63.3139 86.2662 62.0168 81.4117 62.0168C71.0023 62.0168 61.7501 67.9082 57.8451 77.0339C57.1804 78.5825 56.6938 80.1996 56.3852 81.8454C56.3733 81.9139 56.308 81.9711 56.2249 81.9711Z" fill="#BDFBF1"/>
<path d="M42.5099 71.9824C42.5277 72.1024 40.8838 79.8624 40.8838 79.8624L36.3022 78.8624L36.7236 71.2796C36.7177 71.2853 42.2072 69.9939 42.5099 71.9824Z" fill="url(#paint62_linear)"/>
<path d="M37.7503 72.971L37.2044 76.9425C37.1984 76.9939 37.1984 77.0453 37.2044 77.0968C37.2518 77.411 37.4892 78.4682 38.6049 78.1653C39.6138 77.8911 40.5396 77.651 41.1747 77.8396C41.4595 77.9253 41.6376 78.2053 41.5723 78.4853C41.4239 79.1882 41.056 80.7711 40.5159 82.1025C40.4091 82.3711 40.1005 82.5139 39.8097 82.4339C38.9432 82.1882 37.1213 81.6282 35.7682 80.8396C35.5842 80.7311 35.4774 80.5425 35.4833 80.3368C35.5249 79.3311 35.6495 76.2853 35.5486 75.4282C35.4536 74.6282 34.4269 74.1425 33.9878 73.971C33.8394 73.9139 33.7266 73.8053 33.6673 73.6625C33.4596 73.1653 33.1807 72.0168 34.6821 71.5482C34.9967 71.451 35.1628 71.1253 35.0501 70.8225C34.8246 70.2282 34.7355 69.3139 35.8987 68.811C37.0797 68.3025 37.964 68.9082 38.4388 69.3996C38.6287 69.5996 38.9432 69.6282 39.1806 69.4853C39.3171 69.4053 39.4951 69.3768 39.7029 69.5025C39.9877 69.6739 40.3675 69.5596 40.5159 69.2682C40.8008 68.7082 41.3764 68.1082 42.5337 68.3025C44.5871 68.6396 44.8185 70.8339 44.2785 72.1196C43.7384 73.4053 41.5307 72.9139 40.4269 72.2682C39.5842 71.7768 38.4922 72.291 38.0174 72.5653C37.875 72.6568 37.7741 72.8053 37.7503 72.971Z" fill="url(#paint63_linear)"/>
<path d="M35.3705 76.8857C35.3705 76.8857 36.2133 74.6114 35.3468 74.0514C34.4804 73.4914 33.1925 73.7828 33.4774 75.4342C33.8275 77.4799 35.3705 76.8857 35.3705 76.8857Z" fill="url(#paint64_linear)"/>
<path d="M17.4953 109.365L22.2193 108.994L24.2668 110.811C24.2668 110.811 23.7801 111.457 22.2668 111.085C20.7535 110.714 18.6763 110.622 18.6763 110.622C18.6763 110.622 16.5873 111.531 16.5636 109.834L17.4953 109.365Z" fill="url(#paint65_linear)"/>
<path d="M54.1063 102.274C54.5158 102.582 55.9164 101.937 56.771 101.497C57.1864 101.279 57.3882 100.811 57.2457 100.377C57.038 99.7481 56.6938 98.9424 56.2724 98.8395C55.5781 98.6681 52.4268 101.005 54.1063 102.274Z" fill="url(#paint66_linear)"/>
<path d="M9.41823 120.406C9.40042 120.406 9.38262 120.406 9.36482 120.394C7.42418 119.748 6.97315 118.646 6.9316 117.834C6.87819 116.646 7.65563 115.548 8.86037 115.091L14.8663 112.84C14.9493 112.806 15.0443 112.846 15.0799 112.931C15.1155 113.011 15.074 113.103 14.9849 113.137L8.97906 115.388C7.90489 115.794 7.21647 116.771 7.26395 117.823C7.31142 118.863 8.05326 119.628 9.47164 120.097C9.55473 120.126 9.6022 120.217 9.57253 120.297C9.55473 120.366 9.48944 120.406 9.41823 120.406Z" fill="#BDFBF1"/>
<path d="M16.7772 112.451C16.712 112.451 16.6467 112.411 16.6229 112.348C16.5873 112.268 16.6289 112.177 16.7179 112.142L17.4954 111.851C17.5784 111.817 17.6734 111.862 17.709 111.942C17.7446 112.022 17.7031 112.114 17.614 112.148L16.8366 112.439C16.8129 112.445 16.7951 112.451 16.7772 112.451Z" fill="#BDFBF1"/>
</g>
<defs>
<linearGradient id="paint0_linear" x1="176.008" y1="161.105" x2="58.4673" y2="54.2909" gradientUnits="userSpaceOnUse">
<stop stop-color="#DAFEFA"/>
<stop offset="1" stop-color="#E9FDFA"/>
</linearGradient>
<linearGradient id="paint1_linear" x1="154.118" y1="90.1463" x2="162.494" y2="90.1463" gradientUnits="userSpaceOnUse">
<stop stop-color="#DAFEFA"/>
<stop offset="1" stop-color="#E9FDFA"/>
</linearGradient>
<linearGradient id="paint2_linear" x1="96.8378" y1="-50.587" x2="68.2233" y2="169.019" gradientUnits="userSpaceOnUse">
<stop stop-color="#1E3C5D"/>
<stop offset="1" stop-color="#004991"/>
</linearGradient>
<linearGradient id="paint3_linear" x1="9.5578" y1="105.401" x2="146.199" y2="-109.042" gradientUnits="userSpaceOnUse">
<stop stop-color="#59CBFF"/>
<stop offset="1" stop-color="#4AB1E2"/>
</linearGradient>
<linearGradient id="paint4_linear" x1="37.8299" y1="123.416" x2="174.471" y2="-91.0265" gradientUnits="userSpaceOnUse">
<stop stop-color="#59CBFF"/>
<stop offset="1" stop-color="#4AB1E2"/>
</linearGradient>
<linearGradient id="paint5_linear" x1="28.1374" y1="117.24" x2="164.779" y2="-97.2032" gradientUnits="userSpaceOnUse">
<stop stop-color="#59CBFF"/>
<stop offset="1" stop-color="#4AB1E2"/>
</linearGradient>
<linearGradient id="paint6_linear" x1="56.4096" y1="135.255" x2="193.051" y2="-79.1879" gradientUnits="userSpaceOnUse">
<stop stop-color="#59CBFF"/>
<stop offset="1" stop-color="#4AB1E2"/>
</linearGradient>
<linearGradient id="paint7_linear" x1="46.7171" y1="129.079" x2="183.358" y2="-85.3642" gradientUnits="userSpaceOnUse">
<stop stop-color="#59CBFF"/>
<stop offset="1" stop-color="#4AB1E2"/>
</linearGradient>
<linearGradient id="paint8_linear" x1="74.9894" y1="147.094" x2="211.63" y2="-67.3491" gradientUnits="userSpaceOnUse">
<stop stop-color="#59CBFF"/>
<stop offset="1" stop-color="#4AB1E2"/>
</linearGradient>
<linearGradient id="paint9_linear" x1="88.1139" y1="35.907" x2="107.649" y2="35.907" gradientUnits="userSpaceOnUse">
<stop stop-color="#DAFEFA"/>
<stop offset="1" stop-color="#E9FDFA"/>
</linearGradient>
<linearGradient id="paint10_linear" x1="94.8216" y1="36.1479" x2="102.675" y2="36.1479" gradientUnits="userSpaceOnUse">
<stop stop-color="#DAFEFA"/>
<stop offset="1" stop-color="#E9FDFA"/>
</linearGradient>
<linearGradient id="paint11_linear" x1="86.6735" y1="72.3083" x2="113.171" y2="72.3083" gradientUnits="userSpaceOnUse">
<stop stop-color="#DAFEFA"/>
<stop offset="1" stop-color="#E9FDFA"/>
</linearGradient>
<linearGradient id="paint12_linear" x1="86.758" y1="69.3502" x2="107.134" y2="69.3502" gradientUnits="userSpaceOnUse">
<stop stop-color="#DAFEFA"/>
<stop offset="1" stop-color="#E9FDFA"/>
</linearGradient>
<linearGradient id="paint13_linear" x1="99.2751" y1="74.0269" x2="101.077" y2="74.0269" gradientUnits="userSpaceOnUse">
<stop stop-color="#DAFEFA"/>
<stop offset="1" stop-color="#E9FDFA"/>
</linearGradient>
<linearGradient id="paint14_linear" x1="92.4699" y1="74.0269" x2="94.0711" y2="74.0269" gradientUnits="userSpaceOnUse">
<stop stop-color="#DAFEFA"/>
<stop offset="1" stop-color="#E9FDFA"/>
</linearGradient>
<linearGradient id="paint15_linear" x1="87.7439" y1="74.3613" x2="105.491" y2="74.3613" gradientUnits="userSpaceOnUse">
<stop stop-color="#DAFEFA"/>
<stop offset="1" stop-color="#E9FDFA"/>
</linearGradient>
<linearGradient id="paint16_linear" x1="99.5161" y1="83.2329" x2="102.818" y2="83.2329" gradientUnits="userSpaceOnUse">
<stop stop-color="#DAFEFA"/>
<stop offset="1" stop-color="#E9FDFA"/>
</linearGradient>
<linearGradient id="paint17_linear" x1="89.4534" y1="83.2329" x2="92.7553" y2="83.2329" gradientUnits="userSpaceOnUse">
<stop stop-color="#DAFEFA"/>
<stop offset="1" stop-color="#E9FDFA"/>
</linearGradient>
<linearGradient id="paint18_linear" x1="46.234" y1="35.913" x2="68.6514" y2="35.913" gradientUnits="userSpaceOnUse">
<stop stop-color="#DAFEFA"/>
<stop offset="1" stop-color="#E9FDFA"/>
</linearGradient>
<linearGradient id="paint19_linear" x1="46.6675" y1="32.0688" x2="67.8622" y2="32.0688" gradientUnits="userSpaceOnUse">
<stop stop-color="#DAFEFA"/>
<stop offset="1" stop-color="#E9FDFA"/>
</linearGradient>
<linearGradient id="paint20_linear" x1="46.7954" y1="38.0071" x2="54.3599" y2="38.0071" gradientUnits="userSpaceOnUse">
<stop stop-color="#DAFEFA"/>
<stop offset="1" stop-color="#E9FDFA"/>
</linearGradient>
<linearGradient id="paint21_linear" x1="60.2343" y1="38.0073" x2="67.7988" y2="38.0073" gradientUnits="userSpaceOnUse">
<stop stop-color="#DAFEFA"/>
<stop offset="1" stop-color="#E9FDFA"/>
</linearGradient>
<linearGradient id="paint22_linear" x1="47.2348" y1="74.2649" x2="70.653" y2="74.2649" gradientUnits="userSpaceOnUse">
<stop stop-color="#DAFEFA"/>
<stop offset="1" stop-color="#E9FDFA"/>
</linearGradient>
<linearGradient id="paint23_linear" x1="62.0463" y1="65.3034" x2="67.0502" y2="65.3034" gradientUnits="userSpaceOnUse">
<stop stop-color="#DAFEFA"/>
<stop offset="1" stop-color="#E9FDFA"/>
</linearGradient>
<linearGradient id="paint24_linear" x1="61.446" y1="70.4108" x2="66.0496" y2="70.4108" gradientUnits="userSpaceOnUse">
<stop stop-color="#DAFEFA"/>
<stop offset="1" stop-color="#E9FDFA"/>
</linearGradient>
<linearGradient id="paint25_linear" x1="51.2379" y1="74.5543" x2="61.646" y2="74.5543" gradientUnits="userSpaceOnUse">
<stop stop-color="#DAFEFA"/>
<stop offset="1" stop-color="#E9FDFA"/>
</linearGradient>
<linearGradient id="paint26_linear" x1="45.9225" y1="113.419" x2="67.489" y2="113.419" gradientUnits="userSpaceOnUse">
<stop stop-color="#DAFEFA"/>
<stop offset="1" stop-color="#E9FDFA"/>
</linearGradient>
<linearGradient id="paint27_linear" x1="54.1229" y1="113.491" x2="59.2791" y2="113.491" gradientUnits="userSpaceOnUse">
<stop stop-color="#DAFEFA"/>
<stop offset="1" stop-color="#E9FDFA"/>
</linearGradient>
<linearGradient id="paint28_linear" x1="53.883" y1="113.491" x2="59.519" y2="113.491" gradientUnits="userSpaceOnUse">
<stop stop-color="#DAFEFA"/>
<stop offset="1" stop-color="#E9FDFA"/>
</linearGradient>
<linearGradient id="paint29_linear" x1="49.4391" y1="113.466" x2="63.4315" y2="113.466" gradientUnits="userSpaceOnUse">
<stop stop-color="#DAFEFA"/>
<stop offset="1" stop-color="#E9FDFA"/>
</linearGradient>
<linearGradient id="paint30_linear" x1="49.1991" y1="113.467" x2="63.6714" y2="113.467" gradientUnits="userSpaceOnUse">
<stop stop-color="#DAFEFA"/>
<stop offset="1" stop-color="#E9FDFA"/>
</linearGradient>
<linearGradient id="paint31_linear" x1="48.2727" y1="109.975" x2="65.0849" y2="109.975" gradientUnits="userSpaceOnUse">
<stop stop-color="#DAFEFA"/>
<stop offset="1" stop-color="#E9FDFA"/>
</linearGradient>
<linearGradient id="paint32_linear" x1="48.033" y1="109.975" x2="65.3248" y2="109.975" gradientUnits="userSpaceOnUse">
<stop stop-color="#DAFEFA"/>
<stop offset="1" stop-color="#E9FDFA"/>
</linearGradient>
<linearGradient id="paint33_linear" x1="50.7083" y1="106.576" x2="62.6488" y2="106.576" gradientUnits="userSpaceOnUse">
<stop stop-color="#DAFEFA"/>
<stop offset="1" stop-color="#E9FDFA"/>
</linearGradient>
<linearGradient id="paint34_linear" x1="50.4685" y1="106.575" x2="62.8912" y2="106.575" gradientUnits="userSpaceOnUse">
<stop stop-color="#DAFEFA"/>
<stop offset="1" stop-color="#E9FDFA"/>
</linearGradient>
<linearGradient id="paint35_linear" x1="47.5431" y1="113.375" x2="65.8145" y2="113.375" gradientUnits="userSpaceOnUse">
<stop stop-color="#DAFEFA"/>
<stop offset="1" stop-color="#E9FDFA"/>
</linearGradient>
<linearGradient id="paint36_linear" x1="47.3032" y1="113.374" x2="66.0558" y2="113.374" gradientUnits="userSpaceOnUse">
<stop stop-color="#DAFEFA"/>
<stop offset="1" stop-color="#E9FDFA"/>
</linearGradient>
<linearGradient id="paint37_linear" x1="48.2727" y1="116.774" x2="65.0849" y2="116.774" gradientUnits="userSpaceOnUse">
<stop stop-color="#DAFEFA"/>
<stop offset="1" stop-color="#E9FDFA"/>
</linearGradient>
<linearGradient id="paint38_linear" x1="48.033" y1="116.773" x2="65.3248" y2="116.773" gradientUnits="userSpaceOnUse">
<stop stop-color="#DAFEFA"/>
<stop offset="1" stop-color="#E9FDFA"/>
</linearGradient>
<linearGradient id="paint39_linear" x1="50.9859" y1="120.172" x2="62.9757" y2="120.172" gradientUnits="userSpaceOnUse">
<stop stop-color="#DAFEFA"/>
<stop offset="1" stop-color="#E9FDFA"/>
</linearGradient>
<linearGradient id="paint40_linear" x1="50.7461" y1="120.172" x2="63.2155" y2="120.172" gradientUnits="userSpaceOnUse">
<stop stop-color="#DAFEFA"/>
<stop offset="1" stop-color="#E9FDFA"/>
</linearGradient>
<linearGradient id="paint41_linear" x1="86.265" y1="118.11" x2="91.6692" y2="118.11" gradientUnits="userSpaceOnUse">
<stop stop-color="#DAFEFA"/>
<stop offset="1" stop-color="#E9FDFA"/>
</linearGradient>
<linearGradient id="paint42_linear" x1="92.0694" y1="116.568" x2="97.6738" y2="116.568" gradientUnits="userSpaceOnUse">
<stop stop-color="#DAFEFA"/>
<stop offset="1" stop-color="#E9FDFA"/>
</linearGradient>
<linearGradient id="paint43_linear" x1="98.0742" y1="115.123" x2="104.079" y2="115.123" gradientUnits="userSpaceOnUse">
<stop stop-color="#DAFEFA"/>
<stop offset="1" stop-color="#E9FDFA"/>
</linearGradient>
<linearGradient id="paint44_linear" x1="104.679" y1="113.677" x2="110.684" y2="113.677" gradientUnits="userSpaceOnUse">
<stop stop-color="#DAFEFA"/>
<stop offset="1" stop-color="#E9FDFA"/>
</linearGradient>
<linearGradient id="paint45_linear" x1="140.646" y1="-10.6029" x2="3.6544" y2="69.8665" gradientUnits="userSpaceOnUse">
<stop stop-color="#FEBFBD"/>
<stop offset="1" stop-color="#FFAB9F"/>
</linearGradient>
<linearGradient id="paint46_linear" x1="22.4148" y1="3.64721" x2="51.1068" y2="71.2591" gradientUnits="userSpaceOnUse">
<stop stop-color="#FEBFBD"/>
<stop offset="1" stop-color="#FFAB9F"/>
</linearGradient>
<linearGradient id="paint47_linear" x1="21.6945" y1="159.493" x2="32.5764" y2="159.493" gradientUnits="userSpaceOnUse">
<stop stop-color="#59CBFF"/>
<stop offset="1" stop-color="#4AB1E2"/>
</linearGradient>
<linearGradient id="paint48_linear" x1="21.6934" y1="157.439" x2="32.2686" y2="157.439" gradientUnits="userSpaceOnUse">
<stop stop-color="#1E3C5D"/>
<stop offset="1" stop-color="#004991"/>
</linearGradient>
<linearGradient id="paint49_linear" x1="22.6987" y1="154.572" x2="25.7639" y2="154.572" gradientUnits="userSpaceOnUse">
<stop stop-color="#FEBFBD"/>
<stop offset="1" stop-color="#FFAB9F"/>
</linearGradient>
<linearGradient id="paint50_linear" x1="-0.000629741" y1="159.267" x2="4.16949" y2="159.267" gradientUnits="userSpaceOnUse">
<stop stop-color="#59CBFF"/>
<stop offset="1" stop-color="#4AB1E2"/>
</linearGradient>
<linearGradient id="paint51_linear" x1="0.0292783" y1="156.175" x2="6.15022" y2="156.175" gradientUnits="userSpaceOnUse">
<stop stop-color="#1E3C5D"/>
<stop offset="1" stop-color="#004991"/>
</linearGradient>
<linearGradient id="paint52_linear" x1="3.21187" y1="152.112" x2="6.87514" y2="152.112" gradientUnits="userSpaceOnUse">
<stop stop-color="#FEBFBD"/>
<stop offset="1" stop-color="#FFAB9F"/>
</linearGradient>
<linearGradient id="paint53_linear" x1="-13.164" y1="156.729" x2="38.2965" y2="118.265" gradientUnits="userSpaceOnUse">
<stop stop-color="#59CBFF"/>
<stop offset="1" stop-color="#4AB1E2"/>
</linearGradient>
<linearGradient id="paint54_linear" x1="-75.0576" y1="228.94" x2="-47.2414" y2="190.157" gradientUnits="userSpaceOnUse">
<stop stop-color="#FFAB9F"/>
<stop offset="1" stop-color="#E1C350"/>
</linearGradient>
<linearGradient id="paint55_linear" x1="19.995" y1="100.699" x2="7.38997" y2="112.291" gradientUnits="userSpaceOnUse">
<stop stop-color="#FEBFBD"/>
<stop offset="1" stop-color="#FFAB9F"/>
</linearGradient>
<linearGradient id="paint56_linear" x1="-83.6579" y1="222.771" x2="-55.8415" y2="183.989" gradientUnits="userSpaceOnUse">
<stop stop-color="#FFAB9F"/>
<stop offset="1" stop-color="#E1C350"/>
</linearGradient>
<linearGradient id="paint57_linear" x1="-65.2392" y1="235.982" x2="-37.4228" y2="197.2" gradientUnits="userSpaceOnUse">
<stop stop-color="#FFAB9F"/>
<stop offset="1" stop-color="#E1C350"/>
</linearGradient>
<linearGradient id="paint58_linear" x1="44.4406" y1="101.75" x2="54.7105" y2="101.75" gradientUnits="userSpaceOnUse">
<stop stop-color="#FEBFBD"/>
<stop offset="1" stop-color="#FFAB9F"/>
</linearGradient>
<linearGradient id="paint59_linear" x1="34.4581" y1="75.3243" x2="34.3541" y2="93.7905" gradientUnits="userSpaceOnUse">
<stop stop-color="#FEBFBD"/>
<stop offset="1" stop-color="#FFAB9F"/>
</linearGradient>
<linearGradient id="paint60_linear" x1="5.91305" y1="108.994" x2="59.6921" y2="108.994" gradientUnits="userSpaceOnUse">
<stop stop-color="#1E3C5D"/>
<stop offset="1" stop-color="#004991"/>
</linearGradient>
<linearGradient id="paint61_linear" x1="47.4311" y1="121.739" x2="155.731" y2="-0.998437" gradientUnits="userSpaceOnUse">
<stop stop-color="#1E3C5D"/>
<stop offset="1" stop-color="#004991"/>
</linearGradient>
<linearGradient id="paint62_linear" x1="40.6812" y1="72.2878" x2="33.5513" y2="85.7153" gradientUnits="userSpaceOnUse">
<stop stop-color="#FEBFBD"/>
<stop offset="1" stop-color="#FFAB9F"/>
</linearGradient>
<linearGradient id="paint63_linear" x1="32.0743" y1="74.2668" x2="64.7881" y2="78.5626" gradientUnits="userSpaceOnUse">
<stop stop-color="#1E3C5D"/>
<stop offset="1" stop-color="#004991"/>
</linearGradient>
<linearGradient id="paint64_linear" x1="28.4095" y1="83.6142" x2="34.482" y2="74.9512" gradientUnits="userSpaceOnUse">
<stop stop-color="#FEBFBD"/>
<stop offset="1" stop-color="#FFAB9F"/>
</linearGradient>
<linearGradient id="paint65_linear" x1="25.1445" y1="106.298" x2="12.5391" y2="117.89" gradientUnits="userSpaceOnUse">
<stop stop-color="#FEBFBD"/>
<stop offset="1" stop-color="#FFAB9F"/>
</linearGradient>
<linearGradient id="paint66_linear" x1="53.6196" y1="100.589" x2="57.2973" y2="100.589" gradientUnits="userSpaceOnUse">
<stop stop-color="#FEBFBD"/>
<stop offset="1" stop-color="#FFAB9F"/>
</linearGradient>
<clipPath id="clip0">
<rect width="165.5" height="160" fill="white"/>
</clipPath>
</defs>
</svg>
