<svg width="46" height="46" viewBox="0 0 46 46" fill="none" xmlns="http://www.w3.org/2000/svg">
<path d="M4.89058 27.751C2.18967 17.6724 8.17157 7.31282 18.2515 4.61226C26.1962 2.48378 34.3154 5.74834 38.7211 12.1615C38.75 12.2035 38.7338 12.2615 38.6877 12.2833C38.6522 12.3001 38.6098 12.2899 38.5859 12.2587C34.6756 7.15141 27.9368 4.62532 21.3371 6.39348C12.6011 8.73397 7.41683 17.7123 9.75762 26.4471C12.0984 35.1819 21.0779 40.3655 29.8139 38.025C36.4136 36.2569 40.9863 30.7003 41.8187 24.3223C41.8238 24.2834 41.8555 24.2533 41.8946 24.2501C41.9454 24.246 41.9885 24.2881 41.9845 24.3389C41.376 32.0955 35.977 38.9817 28.0324 41.1102C17.9524 43.8108 7.5915 37.8297 4.89058 27.751Z" fill="#4CD7D0"/>
<path d="M11.4687 18.4632C13.6294 10.4003 21.9182 5.61539 29.9822 7.77584C35.6332 9.28983 39.6742 13.8128 40.843 19.1587C40.8656 19.2619 40.7843 19.358 40.6787 19.3578C40.6058 19.3577 40.5413 19.3106 40.5193 19.2411C39.2659 15.277 36.0778 12.0168 31.7636 10.861C25.0437 9.06064 18.1364 13.0481 16.3357 19.7671C14.5351 26.4862 18.5231 33.3926 25.243 35.193C29.5572 36.3488 33.9485 35.1192 37.0163 32.3129C37.07 32.2637 37.1495 32.2552 37.2127 32.2915C37.3042 32.3441 37.3265 32.468 37.2554 32.5461C33.5698 36.5915 27.8085 38.4882 22.1575 36.9742C14.0935 34.8138 9.30798 26.5261 11.4687 18.4632Z" fill="#70DFD9"/>
<path d="M20.6137 14.2864C25.0411 9.8596 32.2194 9.8596 36.6468 14.2864C39.0288 16.6681 40.1293 19.8459 39.9482 22.9632C39.9331 23.2237 39.6531 23.3767 39.4102 23.2815C39.2741 23.2282 39.1766 23.1046 39.158 22.9597C38.9193 21.091 38.0822 19.2841 36.6468 17.8489C33.2033 14.4058 27.6202 14.4058 24.1766 17.8489C20.7331 21.292 20.7331 26.8744 24.1766 30.3175C25.612 31.7527 27.4191 32.5896 29.2881 32.8283C29.433 32.8469 29.5566 32.9444 29.61 33.0804C29.7052 33.3233 29.5521 33.6033 29.2916 33.6184C26.1739 33.7994 22.9957 32.6991 20.6137 30.3175C16.1863 25.8906 16.1863 18.7133 20.6137 14.2864Z" fill="#94E7E3"/>
</svg>
