<svg width="56" height="56" viewBox="0 0 56 56" fill="none" xmlns="http://www.w3.org/2000/svg">
<path d="M6.82893 33.7838C3.54086 21.5142 10.8232 8.90251 23.0944 5.61487C32.7662 3.02367 42.6504 6.99792 48.0139 14.8053C48.0491 14.8564 48.0293 14.9269 47.9733 14.9535C47.9301 14.974 47.8784 14.9616 47.8493 14.9236C43.0889 8.706 34.8853 5.63077 26.8508 7.78331C16.2157 10.6326 9.90436 21.5627 12.754 32.1964C15.6037 42.8301 26.5352 49.1406 37.1703 46.2913C45.2048 44.1388 50.7716 37.3742 51.7849 29.6097C51.7911 29.5623 51.8297 29.5257 51.8773 29.5219C51.9392 29.5168 51.9916 29.5681 51.9867 29.6299C51.2459 39.0727 44.6733 47.456 35.0016 50.0472C22.7303 53.3348 10.117 46.0535 6.82893 33.7838Z" fill="#FAFBFE"/>
<path d="M14.8371 22.4769C17.4675 12.6612 27.5582 6.83613 37.3752 9.46624C44.2547 11.3093 49.1742 16.8155 50.5971 23.3237C50.6246 23.4492 50.5256 23.5663 50.3971 23.566C50.3083 23.5659 50.2298 23.5086 50.203 23.424C48.6771 18.5981 44.7959 14.6292 39.544 13.2221C31.3631 11.0303 22.9542 15.8846 20.7622 24.0643C18.5701 32.2441 23.425 40.6519 31.6058 42.8437C36.8578 44.2507 42.2038 42.7538 45.9384 39.3374C46.0039 39.2775 46.1006 39.2671 46.1776 39.3114C46.289 39.3754 46.3162 39.5263 46.2296 39.6213C41.7428 44.5461 34.729 46.8552 27.8495 45.0121C18.0325 42.382 12.2066 32.2926 14.8371 22.4769Z" fill="#FAFBFE"/>
<path d="M25.9702 17.3922C31.3601 12.003 40.0989 12.003 45.4888 17.3922C48.3886 20.2916 49.7282 24.1602 49.5078 27.9552C49.4894 28.2722 49.1485 28.4586 48.8528 28.3427C48.6872 28.2778 48.5684 28.1273 48.5459 27.9509C48.2552 25.6759 47.2362 23.4763 45.4888 21.7291C41.2966 17.5375 34.4998 17.5375 30.3076 21.7291C26.1155 25.9207 26.1155 32.7166 30.3076 36.9082C32.0551 38.6554 34.255 39.6743 36.5303 39.9649C36.7067 39.9875 36.8572 40.1062 36.9221 40.2718C37.0381 40.5675 36.8517 40.9083 36.5345 40.9267C32.7391 41.1471 28.87 39.8076 25.9702 36.9082C20.5803 31.519 20.5803 22.7814 25.9702 17.3922Z" fill="#FAFBFE"/>
</svg>
