<svg width="21" height="22" viewBox="0 0 21 22" fill="none" xmlns="http://www.w3.org/2000/svg">
<path d="M19.6534 10.1301L11.2293 18.5543C10.1972 19.5863 8.79752 20.1661 7.33802 20.1661C5.87852 20.1661 4.47879 19.5863 3.44677 18.5543C2.41475 17.5223 1.83496 16.1225 1.83496 14.663C1.83496 13.2035 2.41475 11.8038 3.44677 10.7718L11.8709 2.34761C12.559 1.65959 13.4921 1.27307 14.4651 1.27307C15.4381 1.27307 16.3713 1.65959 17.0593 2.34761C17.7473 3.03563 18.1338 3.96878 18.1338 4.94178C18.1338 5.91478 17.7473 6.84793 17.0593 7.53594L8.62594 15.9601C8.28193 16.3041 7.81535 16.4974 7.32885 16.4974C6.84235 16.4974 6.37578 16.3041 6.03177 15.9601C5.68776 15.6161 5.4945 15.1495 5.4945 14.663C5.4945 14.1765 5.68776 13.71 6.03177 13.3659L13.8143 5.59261" stroke="#4CD7D0" stroke-width="2" stroke-linecap="round" stroke-linejoin="round"/>
</svg>
