<svg width="20" height="22" viewBox="0 0 20 22" fill="none" xmlns="http://www.w3.org/2000/svg">
<path d="M1.75 5.5H3.58333H18.25" stroke="#FAFBFE" stroke-width="2" stroke-linecap="round" stroke-linejoin="round"/>
<path d="M6.33325 5.49998V3.66665C6.33325 3.18042 6.52641 2.7141 6.87022 2.37028C7.21404 2.02647 7.68036 1.83331 8.16659 1.83331H11.8333C12.3195 1.83331 12.7858 2.02647 13.1296 2.37028C13.4734 2.7141 13.6666 3.18042 13.6666 3.66665V5.49998M16.4166 5.49998V18.3333C16.4166 18.8195 16.2234 19.2859 15.8796 19.6297C15.5358 19.9735 15.0695 20.1666 14.5833 20.1666H5.41659C4.93036 20.1666 4.46404 19.9735 4.12022 19.6297C3.77641 19.2859 3.58325 18.8195 3.58325 18.3333V5.49998H16.4166Z" stroke="#FAFBFE" stroke-width="2" stroke-linecap="round" stroke-linejoin="round"/>
<path d="M8.16675 10.0833V15.5833" stroke="#FAFBFE" stroke-width="2" stroke-linecap="round" stroke-linejoin="round"/>
<path d="M11.8333 10.0833V15.5833" stroke="#FAFBFE" stroke-width="2" stroke-linecap="round" stroke-linejoin="round"/>
</svg>
