<svg width="24" height="24" viewBox="0 0 24 24" fill="none" xmlns="http://www.w3.org/2000/svg">
<path d="M3.00003 6H5.00003H21" stroke="#4CD7D0" stroke-width="2" stroke-linecap="round" stroke-linejoin="round"/>
<path d="M8.00003 6V4C8.00003 3.46957 8.21074 2.96086 8.58582 2.58579C8.96089 2.21071 9.4696 2 10 2H14C14.5305 2 15.0392 2.21071 15.4142 2.58579C15.7893 2.96086 16 3.46957 16 4V6M19 6V20C19 20.5304 18.7893 21.0391 18.4142 21.4142C18.0392 21.7893 17.5305 22 17 22H7.00003C6.4696 22 5.96089 21.7893 5.58582 21.4142C5.21074 21.0391 5.00003 20.5304 5.00003 20V6H19Z" stroke="#4CD7D0" stroke-width="2" stroke-linecap="round" stroke-linejoin="round"/>
<path d="M10 11V17" stroke="#4CD7D0" stroke-width="2" stroke-linecap="round" stroke-linejoin="round"/>
<path d="M14 11V17" stroke="#4CD7D0" stroke-width="2" stroke-linecap="round" stroke-linejoin="round"/>
</svg>
