<svg width="13" height="25" viewBox="0 0 13 25" fill="none" xmlns="http://www.w3.org/2000/svg">
<path d="M12.16 16.128C12.16 17.44 11.72 18.568 10.84 19.512C9.96 20.456 8.632 21.016 6.856 21.192L6.832 24.024H4.912L4.936 21.24C3.96 21.176 3.088 21.048 2.32 20.856C1.552 20.664 0.784 20.448 0.0160002 20.208L0.208 15.936H2.176L2.752 18.888C3.344 19.448 4.288 19.728 5.584 19.728C7.664 19.728 8.704 18.832 8.704 17.04C8.704 16.496 8.528 16.008 8.176 15.576C7.824 15.128 7.368 14.736 6.808 14.4C6.248 14.048 5.464 13.616 4.456 13.104C3.528 12.624 2.76 12.152 2.152 11.688C1.56 11.224 1.08 10.656 0.712 9.984C0.344 9.296 0.16 8.48 0.16 7.536C0.16 6.368 0.6 5.368 1.48 4.536C2.376 3.688 3.576 3.176 5.08 3V0.36H7.048V2.976C7.848 3.024 8.552 3.128 9.16 3.288C9.784 3.448 10.432 3.632 11.104 3.84L10.984 7.776H9.064L8.512 5.064C8.32 4.888 8.04 4.736 7.672 4.608C7.304 4.48 6.896 4.416 6.448 4.416C5.552 4.416 4.832 4.632 4.288 5.064C3.744 5.48 3.472 6.064 3.472 6.816C3.472 7.424 3.648 7.952 4 8.4C4.368 8.848 4.784 9.216 5.248 9.504C5.728 9.792 6.456 10.2 7.432 10.728C8.536 11.336 9.392 11.864 10 12.312C10.624 12.744 11.136 13.272 11.536 13.896C11.952 14.52 12.16 15.264 12.16 16.128Z" fill="#4A5268"/>
</svg>
