<svg width="22" height="22" viewBox="0 0 22 22" fill="none" xmlns="http://www.w3.org/2000/svg">
<path d="M10.0834 3.66667H3.66671C3.18048 3.66667 2.71416 3.85982 2.37034 4.20364C2.02653 4.54746 1.83337 5.01377 1.83337 5.5V18.3333C1.83337 18.8196 2.02653 19.2859 2.37034 19.6297C2.71416 19.9735 3.18048 20.1667 3.66671 20.1667H16.5C16.9863 20.1667 17.4526 19.9735 17.7964 19.6297C18.1402 19.2859 18.3334 18.8196 18.3334 18.3333V11.9167" stroke="#FAFBFE" stroke-width="2" stroke-linecap="round" stroke-linejoin="round"/>
<path d="M16.9584 2.29167C17.323 1.927 17.8176 1.72213 18.3334 1.72213C18.8491 1.72213 19.3437 1.927 19.7084 2.29167C20.073 2.65634 20.2779 3.15094 20.2779 3.66667C20.2779 4.18239 20.073 4.677 19.7084 5.04167L11 13.75L7.33337 14.6667L8.25004 11L16.9584 2.29167Z" stroke="#FAFBFE" stroke-width="2" stroke-linecap="round" stroke-linejoin="round"/>
</svg>
