<svg width="23" height="22" viewBox="0 0 23 22" fill="none" xmlns="http://www.w3.org/2000/svg">
<path d="M11.5 14.661C9.79844 14.661 8.40625 13.5266 7.99375 11.9797L4.53906 15.4344C5.98281 17.7031 8.56094 19.25 11.5 19.25C13.0984 19.25 14.5938 18.786 15.8828 17.961L12.4281 14.5063C12.1187 14.6094 11.8094 14.661 11.5 14.661Z" fill="#34A853"/>
<path d="M19.75 9.86563C19.6984 9.60781 19.4922 9.45312 19.2344 9.45312H11.5C11.1906 9.45312 10.9844 9.65937 10.9844 9.96875V12.5469C10.9844 12.8563 11.1906 13.0625 11.5 13.0625H14.2328C13.7687 13.7844 13.0984 14.2484 12.4281 14.5062L15.8828 17.9609C18.2031 16.5172 19.75 13.9391 19.75 11C19.75 10.8453 19.75 10.7422 19.75 10.6391C19.8016 10.4328 19.8016 10.175 19.75 9.86563Z" fill="#4285F4"/>
<path d="M7.83906 11C7.83906 10.6906 7.89062 10.3812 7.94219 10.0719L4.53906 6.61719C3.71406 7.90625 3.25 9.40156 3.25 11C3.25 12.5984 3.71406 14.0938 4.53906 15.3828L7.99375 11.9281C7.89062 11.6187 7.83906 11.3094 7.83906 11Z" fill="#FBBC05"/>
<path d="M17.9453 5.84375C17.3781 5.12188 16.6562 4.50313 15.8828 3.9875C14.5937 3.21406 13.0984 2.75 11.5 2.75C8.56094 2.75 5.98281 4.29688 4.53906 6.61719L7.99375 10.0719C8.40625 8.525 9.85 7.39062 11.5 7.39062C11.8094 7.39062 12.1187 7.44219 12.4281 7.54531C12.8922 7.7 13.3047 7.95781 13.7687 8.31875C13.9234 8.47344 14.1297 8.47344 14.3359 8.37031L17.7906 6.66875C17.9453 6.61719 18.0484 6.4625 18.0484 6.30781C18.1 6.15313 18.0484 5.99844 17.9453 5.84375Z" fill="#EA4335"/>
</svg>
