<svg width="20" height="24" viewBox="0 0 20 24" fill="none" xmlns="http://www.w3.org/2000/svg">
<path d="M16.903 1.73476C15.8916 0.578904 14.0134 0.000976562 11.4127 0.000976562H4.1886C3.75516 0.000976562 3.32171 0.434422 3.17723 0.867867L0.287598 19.795C0.287598 20.2284 0.576561 20.5174 0.865524 20.5174H5.34445L6.50031 13.4378V13.7267C6.64479 13.2933 7.07823 12.8598 7.51168 12.8598H9.6789C13.8689 12.8598 17.0475 11.1261 18.0588 6.35817V5.92472C17.9144 5.92472 17.9144 5.92472 18.0588 5.92472C18.2033 4.04646 17.9144 2.89061 16.903 1.73476Z" fill="#263B80"/>
<path d="M17.9142 5.92468V6.35813C16.9029 11.2705 13.7243 12.8598 9.5343 12.8598H7.36708C6.93363 12.8598 6.50019 13.2932 6.3557 13.7267L4.91089 22.5401C4.91089 22.829 5.05537 23.118 5.48881 23.118H9.24534C9.67878 23.118 10.1122 22.829 10.1122 22.3956V22.2511L10.8346 17.7722V17.4832C10.8346 17.0498 11.2681 16.7608 11.7015 16.7608H12.2795C15.8915 16.7608 18.7811 15.316 19.5035 10.9815C19.7925 9.24776 19.648 7.65846 18.7811 6.64709C18.6366 6.35813 18.3477 6.06916 17.9142 5.92468Z" fill="#139AD6"/>
<path d="M16.9032 5.49131C16.7587 5.49131 16.6142 5.34683 16.4697 5.34683C16.3252 5.34683 16.1808 5.34683 16.0363 5.20234C15.4583 5.05786 14.8804 5.05786 14.158 5.05786H8.52323C8.37875 5.05786 8.23427 5.05786 8.08979 5.20234C7.80082 5.34683 7.65634 5.63579 7.65634 5.92475L6.50049 13.4378V13.7268C6.64497 13.2933 7.07841 12.8599 7.51186 12.8599H9.67908C13.8691 12.8599 17.0476 11.1261 18.059 6.3582C18.059 6.21371 18.059 6.06923 18.2035 5.92475C17.9145 5.78027 17.7701 5.63579 17.4811 5.63579C17.0476 5.49131 17.0476 5.49131 16.9032 5.49131Z" fill="#232C65"/>
</svg>
