<svg width="64" height="54" viewBox="0 0 64 54" fill="none" xmlns="http://www.w3.org/2000/svg">
<path fill-rule="evenodd" clip-rule="evenodd" d="M30.1143 25.1144C31.1557 24.073 32.8442 24.073 33.8856 25.1144L44.5522 35.7811C45.5936 36.8225 45.5936 38.5109 44.5522 39.5523C43.5108 40.5937 41.8224 40.5937 40.781 39.5523L31.9999 30.7713L23.2189 39.5523C22.1775 40.5937 20.4891 40.5937 19.4477 39.5523C18.4063 38.5109 18.4063 36.8225 19.4477 35.7811L30.1143 25.1144Z" fill="#8C91A2"/>
<path fill-rule="evenodd" clip-rule="evenodd" d="M31.9999 24.3334C33.4727 24.3334 34.6666 25.5273 34.6666 27V51C34.6666 52.4728 33.4727 53.6667 31.9999 53.6667C30.5272 53.6667 29.3333 52.4728 29.3333 51V27C29.3333 25.5273 30.5272 24.3334 31.9999 24.3334Z" fill="#8C91A2"/>
<path fill-rule="evenodd" clip-rule="evenodd" d="M23.1021 0.356187C26.7274 0.222616 30.3358 0.912634 33.656 2.37436C36.9763 3.83609 39.9219 6.03149 42.2716 8.79552C44.1688 11.0273 45.6375 13.5829 46.6108 16.3334H47.9999C51.5547 16.3357 55.0092 17.5218 57.815 19.7044C60.6209 21.887 62.6199 24.9418 63.4968 28.3868C64.3736 31.8317 64.0782 35.4705 62.6573 38.729C61.2364 41.9874 58.7708 44.6798 55.6497 46.3814C54.3566 47.0863 52.7369 46.6095 52.0319 45.3165C51.327 44.0234 51.8038 42.4036 53.0968 41.6987C55.1776 40.5643 56.8213 38.7694 57.7686 36.5971C58.7159 34.4248 58.9128 31.9989 58.3282 29.7023C57.7437 27.4057 56.411 25.3691 54.5404 23.914C52.6699 22.459 50.368 21.6683 47.9982 21.6667H44.6399C43.4243 21.6667 42.3625 20.8445 42.0582 19.6675C41.3519 16.9357 40.0355 14.3996 38.208 12.2498C36.3805 10.1 34.0895 8.3925 31.5071 7.2556C28.9247 6.1187 26.1181 5.58202 23.2984 5.6859C20.4788 5.78979 17.7193 6.53155 15.2276 7.8554C12.7358 9.17925 10.5766 11.0508 8.91228 13.3292C7.24793 15.6077 6.12177 18.2338 5.61844 21.0101C5.11512 23.7864 5.24774 26.6407 6.00632 29.3585C6.76491 32.0762 8.12972 34.5865 9.99816 36.7008C10.9734 37.8044 10.8694 39.4897 9.76579 40.4649C8.6622 41.4402 6.97697 41.3361 6.00171 40.2325C3.59944 37.5141 1.84468 34.2865 0.869352 30.7923C-0.105973 27.2981 -0.276479 23.6283 0.370652 20.0587C1.01778 16.4892 2.46571 13.1127 4.60558 10.1833C6.74545 7.25385 9.52157 4.84763 12.7252 3.14554C15.9289 1.44344 19.4768 0.489758 23.1021 0.356187Z" fill="#8C91A2"/>
<path fill-rule="evenodd" clip-rule="evenodd" d="M30.1143 25.1144C31.1557 24.073 32.8442 24.073 33.8856 25.1144L44.5522 35.7811C45.5936 36.8225 45.5936 38.5109 44.5522 39.5523C43.5108 40.5937 41.8224 40.5937 40.781 39.5523L31.9999 30.7713L23.2189 39.5523C22.1775 40.5937 20.4891 40.5937 19.4477 39.5523C18.4063 38.5109 18.4063 36.8225 19.4477 35.7811L30.1143 25.1144Z" fill="#8C91A2"/>
</svg>
