<svg width="50" height="16" viewBox="0 0 50 16" fill="none" xmlns="http://www.w3.org/2000/svg">
<path d="M21.7276 15.7178H17.7117L20.2215 0.292894H24.2379L21.7276 15.7178ZM14.3332 0.292894L10.5047 10.9022L10.0516 8.61764L10.052 8.61847L8.70075 1.68173C8.70075 1.68173 8.53735 0.292894 6.79574 0.292894H0.466359L0.39209 0.554073C0.39209 0.554073 2.32763 0.956777 4.59284 2.31714L8.08184 15.7182H12.2661L18.6553 0.292894H14.3332ZM45.9203 15.7178H49.6078L46.3928 0.292481H43.1645C41.6738 0.292481 41.3107 1.442 41.3107 1.442L35.3213 15.7178H39.5076L40.3448 13.4266H45.45L45.9203 15.7178ZM41.5013 10.2615L43.6114 4.4891L44.7984 10.2615H41.5013ZM35.6353 4.00222L36.2084 0.68982C36.2084 0.68982 34.44 0.0172729 32.5964 0.0172729C30.6035 0.0172729 25.8709 0.888285 25.8709 5.12369C25.8709 9.10864 31.4255 9.15816 31.4255 11.2513C31.4255 13.3445 26.4432 12.9694 24.799 11.6495L24.202 15.1129C24.202 15.1129 25.9951 15.9839 28.7348 15.9839C31.4754 15.9839 35.6097 14.5649 35.6097 10.703C35.6097 6.69242 30.0053 6.31901 30.0053 4.57534C30.0057 2.83125 33.9168 3.05529 35.6353 4.00222Z" fill="#2566AF"/>
<path d="M10.052 8.61811L8.70075 1.68137C8.70075 1.68137 8.53735 0.292542 6.79574 0.292542H0.466359L0.39209 0.553721C0.39209 0.553721 3.43424 1.18418 6.35219 3.54635C9.14223 5.80414 10.052 8.61811 10.052 8.61811Z" fill="#E6A540"/>
</svg>
