<svg width="110" height="23" viewBox="0 0 110 23" fill="none" xmlns="http://www.w3.org/2000/svg">
<path d="M21.7276 19.7187H17.7117L20.2215 4.29387H24.2379L21.7276 19.7187ZM14.3332 4.29387L10.5047 14.9032L10.0516 12.6186L10.052 12.6194L8.70075 5.6827C8.70075 5.6827 8.53735 4.29387 6.79574 4.29387H0.466359L0.39209 4.55505C0.39209 4.55505 2.32763 4.95775 4.59284 6.31812L8.08184 19.7192H12.2661L18.6553 4.29387H14.3332ZM45.9203 19.7187H49.6078L46.3928 4.29346H43.1645C41.6738 4.29346 41.3107 5.44298 41.3107 5.44298L35.3213 19.7187H39.5076L40.3448 17.4275H45.45L45.9203 19.7187ZM41.5013 14.2624L43.6114 8.49008L44.7984 14.2624H41.5013ZM35.6353 8.0032L36.2084 4.6908C36.2084 4.6908 34.44 4.01825 32.5964 4.01825C30.6035 4.01825 25.8709 4.88926 25.8709 9.12467C25.8709 13.1096 31.4255 13.1591 31.4255 15.2523C31.4255 17.3454 26.4432 16.9704 24.799 15.6504L24.202 19.1139C24.202 19.1139 25.9951 19.9849 28.7348 19.9849C31.4754 19.9849 35.6097 18.5659 35.6097 14.7039C35.6097 10.6934 30.0053 10.32 30.0053 8.57631C30.0057 6.83223 33.9168 7.05627 35.6353 8.0032Z" fill="#2566AF"/>
<path d="M109.163 11.5154C109.163 17.7339 104.131 22.7749 97.9247 22.7749C91.7181 22.7749 86.6865 17.7339 86.6865 11.5154C86.6865 5.29699 91.7181 0.255981 97.9247 0.255981C104.131 0.255981 109.163 5.29699 109.163 11.5154Z" fill="#F79F1A"/>
<path d="M95.2988 11.5154C95.2988 17.7339 90.2674 22.7749 84.0606 22.7749C77.854 22.7749 72.8225 17.7339 72.8225 11.5154C72.8225 5.29699 77.854 0.255981 84.0606 0.255981C90.2674 0.255981 95.2988 5.29699 95.2988 11.5154Z" fill="#EA001B"/>
<path d="M90.9928 2.65186C88.3707 4.71308 86.6875 7.91619 86.6875 11.5144C86.6875 15.1125 88.3707 18.318 90.9928 20.3793C93.6149 18.318 95.2982 15.1125 95.2982 11.5144C95.2982 7.91619 93.6149 4.71308 90.9928 2.65186Z" fill="#FF5F01"/>
</svg>
